<?xml version="1.0" encoding="UTF-8" standalone="no"?>
<!-- Created with Inkscape (http://www.inkscape.org/) -->

<svg
   version="1.1"
   id="svg1"
   width="682.66669"
   height="682.66669"
   viewBox="0 0 682.66669 682.66669"
   sodipodi:docname="icon.svg"
   inkscape:export-filename="TheIDE_512x512.svg"
   inkscape:export-xdpi="96"
   inkscape:export-ydpi="96"
   inkscape:version="1.4.2 (ebf0e940d0, 2025-05-08)"
   xmlns:inkscape="http://www.inkscape.org/namespaces/inkscape"
   xmlns:sodipodi="http://sodipodi.sourceforge.net/DTD/sodipodi-0.dtd"
   xmlns:xlink="http://www.w3.org/1999/xlink"
   xmlns="http://www.w3.org/2000/svg"
   xmlns:svg="http://www.w3.org/2000/svg">
  <defs
     id="defs1">
    <linearGradient
       id="linearGradient3"
       inkscape:collect="always">
      <stop
         style="stop-color:#e2f0f0;stop-opacity:1;"
         offset="0"
         id="stop3" />
      <stop
         style="stop-color:#868686;stop-opacity:1;"
         offset="1"
         id="stop4" />
    </linearGradient>
    <linearGradient
       inkscape:collect="always"
       xlink:href="#linearGradient3"
       id="linearGradient4"
       x1="362.5"
       y1="144.81264"
       x2="362.5"
       y2="546.91528"
       gradientUnits="userSpaceOnUse"
       spreadMethod="pad" />
  </defs>
  <sodipodi:namedview
     id="namedview1"
     pagecolor="#ffffff"
     bordercolor="#666666"
     borderopacity="1.0"
     inkscape:showpageshadow="2"
     inkscape:pageopacity="0.0"
     inkscape:pagecheckerboard="0"
     inkscape:deskcolor="#d1d1d1"
     inkscape:zoom="1.4142136"
     inkscape:cx="270.11479"
     inkscape:cy="236.88077"
     inkscape:window-width="1720"
     inkscape:window-height="1368"
     inkscape:window-x="0"
     inkscape:window-y="0"
     inkscape:window-maximized="0"
     inkscape:current-layer="g1" />
  <g
     inkscape:groupmode="layer"
     inkscape:label="Image"
     id="g1">
    <path
       style="fill:#000000;fill-opacity:1;stroke-width:0.586483"
       d="m 257.04493,616.29431 -0.009,-21.71038 c -53.44778,-0.35611 -117.49766,0.31862 -170.945674,0.5468 -0.142387,-42.46393 -0.527842,-84.92556 -1.195401,-127.38453 -14.048026,0.59277 -28.080446,-0.0159 -42.11153,-0.72728 0.281051,-70.88346 -0.283662,-141.76162 0.106704,-212.64456 13.725802,0.44976 28.354077,0.88641 42.088381,0.57438 0.01882,-56.75649 0.496505,-113.50938 1.352324,-170.25929 57.052566,0.280085 114.104826,0.251848 171.156686,-0.161099 -0.1507,-13.913561 0.0233,-27.824393 0.37433,-41.733737 h 210.54749 c 0.32765,13.603091 0.52104,27.208028 0.56399,40.815035 42.88191,-0.595961 85.7628,-0.439396 128.64301,0.216547 0.22778,57.142324 0.58955,114.283804 1.08595,171.424434 13.8811,0.12812 29.06933,0.0174 42.41263,0.38708 l -0.0175,211.35184 c -14.19042,-0.0468 -28.47776,0.13539 -42.6563,0.20576 -0.69523,42.80697 -0.89672,85.61649 -0.65662,128.4283 -42.36446,-0.48736 -85.77533,-0.65206 -128.1418,-0.42861 l -0.24316,42.16399 c -70.78469,0.70578 -141.56955,0.71454 -212.35458,0.0486 -10e-6,-7.03779 -3e-5,-14.07557 -4e-5,-21.11336 z M 448.3692,339.70868 c 0.14519,-92.49894 0.29037,-184.99789 0.43556,-277.496829 -56.95446,0.289591 -113.90908,0.545075 -170.8638,0.777488 -0.29024,184.491821 -0.34931,368.983721 -0.17117,553.475691 56.63392,0.7552 113.27004,1.23189 169.90897,1.35065 0.23015,-92.70233 0.46029,-185.40467 0.69044,-278.107 z M 256.00041,521.69443 c -0.12991,-18.11428 -0.25981,-36.22855 -0.38972,-54.34283 -49.81196,0.50176 -99.62528,0.66176 -149.43957,0.577 0.73772,35.70254 1.17793,71.40884 1.35357,107.11851 49.44715,0.22774 98.89335,0.1629 148.33779,-0.44328 0.046,-17.63647 0.0919,-35.27293 0.13793,-52.9094 z m 320.68873,0.0874 c -0.17097,-17.83298 -0.34193,-35.66596 -0.5129,-53.49894 -35.20384,-0.44742 -70.40913,-0.70175 -105.61568,-0.78787 -0.25038,35.61291 -0.23044,71.22556 0.0949,106.83793 34.76292,0.14485 69.52556,0.33623 104.2877,0.61328 0.58201,-17.72147 1.16401,-35.44293 1.74602,-53.1644 z m -321.3437,-160.46076 1.167,-86.13423 c -64.01311,0.62821 -128.02744,0.78667 -192.042938,0.49752 -0.389178,56.61901 -0.482992,113.23845 -0.254376,169.85836 58.992534,2.01981 117.989744,3.05853 177.000954,1.16583 14.31951,3.46819 12.62779,-4.30869 10.24559,-17.1246 -0.198,-22.75429 4.08177,-45.50859 3.88377,-68.26288 z m 363.40474,0.13209 c -0.0438,-28.76373 -0.0877,-57.52745 -0.13147,-86.29118 -49.29897,1.08679 -98.60346,1.25717 -147.9115,0.83916 -2.1753,55.97249 -2.57298,111.95324 -0.83847,167.9439 4.31513,6.28684 19.9767,1.07139 28.74079,2.84816 40.09746,0.2588 80.19538,0.15223 120.29325,0.0821 -0.0509,-28.47404 -0.10173,-56.94808 -0.1526,-85.42212 z M 256.86131,179.79564 c -0.0348,-24.6658 -0.0695,-49.33161 -0.10425,-73.99741 -49.88031,-0.61965 -99.7583,-0.43022 -149.6343,0.44921 -0.0555,49.49999 0.10526,98.99931 0.46216,148.49803 49.28087,-0.20581 98.56187,-0.28909 147.8431,-0.18144 0.47776,-24.9228 0.95553,-49.84559 1.43329,-74.76839 z m 319.77759,0.0232 c -0.27742,-24.91449 -0.55485,-49.82899 -0.83227,-74.74348 -35.39848,-0.21069 -70.79707,-0.40259 -106.19573,-0.57964 0.11747,49.88848 -0.0559,99.77585 -0.561,149.66197 36.07404,0.11078 72.14792,0.2566 108.22158,0.45703 z"
       id="path2"
       sodipodi:nodetypes="cccccccccccccccccccccscccccccccccccsccccsscccccccscccccsscccccccccccc" />
    <path
       style="fill:#ffffc0;fill-opacity:1;stroke-width:0.51836"
       d="m 468.59857,361.84229 -0.40899,-87.41987 78.62994,0.31124 h 75.6928 v 87.10863 87.10861 h -75.6928 l -78.31927,0.43665 z"
       id="path45"
       sodipodi:nodetypes="ccccccccc" />
    <path
       style="fill:none;fill-opacity:1;stroke-width:0.5"
       d="m 279.12671,329.66737 v -51.67749 l 3.45819,-0.28992 c 5.64229,-0.47303 7.32596,-1.21277 11.49904,-5.05224 2.08602,-1.91926 32.93027,-32.42361 68.54277,-67.78744 35.6125,-35.36383 67.23671,-66.673 70.27602,-69.57593 5.84394,-5.5817 8.25315,-6.9395 12.31305,-6.9395 h 1.91093 v 51.75 51.75 l -3.375,0.0219 c -3.85358,0.0251 -6.29114,0.76488 -9.23558,2.80308 -1.13221,0.78374 -33.18798,32.41247 -71.23503,70.28607 -38.04705,37.87359 -70.73985,70.20666 -72.65066,71.85124 -3.49596,3.00888 -6.8969,4.53767 -10.09448,4.53767 h -1.40925 z"
       id="path47" />
    <path
       style="fill:none;fill-opacity:1;stroke-width:0.5"
       d="m 279.12671,233.45447 v -40.98422 l 4.19833,-0.22036 c 3.67512,-0.19289 4.55894,-0.43438 7.09189,-1.9377 3.37915,-2.00554 26.67511,-24.73728 71.63919,-69.9041 30.60274,-30.740723 40.73751,-41.276827 43.30681,-45.021721 1.54636,-2.253909 1.6561,-2.758112 1.72316,-7.916521 l 0.0406,-3.125 h 20 20 v 30.5 30.500002 h -3.90183 c -6.50097,0 -6.91083,0.30327 -26.32681,19.48031 -9.33825,9.22333 -16.98825,16.92719 -17,17.11969 -0.0334,0.54773 -1.27136,1.65633 -1.27136,1.13853 0,-0.2538 -17.60625,17.1006 -39.125,38.56535 -43.74096,43.63119 -63.55527,63.17279 -68.37071,67.42971 -3.92093,3.46615 -5.92416,4.53489 -9.37929,5.00391 l -2.625,0.35634 z"
       id="path48" />
    <rect
       style="fill:#b4b44f;fill-opacity:1;stroke-width:1.18468"
       id="rect1"
       width="155.05225"
       height="153.06255"
       x="101.8284"
       y="102.83778"
       ry="0" />
    <rect
       style="fill:#7c7cec;fill-opacity:1;stroke-width:1.22878"
       id="rect2"
       width="112.15317"
       height="152.92593"
       x="468.55774"
       y="101.5209" />
    <rect
       style="fill:#b05555;fill-opacity:1;stroke-width:2.071"
       id="rect4"
       width="109.00128"
       height="110.91338"
       x="470.4801"
       y="467.14706"
       ry="0"
       rx="0" />
    <rect
       style="fill:#61b761;fill-opacity:1;stroke-width:2.74203"
       id="rect7"
       width="152.67393"
       height="110.53632"
       x="103.36127"
       y="467.08905" />
    <rect
       style="fill:#ffffff;fill-opacity:1"
       id="rect15"
       width="0.011566443"
       height="3.3399508"
       x="115.58783"
       y="506.25391" />
    <path
       style="fill:#ffffc0;fill-opacity:1;stroke-width:0.595373"
       d="m 61.72729,361.9667 v -89.08 h 97.64515 97.64512 v 89.08 89.07997 H 159.37244 61.72729 Z"
       id="path45-1" />
    <rect
       style="fill:url(#linearGradient4);fill-opacity:1"
       id="rect3"
       width="173"
       height="556"
       x="276"
       y="61.5" />
  </g>
</svg>
