<?xml version="1.0" encoding="UTF-8" standalone="no"?>
<!DOCTYPE svg PUBLIC "-//W3C//DTD SVG 1.0//EN"
"http://www.w3.org/TR/2001/REC-SVG-20010904/DTD/svg10.dtd">
<!-- Created with Inkscape (http://www.inkscape.org/) -->
<svg
   xmlns="http://www.w3.org/2000/svg"
   xmlns:xlink="http://www.w3.org/1999/xlink"
   version="1.0"
   x="0.0000000"
   y="0.0000000"
   width="180.00000"
   height="270.00000"
   id="svg7364">
  <defs
     id="defs7366">
    <linearGradient
       id="linearGradient8439">
      <stop
         style="stop-color:#ffffff;stop-opacity:1.0000000;"
         offset="0.0000000"
         id="stop8440" />
      <stop
         style="stop-color:#ababab;stop-opacity:1.0000000;"
         offset="1.0000000"
         id="stop8441" />
    </linearGradient>
    <linearGradient
       id="linearGradient7486">
      <stop
         style="stop-color:#e1e1e1;stop-opacity:1.0000000;"
         offset="0.0000000"
         id="stop7487" />
      <stop
         style="stop-color:#a6a6a6;stop-opacity:1.0000000;"
         offset="1.0000000"
         id="stop7488" />
    </linearGradient>
    <linearGradient
       id="linearGradient7439">
      <stop
         style="stop-color:#000000;stop-opacity:1.0000000;"
         offset="0.0000000"
         id="stop7440" />
      <stop
         style="stop-color:#696969;stop-opacity:1.0000000;"
         offset="1.0000000"
         id="stop7443" />
    </linearGradient>
    <linearGradient
       id="linearGradient7428">
      <stop
         style="stop-color:#000000;stop-opacity:1.0000000;"
         offset="0.0000000"
         id="stop7429" />
      <stop
         style="stop-color:#232323;stop-opacity:1.0000000;"
         offset="0.50000000"
         id="stop7434" />
      <stop
         style="stop-color:#a6a6a6;stop-opacity:1.0000000;"
         offset="0.65222222"
         id="stop7435" />
      <stop
         style="stop-color:#696969;stop-opacity:1.0000000;"
         offset="1.0000000"
         id="stop7430" />
    </linearGradient>
    <radialGradient
       cx="0.50000000"
       cy="0.50000000"
       r="0.50000000"
       fx="0.50000000"
       fy="0.50000000"
       id="radialGradient7433"
       inkscape:collect="always"
       xlink:href="#linearGradient7428" />
    <linearGradient
       id="linearGradient7456"
       inkscape:collect="always"
       xlink:href="#linearGradient7439" />
    <linearGradient
       id="linearGradient7466"
       inkscape:collect="always"
       xlink:href="#linearGradient7439" />
    <linearGradient
       id="linearGradient7483"
       inkscape:collect="always"
       xlink:href="#linearGradient7439" />
    <linearGradient
       x1="0.36263737"
       y1="0.10937500"
       x2="0.40659341"
       y2="0.68750000"
       id="linearGradient7489"
       inkscape:collect="always"
       xlink:href="#linearGradient7486" />
    <pattern
       patternUnits="userSpaceOnUse"
       width="74.505979"
       height="94.757693"
       patternTransform="translate(368.6280,13.05793)"
       id="pattern7584">
      <path
         id="path7490"
         style="fill:none;fill-opacity:0.75000000;fill-rule:evenodd;stroke:#000000;stroke-width:1.1097035pt;stroke-linecap:butt;stroke-linejoin:miter;stroke-opacity:1.0000000;"
         d="M 38.451945,0.69356471 C 50.280435,22.487185 59.912235,46.125655 67.766335,70.365069 C 69.755055,78.273599 71.329095,86.349649 73.812415,94.064129 M 35.934725,0.69356471 C 47.763215,22.487185 57.395015,46.125655 65.249115,70.365069 C 67.237825,78.273599 68.811865,86.349649 71.295195,94.064129 M 33.417495,0.69356471 C 45.245985,22.487185 54.877785,46.125655 62.731885,70.365069 C 64.720605,78.273599 66.294645,86.349649 68.777965,94.064129 M 30.900275,0.69356471 C 42.728765,22.487185 52.360565,46.125655 60.214655,70.365069 C 62.203375,78.273599 63.777415,86.349649 66.260745,94.064129 M 28.383045,0.69356471 C 40.211535,22.487185 49.843335,46.125655 57.697435,70.365069 C 59.686155,78.273599 61.260195,86.349649 63.743515,94.064129 M 25.865825,0.69356471 C 37.694315,22.487185 47.326115,46.125655 55.180205,70.365069 C 57.168925,78.273599 58.742965,86.349649 61.226295,94.064129 M 23.348595,0.69356471 C 35.177085,22.487185 44.808885,46.125655 52.662985,70.365069 C 54.651705,78.273599 56.225745,86.349649 58.709065,94.064129 M 20.831375,0.69356471 C 32.659865,22.487185 42.291665,46.125655 50.145755,70.365069 C 52.134475,78.273599 53.708515,86.349649 56.191845,94.064129 M 18.314145,0.69356471 C 30.142635,22.487185 39.774435,46.125655 47.628535,70.365069 C 49.617255,78.273599 51.191295,86.349649 53.674615,94.064129 M 15.796915,0.69356471 C 27.625415,22.487185 37.257215,46.125655 45.111305,70.365069 C 47.100025,78.273599 48.674065,86.349649 51.157395,94.064129 M 13.279695,0.69356471 C 25.108185,22.487185 34.739985,46.125655 42.594085,70.365069 C 44.582805,78.273599 46.156845,86.349649 48.640165,94.064129 M 10.762465,0.69356471 C 22.590965,22.487185 32.222765,46.125655 40.076855,70.365069 C 42.065575,78.273599 43.639615,86.349649 46.122945,94.064129 M 8.2452447,0.69356471 C 20.073735,22.487185 29.705535,46.125655 37.559635,70.365069 C 39.548355,78.273599 41.122395,86.349649 43.605715,94.064129 M 5.7280147,0.69356471 C 17.556515,22.487185 27.188315,46.125655 35.042405,70.365069 C 37.031125,78.273599 38.605165,86.349649 41.088485,94.064129 M 3.2107947,0.69356471 C 15.039285,22.487185 24.671085,46.125655 32.525185,70.365069 C 34.513895,78.273599 36.087945,86.349649 38.571265,94.064129 M 0.69356471,0.69356471 C 12.522055,22.487185 22.153865,46.125655 30.007955,70.365069 C 31.996675,78.273599 33.570715,86.349649 36.054035,94.064129" />
    </pattern>
    <linearGradient
       x1="-0.10588235"
       y1="0.17968750"
       x2="0.47058824"
       y2="0.91406250"
       id="linearGradient8427"
       inkscape:collect="always"
       xlink:href="#linearGradient7486" />
    <linearGradient
       x1="0.42465752"
       y1="0.84375000"
       x2="0.39726028"
       y2="0.039062500"
       id="linearGradient8438"
       inkscape:collect="always"
       xlink:href="#linearGradient7486" />
  </defs>
  
  <path
     d="M 51.201303,5.6545334 C 45.882177,23.098546 63.310665,39.931227 61.705460,58.175323 C 60.341035,66.928466 65.916126,76.624685 69.433314,85.594894 C 68.842709,89.899678 68.262546,94.189345 66.055956,97.959457 C 63.674421,102.93855 55.823673,102.94516 52.975847,105.65869 C 41.817531,99.459407 33.922847,83.670208 21.263024,79.441233 C -10.193028,68.400307 26.157204,96.958165 19.001911,112.72824 C 25.263603,120.66056 -3.3459799,152.57659 16.540447,144.98488 C 33.524314,144.04784 43.964927,131.40394 51.974089,126.38079 C 51.946832,126.51284 51.945229,126.64964 51.916845,126.78149 C 56.495105,125.49903 61.190160,127.01880 64.710737,129.98712 C 64.812319,130.16260 64.923975,130.26017 65.025575,130.44507 C 59.354810,144.85606 59.687911,165.57522 61.104405,180.87647 C 63.393004,202.35581 59.207754,227.63822 38.979845,239.46505 C 32.078659,241.94831 24.716512,252.82748 36.375272,243.81555 C 51.371705,236.28945 67.486738,228.07146 76.674600,213.96313 C 76.752671,214.29533 76.792274,214.63080 76.903573,214.96489 C 83.520609,209.69722 87.032467,201.68051 91.357518,194.61488 C 96.268669,185.88350 100.45813,176.12192 108.41604,169.68539 C 116.80581,164.00385 127.53421,166.43556 136.66564,163.30276 C 148.84577,157.01527 153.60431,143.24410 161.99583,133.24999 C 164.56133,129.35546 168.36117,123.20084 163.51278,119.39710 C 150.80080,111.56332 146.42991,102.16809 137.32394,92.378229 C 130.64275,86.991248 117.56903,78.528041 112.27997,71.742001 C 105.74637,65.754665 98.033184,60.658586 93.590009,52.765821 C 93.443841,52.723250 93.355430,52.766636 93.217927,52.737199 C 87.081586,34.516243 63.764463,14.099285 51.201303,5.6545334 z "
     style="fill:url(#linearGradient8427);fill-opacity:0.49753693;fill-rule:evenodd;stroke:#000000;stroke-width:0.91589384pt;stroke-linecap:butt;stroke-linejoin:miter;stroke-opacity:1.0000000;"
     id="path7409" />
  <path
     d="M 50.915086,6.8566440 C 50.776502,7.4190761 50.637561,7.9839994 50.543004,8.5453233 C 51.686223,11.039824 53.542932,14.679119 56.210097,19.593292 C 67.043720,39.553934 75.863713,61.218921 83.057231,83.419647 C 84.878660,90.663039 86.306749,98.049233 88.581216,105.11488 C 90.855664,112.18053 93.174028,112.18052 90.899572,105.11488 C 88.625105,98.049242 87.168422,90.663029 85.346966,83.419647 C 78.153435,61.218930 69.333473,39.553934 58.499832,19.593292 C 54.696180,12.585193 52.416676,8.9437096 50.915086,6.8566440 z M 55.208339,8.6884317 C 56.355496,11.181494 58.158167,14.745017 60.789566,19.593292 C 71.623189,39.553934 80.443179,61.218921 87.636700,83.419647 C 89.458129,90.663039 90.886218,98.049233 93.160684,105.11488 C 95.435132,112.18053 97.753497,112.18052 95.479040,105.11488 C 93.204573,98.049242 91.747890,90.663029 89.926435,83.419647 C 82.732904,61.218930 73.912942,39.553934 63.079301,19.593292 C 60.977380,15.720563 59.496700,13.262268 58.070507,10.892301 C 57.073492,10.117702 56.142917,9.3755991 55.208339,8.6884317 z M 50.314031,13.296522 C 50.354010,14.827695 50.472114,16.348344 50.743356,17.875991 C 51.120228,18.582365 51.215417,18.828283 51.630628,19.593292 C 62.464251,39.553934 71.284244,61.218921 78.477762,83.419647 C 80.299191,90.663039 81.727280,98.049233 84.001747,105.11488 C 86.276195,112.18053 88.594560,112.18052 86.320103,105.11488 C 84.045636,98.049242 82.588953,90.663029 80.767497,83.419647 C 73.573969,61.218930 64.754004,39.553934 53.920363,19.593292 C 52.401161,16.794211 51.485120,15.310573 50.314031,13.296522 z M 62.764463,14.498633 C 63.662048,16.249346 64.139952,17.328754 65.369036,19.593292 C 76.202658,39.553934 85.022648,61.218921 92.216168,83.419647 C 94.037597,90.663039 95.465686,98.049233 97.740153,105.11488 C 100.01460,112.18053 102.33297,112.18052 100.05851,105.11488 C 97.784042,98.049242 96.327359,90.663029 94.505903,83.419647 C 87.312373,61.218930 78.492407,39.553934 67.658770,19.593292 C 67.272281,18.881194 67.107448,18.651762 66.742876,17.990478 C 65.408291,16.790593 64.069071,15.599565 62.764463,14.498633 z M 71.322345,22.312352 C 81.504434,41.527374 89.921764,62.205421 96.795637,83.419647 C 98.617066,90.663039 100.04516,98.049233 102.31962,105.11488 C 104.59407,112.18053 106.91244,112.18052 104.63798,105.11488 C 102.36351,98.049242 100.90683,90.663029 99.085372,83.419647 C 92.776924,63.950474 85.116518,44.975018 76.044923,27.120794 C 74.489405,25.464217 72.928457,23.873090 71.322345,22.312352 z M 53.948985,28.694987 C 56.450007,35.208952 59.383505,41.769435 60.846810,48.472569 C 65.684442,59.857289 70.050883,71.545724 73.898297,83.419647 C 75.719725,90.663039 77.147815,98.049233 79.422278,105.11488 C 81.696726,112.18053 84.015091,112.18052 81.740634,105.11488 C 79.466167,98.049242 78.009484,90.663029 76.188031,83.419647 C 70.064924,64.522486 62.668092,46.091968 53.948985,28.694987 z M 81.454417,33.274456 C 89.181044,49.312993 95.790581,66.184622 101.37511,83.419647 C 103.19654,90.663039 104.62462,98.049233 106.89909,105.11488 C 109.17354,112.18053 111.49190,112.18052 109.21745,105.11488 C 106.94298,98.049242 105.48630,90.663029 103.66484,83.419647 C 99.067668,69.231810 93.721211,55.330489 87.693943,41.889582 C 85.840761,38.978066 83.776821,36.102388 81.454417,33.274456 z M 61.648217,55.971449 C 61.643005,56.707782 61.770644,57.434471 61.705460,58.175323 C 61.530653,59.296771 61.471019,60.432406 61.505109,61.581304 C 64.264239,68.784268 66.932164,76.053900 69.318828,83.419647 C 71.140256,90.663039 72.568346,98.049233 74.842812,105.11488 C 77.117260,112.18053 79.435622,112.18052 77.161168,105.11488 C 74.886702,98.049242 73.430018,90.663029 71.608562,83.419647 C 68.600080,74.134856 65.254329,64.980378 61.648217,55.971449 z "
     style="fill:none;fill-opacity:0.75000000;fill-rule:evenodd;stroke:#000000;stroke-width:0.68692034;stroke-linecap:butt;stroke-linejoin:miter;stroke-miterlimit:4.0000000;stroke-opacity:0.21568628;"
     id="path7516" />
  <path
     d="M 136.22421,157.70943 C 133.68796,186.81291 119.88848,214.24469 111.36956,241.10320 C 108.80411,249.19156 101.82686,261.58981 96.908292,267.50689 C 97.455795,261.21282 101.23337,253.29006 102.97382,250.30129 C 106.38680,244.44031 108.15215,239.11773 110.50513,232.94354 C 115.38888,220.12862 116.14232,207.39909 120.10585,196.18133 C 124.20996,184.56567 125.99962,175.74808 125.78044,163.65662"
     style="fill:url(#linearGradient8438);fill-opacity:0.75000000;fill-rule:evenodd;stroke:#000000;stroke-width:0.87912855pt;stroke-linecap:butt;stroke-linejoin:miter;stroke-opacity:1.0000000;"
     id="path8443" />
  <path
     d="M 68.259825,128.61328 C 67.683444,128.61328 66.528163,130.58955 65.369036,134.53797 C 63.361057,141.37797 61.964979,148.47422 60.417485,155.51766 C 60.276977,158.38994 60.337692,161.23171 60.360241,164.07554 C 60.901782,162.30625 61.495547,160.55660 62.020299,158.78053 C 63.886625,150.68503 65.369145,142.43482 67.687392,134.53797 C 68.846501,130.58954 68.836206,128.61328 68.259825,128.61328 z M 72.839294,128.61328 C 72.262913,128.61328 71.107632,130.58955 69.948505,134.53797 C 67.630277,142.43481 66.147747,150.68502 64.281412,158.78053 C 63.081261,162.84253 61.763620,166.86406 60.474728,170.88750 C 60.571520,173.01496 60.723173,175.03160 60.875432,177.04116 C 62.888777,171.01033 64.790099,164.90548 66.599768,158.78053 C 68.466094,150.68503 69.948614,142.43482 72.266861,134.53797 C 73.425970,130.58954 73.415676,128.61328 72.839294,128.61328 z M 77.418763,128.61328 C 76.842382,128.61328 75.687101,130.58955 74.527974,134.53797 C 72.209746,142.43481 70.727216,150.68502 68.860881,158.78053 C 66.504377,166.75631 63.923673,174.64429 61.218892,182.45066 C 61.383450,184.25774 61.496746,186.07316 61.562352,187.91740 C 65.007917,178.34178 68.269232,168.62963 71.179237,158.78053 C 73.045563,150.68503 74.528084,142.43482 76.846330,134.53797 C 78.005436,130.58954 77.995141,128.61328 77.418763,128.61328 z M 81.998229,128.61328 C 81.421848,128.61328 80.266567,130.58955 79.107439,134.53797 C 76.789215,142.43481 75.306685,150.68502 73.440350,158.78053 C 69.867146,170.87431 65.893916,182.81770 61.505109,194.47177 C 61.420443,196.88377 61.226759,199.28840 60.932675,201.68443 C 66.456934,187.75314 71.439461,173.39929 75.758706,158.78053 C 77.625032,150.68503 79.107549,142.43482 81.425795,134.53797 C 82.584905,130.58954 82.574610,128.61328 81.998229,128.61328 z M 86.577698,128.61328 C 86.001317,128.61328 84.846036,130.58955 83.686908,134.53797 C 81.368680,142.43481 79.886150,150.68502 78.019815,158.78053 C 72.563473,177.24795 66.197810,195.38562 58.786049,212.64654 C 57.364060,217.51016 55.259528,222.06715 52.546522,226.24183 C 51.938909,227.51678 51.392349,228.84270 50.771978,230.10576 C 48.971926,233.77064 48.069926,235.88805 46.965294,238.34881 C 47.860599,237.86598 48.710219,237.32920 49.598489,236.83186 C 50.745298,234.64305 51.621451,233.09638 53.090334,230.10576 C 64.047611,207.79694 73.007123,183.59295 80.338171,158.78053 C 82.204497,150.68503 83.687018,142.43482 86.005264,134.53797 C 87.164374,130.58954 87.154079,128.61328 86.577698,128.61328 z M 91.157166,128.61328 C 90.580786,128.61328 89.425505,130.58955 88.266377,134.53797 C 85.948149,142.43481 84.465619,150.68502 82.599284,158.78053 C 75.268263,183.59295 66.308733,207.79693 55.351447,230.10576 C 54.363839,232.11652 54.037561,232.97970 53.262064,234.62799 C 54.260315,234.03155 55.260599,233.44732 56.238719,232.82482 C 56.782412,231.74410 57.074252,231.31829 57.669803,230.10576 C 68.627080,207.79694 77.586592,183.59295 84.917640,158.78053 C 86.783966,150.68503 88.266487,142.43482 90.584733,134.53797 C 91.743842,130.58954 91.733547,128.61328 91.157166,128.61328 z M 95.736635,128.61328 C 95.160254,128.61328 94.004973,130.58955 92.845845,134.53797 C 90.527618,142.43481 89.045088,150.68502 87.178753,158.78053 C 79.847728,183.59295 70.888202,207.79693 59.930916,230.10576 C 59.811621,230.34864 59.789475,230.41198 59.673321,230.64957 C 60.852525,229.83228 62.034962,229.00000 63.165166,228.13086 C 73.692459,206.36345 82.378563,182.87370 89.497109,158.78053 C 91.363434,150.68503 92.845955,142.43482 95.164201,134.53797 C 96.323311,130.58954 96.313016,128.61328 95.736635,128.61328 z M 100.31610,128.61328 C 99.739723,128.61328 98.584442,130.58955 97.425314,134.53797 C 95.107086,142.43481 93.624556,150.68502 91.758221,158.78053 C 84.971055,181.75223 76.700144,204.13297 66.828741,225.03972 C 68.290471,223.75409 69.680835,222.41510 71.007507,221.00407 C 80.046697,201.25342 87.723188,180.28400 94.076578,158.78053 C 95.942904,150.68503 97.425424,142.43482 99.743670,134.53797 C 100.90278,130.58954 100.89249,128.61328 100.31610,128.61328 z M 46.879429,233.25415 C 45.789552,234.33013 44.565112,235.29473 43.330341,236.25942 C 42.523814,238.00646 41.464180,240.20231 40.926119,241.46857 C 41.693043,241.07765 42.448372,240.66429 43.215854,240.26646 C 44.232011,238.40990 45.500405,235.98458 46.879429,233.25415 z M 39.122954,239.37919 C 39.073697,239.40826 39.029294,239.43614 38.979845,239.46505 C 38.240453,239.73111 37.501986,240.12866 36.775976,240.55267 C 35.870486,242.64514 35.490464,243.70637 35.201783,244.64558 C 35.622929,244.33710 35.889491,244.19104 36.375272,243.81555 C 36.495529,243.75520 36.626960,243.70426 36.747354,243.64382 C 37.389295,242.58555 38.179436,241.12467 39.122954,239.37919 z "
     style="fill:none;fill-opacity:0.75000000;fill-rule:evenodd;stroke:#000000;stroke-width:0.72620195;stroke-linecap:butt;stroke-linejoin:miter;stroke-miterlimit:4.0000000;stroke-opacity:0.21568628;"
     id="path7639" />
  <path
     d="M 8.3546460,79.670206 C 8.5051731,80.782211 9.2209898,82.323139 10.043325,83.963459 C 36.069446,86.644271 28.547311,104.16482 56.210097,106.83218 L 56.524936,105.37247 C 55.567012,105.34947 54.752526,105.23503 53.891741,105.14350 C 53.612760,105.32631 53.198620,105.44642 52.975847,105.65869 C 52.579934,105.43873 52.219035,105.12906 51.830980,104.88590 C 33.554539,101.57680 38.066177,81.828913 8.3546460,79.670206 z M 12.934115,89.458821 C 13.970742,91.287559 14.905695,93.163535 15.910770,95.154532 C 34.677645,98.152216 25.623063,108.47865 56.353206,110.09505 L 56.353206,108.63534 C 27.665030,106.22228 34.964182,92.526357 12.934115,89.458821 z M 18.687073,101.45130 C 19.248030,103.12786 19.692724,104.78955 19.860562,106.40285 C 32.269824,107.87958 28.022669,111.54084 56.038367,113.01446 L 56.353206,111.72649 C 27.815448,110.22540 32.459258,103.97794 18.687073,101.45130 z M 19.431237,111.23992 C 19.291490,111.73763 19.217824,112.25237 19.001911,112.72824 C 19.493609,113.35113 19.701297,114.15869 19.803318,115.04660 L 55.923881,115.04660 L 56.038367,114.15933 C 27.888426,112.67864 32.402574,111.86680 19.431237,111.23992 z M 56.066989,116.16285 C 27.595825,117.66042 32.637629,118.57994 19.230885,119.25399 C 18.814538,120.88811 18.275937,122.57967 17.484962,124.43451 C 32.940817,123.09128 26.341802,118.87126 56.066989,117.30771 L 56.066989,116.16285 z M 56.410449,118.59569 C 25.908337,121.38334 34.946917,128.50751 14.851768,130.21609 C 13.905146,132.14145 13.001003,133.99142 12.161330,135.76870 C 36.487506,134.14432 24.886328,124.58975 56.410449,120.22713 L 56.410449,118.59569 z M 56.410449,121.68683 C 27.666597,128.09094 35.448562,139.45671 9.9574600,141.14957 C 9.5147628,142.57434 9.3429228,143.75770 9.5567565,144.61280 C 35.964814,143.07996 30.044010,131.89111 56.238719,123.49000 L 56.410449,121.68683 z "
     style="fill:none;fill-opacity:0.75000000;fill-rule:evenodd;stroke:#000000;stroke-width:0.68692034;stroke-linecap:butt;stroke-linejoin:miter;stroke-miterlimit:4.0000000;stroke-opacity:0.21568628;"
     id="path7673" />
  <path
     d="M 133.54179,160.69260 C 126.17274,189.77549 111.11954,216.55813 96.294451,241.77975 C 91.867451,249.31131 80.783506,260.26605 74.689372,265.44350 C 76.282002,259.15373 83.033757,252.66361 85.335380,249.92416 C 89.848840,244.55210 93.101883,240.20582 96.559676,234.33915 C 103.73655,222.16252 104.51816,207.71603 110.47536,197.00496 C 116.64386,185.91398 119.94250,177.27320 121.67539,164.97769"
     style="fill:url(#linearGradient8438);fill-opacity:0.75000000;fill-rule:evenodd;stroke:#000000;stroke-width:0.91589384pt;stroke-linecap:butt;stroke-linejoin:miter;stroke-opacity:1.0000000;"
     id="path8428" />
  <path
     d="M 163.52122,119.39388 C 150.80925,111.56010 146.43892,102.15914 137.33295,92.369281 C 130.65175,86.982300 117.57030,78.524506 112.28123,71.738465 C 105.74765,65.751130 98.028623,60.649098 93.585448,52.756332 C 87.022841,50.845091 89.372878,62.420299 84.861304,65.203490 C 79.768339,67.844598 73.052313,69.102834 71.663314,75.778464 C 68.688134,82.879526 69.992889,91.259020 66.069420,97.962525 C 63.457648,103.42299 54.184040,102.86110 52.245349,106.49779 C 53.348323,113.19934 53.359405,120.11798 51.926957,126.77164 C 60.126597,124.47475 68.820994,131.01605 70.161642,139.15760 C 73.626981,148.22944 78.643942,156.79724 80.368680,166.48012 C 82.514079,176.13887 82.113870,186.20411 79.965439,195.81109 C 79.190217,202.22528 74.710127,208.40204 76.894460,214.95874 C 83.511496,209.69107 87.035572,201.67290 91.360623,194.60726 C 96.271801,185.87589 100.44431,176.12589 108.40222,169.68937 C 116.79200,164.00781 127.54585,166.43658 136.67728,163.30377 C 148.85740,157.01628 153.60382,143.25361 161.99534,133.25951 C 164.56083,129.36497 168.36962,123.19763 163.52122,119.39388 z "
     style="fill:url(#linearGradient7489);fill-opacity:0.75000000;fill-rule:evenodd;stroke:#000000;stroke-width:0.91589384pt;stroke-linecap:butt;stroke-linejoin:miter;stroke-opacity:1.0000000;"
     id="path7384" />
  <path
     d="M 111.24959,70.854728 C 95.405164,72.219328 79.396788,77.724628 68.803637,89.372956 C 68.299227,92.369968 67.609770,95.304657 66.055956,97.959457 C 63.444175,103.41992 54.170374,102.85202 52.231684,106.48872 C 53.334685,113.19026 53.349294,120.12783 51.916845,126.78149 C 60.116476,124.48461 68.808208,131.00451 70.148856,139.14606 C 71.435458,142.51424 72.975634,145.82294 74.442109,149.13502 C 86.082776,156.88899 98.275584,163.97067 111.65029,167.91085 C 119.45398,164.52670 128.67564,166.04396 136.66564,163.30276 C 148.84577,157.01527 153.60431,143.24410 161.99583,133.24999 C 164.56133,129.35546 168.36117,123.20084 163.51278,119.39710 C 150.80080,111.56332 146.42991,102.16809 137.32394,92.378229 C 130.64275,86.991248 117.56903,78.528041 112.27997,71.742001 C 111.94875,71.438482 111.58631,71.154180 111.24959,70.854728 z "
     style="fill:none;fill-opacity:0.75000000;fill-rule:evenodd;stroke:#000000;stroke-width:0.91589384pt;stroke-linecap:butt;stroke-linejoin:miter;stroke-opacity:0.22167487;"
     id="path7392" />
  <path
     d="M 123.98623,82.360644 C 123.29675,85.722130 123.50815,89.292660 124.67316,92.464094 C 130.58401,103.04271 137.84428,113.30507 140.07162,125.46489 C 142.57936,138.29268 136.03709,150.58230 136.37942,163.36000 C 136.47169,163.32957 136.57370,163.33430 136.66564,163.30276 C 139.48520,161.84727 141.88874,159.95386 144.05003,157.83601 C 151.24994,145.89940 152.55351,130.46786 146.76909,117.70842 C 144.43558,109.87882 141.59273,102.19295 139.04124,94.410369 C 138.44579,93.729402 137.96131,93.063464 137.32394,92.378229 C 133.91336,89.628317 128.84252,86.081490 123.98623,82.360644 z "
     style="fill:url(#linearGradient7456);fill-opacity:0.75000000;fill-rule:evenodd;stroke:#000000;stroke-width:0.91589384pt;stroke-linecap:butt;stroke-linejoin:miter;stroke-opacity:1.0000000;"
     id="path7445" />
  <path
     d="M 638.74949 284.33588 A 8.6523838 8.6523838 0 1 0 621.44472,284.33588 A 8.6523838 8.6523838 0 1 0 638.74949 284.33588 z"
     transform="matrix(0.915894,0.000000,0.000000,0.915894,-431.7610,-139.6290)"
     style="fill:url(#radialGradient7433);fill-opacity:0.75000000;fill-rule:evenodd;stroke:#000000;stroke-width:1.0000000pt;stroke-linecap:butt;stroke-linejoin:miter;stroke-opacity:1.0000000;"
     id="path7427" />
  <path
     d="M 97.940505,58.719135 C 97.624402,59.729742 97.452150,60.728240 97.597044,61.581304 C 100.46655,78.479462 104.25291,95.207892 106.29804,112.35616 C 107.34659,131.08259 112.15304,149.84310 109.10296,168.59777 C 108.96107,168.96431 108.96262,169.12605 108.84537,169.45642 C 110.86484,168.16415 113.00111,167.28936 115.22800,166.70874 C 115.68274,165.50283 115.99448,164.30194 115.97216,163.21689 C 120.65908,144.68114 111.74081,126.48372 114.74143,107.80532 C 116.80237,94.669924 112.01168,82.285660 109.78988,69.595374 C 105.72940,66.094728 101.49414,62.703475 97.940505,58.719135 z "
     style="fill:url(#linearGradient7466);fill-opacity:0.75000000;fill-rule:evenodd;stroke:#000000;stroke-width:0.91589384pt;stroke-linecap:butt;stroke-linejoin:miter;stroke-opacity:1.0000000;"
     id="path7457" />
  <path
     d="M 82.599284,66.275259 C 77.952167,68.323528 72.858244,70.046718 71.665805,75.777658 C 71.195402,76.900415 70.958049,78.094512 70.664047,79.269503 C 71.200110,83.589151 71.386137,87.952240 70.807155,92.292364 C 69.249778,105.33762 71.918794,118.37296 75.586976,130.84577 C 76.730652,137.42729 76.201248,143.89723 74.957299,150.30851 C 77.249708,155.53357 79.357890,160.81567 80.366793,166.47976 C 82.512173,176.13850 82.114520,186.21001 79.966089,195.81699 C 79.414758,200.37884 77.043284,204.81128 76.474248,209.35504 C 77.069176,209.09436 77.628586,208.77535 78.134302,208.32466 C 87.065622,197.23512 90.552466,182.60281 90.069543,168.56915 C 84.831464,142.29843 84.099628,115.43236 82.026851,88.800523 C 83.133525,81.396620 83.504471,73.743329 82.599284,66.275259 z "
     style="fill:url(#linearGradient7483);fill-opacity:0.75000000;fill-rule:evenodd;stroke:#000000;stroke-width:0.91589384pt;stroke-linecap:butt;stroke-linejoin:miter;stroke-opacity:1.0000000;"
     id="path7469" />
  <rect
     width="74.505981"
     height="94.757690"
     x="368.62805"
     y="13.057926"
     style="fill:none;fill-rule:evenodd;stroke:none;"
     id="rect7586" />

  <metadata>
    <rdf:RDF 
     xmlns="http://web.resource.org/cc/"
     xmlns:dc="http://purl.org/dc/elements/1.1/"
     xmlns:rdf="http://www.w3.org/1999/02/22-rdf-syntax-ns#">
      <Work rdf:about="">
        <dc:title>Altum Angelfish</dc:title>
	<dc:description></dc:description>
        <dc:subject>
          <rdf:Bag>
            <rdf:li>Fish</rdf:li>
            <rdf:li>Animal</rdf:li>
          </rdf:Bag>
        </dc:subject>
        <dc:publisher>
           <Agent rdf:about="">
             <dc:title>Open Clip Art Library</dc:title>
           </Agent>
         </dc:publisher>
         <dc:creator>
           <Agent rdf:about="">
             <dc:title>Jonathon Love</dc:title>
           </Agent>
        </dc:creator>
         <dc:rights>
           <Agent rdf:about="">
             <dc:title></dc:title>
           </Agent>
        </dc:rights>
        <dc:date></dc:date>
        <dc:format>image/svg+xml</dc:format>
        <dc:type rdf:resource="http://purl.org/dc/dcmitype/StillImage" />
        <license rdf:resource="Public Domain">
	  <dc:date>36</dc:date>
	</license>
        <dc:language>en</dc:language>
      </Work>

      <License rdf:about="Public Domain">
         <permits rdf:resource="http://web.resource.org/cc/Reproduction" />
         <permits rdf:resource="http://web.resource.org/cc/Distribution" />
         <permits rdf:resource="http://web.resource.org/cc/DerivativeWorks" />
      </License>


    </rdf:RDF>
  </metadata>
</svg>
