<?xml version="1.0" encoding="UTF-8" standalone="no"?>
<!DOCTYPE svg PUBLIC "-//W3C//DTD SVG 1.0//EN"
"http://www.w3.org/TR/2001/REC-SVG-20010904/DTD/svg10.dtd">
<!-- Created with Inkscape (http://www.inkscape.org/) -->
<svg
   xmlns="http://www.w3.org/2000/svg"
   xmlns:xlink="http://www.w3.org/1999/xlink"
   version="1.0"
   x="0.0000000"
   y="0.0000000"
   width="193.75000"
   height="162.50000"
   id="svg1022">
  <defs
     id="defs1024">
    <linearGradient
       id="linearGradient6379">
      <stop
         style="stop-color:#9b7630;stop-opacity:1.0000000;"
         offset="0.0000000"
         id="stop6380" />
      <stop
         style="stop-color:#6c5221;stop-opacity:1.0000000;"
         offset="1.0000000"
         id="stop6382" />
    </linearGradient>
    <linearGradient
       id="linearGradient6375">
      <stop
         style="stop-color:#815604;stop-opacity:1.0000000;"
         offset="0.0000000"
         id="stop6376" />
      <stop
         style="stop-color:#a4861c;stop-opacity:1.0000000;"
         offset="0.33666667"
         id="stop6377" />
      <stop
         style="stop-color:#c9c9c9;stop-opacity:1.0000000;"
         offset="1.0000000"
         id="stop6378" />
    </linearGradient>
    <linearGradient
       id="linearGradient2993">
      <stop
         style="stop-color:#4f4f4f;stop-opacity:0.55045873;"
         offset="0.0000000"
         id="stop2994" />
      <stop
         style="stop-color:#9d9d9d;stop-opacity:0.22018349;"
         offset="1.0000000"
         id="stop2995" />
    </linearGradient>
    <linearGradient
       id="linearGradient2988">
      <stop
         style="stop-color:#4c4f00;stop-opacity:1.0000000;"
         offset="0.0000000"
         id="stop2989" />
      <stop
         style="stop-color:#d1d82f;stop-opacity:1.0000000;"
         offset="1.0000000"
         id="stop2991" />
    </linearGradient>
    <linearGradient
       id="linearGradient2983">
      <stop
         style="stop-color:#859d07;stop-opacity:1.0000000;"
         offset="0.0000000"
         id="stop2984" />
      <stop
         style="stop-color:#ffc5c5;stop-opacity:1.0000000;"
         offset="1.0000000"
         id="stop2987" />
    </linearGradient>
    <linearGradient
       id="linearGradient2848">
      <stop
         style="stop-color:#d18484;stop-opacity:1.0000000;"
         offset="0.0000000"
         id="stop2849" />
      <stop
         style="stop-color:#5b4646;stop-opacity:1.0000000;"
         offset="1.0000000"
         id="stop2850" />
    </linearGradient>
    <linearGradient
       id="linearGradient2676">
      <stop
         style="stop-color:#a0a600;stop-opacity:1.0000000;"
         offset="0.0000000"
         id="stop2677" />
      <stop
         style="stop-color:#d0d800;stop-opacity:1.0000000;"
         offset="0.33666667"
         id="stop2857" />
      <stop
         style="stop-color:#e6e6e6;stop-opacity:1.0000000;"
         offset="1.0000000"
         id="stop2678" />
    </linearGradient>
    <linearGradient
       x1="0.41558442"
       y1="-0.21093750"
       x2="0.51948053"
       y2="0.75781250"
       id="linearGradient2679"
       inkscape:collect="always"
       xlink:href="#linearGradient2676" />
    <linearGradient
       x1="0.62436551"
       y1="0.87500000"
       x2="0.36040610"
       y2="0.054687500"
       id="linearGradient2680"
       inkscape:collect="always"
       xlink:href="#linearGradient6375" />
    <linearGradient
       x1="0.44755244"
       y1="0.96875000"
       x2="0.20000000"
       y2="-0.046875000"
       id="linearGradient2768"
       inkscape:collect="always"
       xlink:href="#linearGradient6375" />
    <linearGradient
       x1="0.59872609"
       y1="0.72656250"
       x2="0.45859873"
       y2="0.22656250"
       id="linearGradient2769"
       inkscape:collect="always"
       xlink:href="#linearGradient6375" />
    <linearGradient
       x1="0.40677965"
       y1="-0.17968750"
       x2="0.61016947"
       y2="0.88281250"
       id="linearGradient2770"
       inkscape:collect="always"
       xlink:href="#linearGradient2676" />
    <radialGradient
       cx="0.50000000"
       cy="0.50000000"
       r="0.50000000"
       fx="0.50000000"
       fy="0.50000000"
       id="radialGradient2856"
       inkscape:collect="always"
       xlink:href="#linearGradient2848" />
    <linearGradient
       x1="0.53642386"
       y1="0.84375000"
       x2="0.27814570"
       y2="0.085937500"
       id="linearGradient2865"
       inkscape:collect="always"
       xlink:href="#linearGradient6375" />
    <linearGradient
       x1="0.37007874"
       y1="0.75781250"
       x2="0.35433072"
       y2="0.24218750"
       id="linearGradient3015"
       inkscape:collect="always"
       xlink:href="#linearGradient6379" />
    <linearGradient
       x1="0.41463414"
       y1="0.79687500"
       x2="0.37560976"
       y2="0.14843750"
       id="linearGradient3016"
       inkscape:collect="always"
       xlink:href="#linearGradient6379" />
    <linearGradient
       x1="1.3538462"
       y1="0.28125000"
       x2="-0.092307694"
       y2="0.52343750"
       id="linearGradient3017"
       inkscape:collect="always"
       xlink:href="#linearGradient6375" />
    <linearGradient
       x1="-0.14285715"
       y1="0.71875000"
       x2="-0.14285715"
       y2="0.20312500"
       id="linearGradient3018"
       inkscape:collect="always"
       xlink:href="#linearGradient6379" />
    <linearGradient
       x1="-0.22222222"
       y1="0.72656250"
       x2="-0.22222222"
       y2="0.17187500"
       id="linearGradient3019"
       inkscape:collect="always"
       xlink:href="#linearGradient6379" />
    <linearGradient
       x1="0.85148513"
       y1="0.42187500"
       x2="0.099009901"
       y2="0.71093750"
       id="linearGradient3020"
       inkscape:collect="always"
       xlink:href="#linearGradient6375" />
  </defs>
  
  <g
     transform="matrix(0.313242,0.000000,0.000000,0.313242,-19.62327,-60.02062)"
     id="g6383">
    <path
       d="M 382.92480,531.23895 C 392.99467,548.11404 396.66459,567.68998 401.12259,586.56331 C 404.90191,608.93198 403.13018,632.66690 393.52681,653.41362 C 388.95492,655.58305 383.28259,652.94253 381.64185,648.23193 C 377.84507,640.37132 377.79535,631.41225 375.15602,623.18089 C 370.37896,604.80118 365.06180,586.37402 363.88369,567.32434 C 361.89471,554.87087 359.84252,542.33123 360.10120,529.67728 C 360.06628,529.45773 359.92663,528.57938 359.89172,528.35980"
       style="fill:url(#linearGradient3019);fill-opacity:0.75000000;fill-rule:evenodd;stroke:#000000;stroke-width:1.0000000pt;stroke-linecap:butt;stroke-linejoin:miter;stroke-opacity:1.0000000;"
       id="path2946" />
    <path
       d="M 258.40225,404.55707 C 216.07011,377.83077 177.12998,342.58646 126.98214,331.34878 C 104.23651,319.78476 65.913638,324.99864 66.289604,356.80021 C 66.449536,389.94563 88.927629,417.56940 106.53734,443.87350 C 121.55138,468.06533 155.19630,489.28099 143.92229,521.86628 C 133.16620,551.29526 113.54583,580.79795 119.51441,613.61292 C 126.30045,644.17015 162.12119,659.44479 188.79358,643.23816 C 214.85928,637.79200 228.71624,614.02374 247.24374,597.54760 C 271.58864,576.58210 284.09369,546.45720 303.46248,521.46610 C 309.01780,513.00118 314.04272,504.10544 317.42450,494.53001"
       style="fill:url(#linearGradient3020);fill-opacity:1.0000000;fill-rule:evenodd;stroke:#000000;stroke-width:1.0000000pt;stroke-linecap:butt;stroke-linejoin:miter;stroke-opacity:1.0000000;"
       id="path2880" />
    <path
       d="M 346.93561,307.38632 C 348.07353,290.26032 338.78424,274.93700 336.11748,258.40834 C 330.21737,241.07330 321.45484,224.73338 310.78462,209.88824 C 305.91451,205.40092 299.34222,210.21744 296.78913,214.90736 C 290.73169,223.62648 286.33463,233.36064 281.62674,242.84120 C 275.62401,255.53229 271.11839,269.25053 271.27780,283.43441 C 270.96328,295.44584 271.25372,307.47413 270.88628,319.47886 C 271.56975,331.70054 273.78090,344.73396 282.05473,354.28191 C 286.99182,358.41058 293.62670,359.63445 298.71013,363.52943"
       style="fill:url(#linearGradient3017);fill-opacity:0.75000000;fill-rule:evenodd;stroke:#000000;stroke-width:1.0000000pt;stroke-linecap:butt;stroke-linejoin:miter;stroke-opacity:1.0000000;"
       id="path2869" />
    <path
       d="M 336.13885,527.64008 C 331.93871,566.48780 315.81452,603.05968 313.04606,642.13802 C 315.22970,652.06011 312.71722,663.10054 317.91391,672.24615 C 322.73376,674.96520 322.48515,664.41146 324.75840,661.60386 C 329.17124,647.75867 333.17608,633.77670 337.11456,619.79246 C 343.11856,595.70776 346.42263,571.05208 350.60802,546.62549 C 350.87417,541.25982 350.74102,535.88434 350.53454,530.51918"
       style="fill:url(#linearGradient3018);fill-opacity:0.75000000;fill-rule:evenodd;stroke:#000000;stroke-width:1.0000000pt;stroke-linecap:butt;stroke-linejoin:miter;stroke-opacity:1.0000000;"
       id="path2963" />
    <path
       d="M 524.00238,305.22696 C 494.79888,292.55595 462.29067,295.84456 431.27421,294.13078 C 411.76561,293.44485 394.24760,295.63491 374.87993,297.11616 C 360.81142,298.67248 344.85143,302.20891 331.77429,308.40429 C 317.87421,314.76198 303.25495,321.24016 292.45201,332.35354 C 283.24579,342.06159 279.73249,356.29506 283.16897,369.21188 C 286.26335,382.00806 283.97541,395.17797 286.28114,408.00596 C 287.13822,412.64966 290.67588,433.78320 286.60133,421.12987 C 278.83863,411.89912 267.10150,405.09300 255.61533,401.79040 C 241.36427,399.77868 234.75942,415.37463 232.78919,426.88418 C 228.49040,450.64110 240.72721,472.58166 247.09850,494.70903 C 252.22008,509.07167 259.77176,525.68227 275.42331,530.71780 C 289.73986,536.32271 296.38966,521.43850 306.64872,516.55954 C 319.48231,516.39348 325.40048,530.99159 337.11867,534.18605 C 356.13242,542.33264 377.37708,537.08242 396.93687,542.13314 C 398.78777,542.69724 400.60426,543.37831 402.35895,544.19507"
       style="fill:url(#linearGradient2865);fill-opacity:1.0000000;fill-rule:evenodd;stroke:#000000;stroke-width:1.0000000pt;stroke-linecap:butt;stroke-linejoin:miter;stroke-opacity:1.0000000;"
       id="path2858" />
    <path
       d="M 599.59550,349.09777 C 595.73235,361.00111 603.59681,391.84685 612.24886,390.88709 C 621.87744,382.48274 615.08317,368.83467 609.90903,360.61997 C 607.43133,358.31817 602.25511,351.18282 599.59550,349.09777 z "
       style="fill:url(#linearGradient2770);fill-opacity:0.75000000;fill-rule:evenodd;stroke:#000000;stroke-width:1.0000000pt;stroke-linecap:butt;stroke-linejoin:miter;stroke-opacity:1.0000000;"
       id="path1097" />
    <path
       d="M 599.30485,360.68045 C 603.52211,365.57072 610.60802,375.87846 606.93037,379.26753 C 602.90628,381.60731 600.11435,375.43771 598.91883,371.77854 C 597.94921,368.81080 597.20943,366.34075 598.54138,363.47974"
       style="fill:#000000;fill-opacity:1.0000000;fill-rule:evenodd;stroke:#000000;stroke-width:1.0000000pt;stroke-linecap:butt;stroke-linejoin:miter;stroke-opacity:1.0000000;"
       id="path1127" />
    <path
       d="M 545.90625,325.03125 C 528.01432,325.81945 516.89816,327.46778 499.03125,329.46875 C 498.99594,329.47270 498.97286,329.46479 498.93750,329.46875 C 475.67715,333.65041 450.81971,332.64540 430.56250,344.81250 C 430.55108,344.82177 430.54267,344.83447 430.53125,344.84375 C 410.54966,361.07206 395.56368,383.54808 387.46875,408.00000 C 387.46353,408.03033 387.47396,408.06342 387.46875,408.09375 C 383.24880,432.66973 384.43745,458.92626 394.78125,481.78125 C 408.84697,509.49837 437.51681,526.24708 466.09375,536.68750 C 466.12531,536.69644 466.15595,536.70978 466.18750,536.71875 C 484.09230,541.80645 501.42261,550.46054 519.81250,549.15625 C 548.11889,543.77429 575.31123,533.35172 603.46875,526.18750 C 603.50778,526.17323 603.55468,526.17051 603.59375,526.15625 C 611.36287,523.32099 619.95784,520.78293 627.43750,516.96875 C 634.93388,513.14605 644.80831,510.15261 648.31275,502.25461 C 650.06059,493.11831 650.70447,482.51922 653.93750,473.96875 C 657.19690,465.34853 659.47463,456.80519 657.50000,447.68750 C 655.24605,438.59211 649.17775,432.38165 642.09375,426.56250 C 635.00975,420.74335 626.94093,415.44893 621.09375,408.15625 C 621.05903,408.10633 621.02771,408.05413 621.00000,408.00000 C 615.00051,397.95108 607.61145,388.69472 600.93750,378.84375 C 600.90816,378.80045 600.87306,378.76208 600.84375,378.71875 C 593.00613,369.07289 600.02029,358.77548 597.56735,348.59836 C 593.15862,342.12813 581.87055,338.20763 575.68750,336.18750 C 569.63839,334.21113 563.15917,331.97192 558.21875,325.15625 L 545.96875,325.03125 L 545.90625,325.03125 z "
       style="fill:url(#linearGradient2769);fill-opacity:1.0000000;fill-rule:evenodd;stroke:#000000;stroke-width:1.0000000pt;stroke-linecap:butt;stroke-linejoin:miter;stroke-opacity:1.0000000;"
       id="path2766" />
    <path
       d="M 412.43591,544.19507 C 406.49647,568.35926 387.73022,587.02269 382.16988,611.32750 C 369.26803,636.74371 346.66313,655.51791 333.25069,680.60919 C 333.09977,695.76932 352.05730,700.53762 363.85911,695.71197 C 379.22443,690.40650 394.88711,686.30522 410.72732,682.67345 C 434.26284,676.38788 460.81542,668.93318 475.28958,647.72154 C 485.88529,631.90586 486.16162,609.92585 474.58226,594.52572 C 469.20788,585.03477 463.43509,574.15342 466.41967,562.90944"
       style="fill:url(#linearGradient3015);fill-opacity:1.0000000;fill-rule:evenodd;stroke:#000000;stroke-width:1.0000000pt;stroke-linecap:butt;stroke-linejoin:miter;stroke-opacity:1.0000000;"
       id="path2897" />
    <path
       d="M 588.78284,548.51379 C 611.10597,567.07564 633.60546,585.52663 653.94337,606.27427 C 661.56357,615.86229 681.98423,621.57766 678.21708,636.04748 C 671.25740,647.24942 656.27495,644.10620 645.20965,646.81025 C 624.25370,649.82489 602.44442,646.87629 583.83399,636.46710 C 553.69132,621.62815 526.15768,596.21648 518.96386,562.18966"
       style="fill:url(#linearGradient3016);fill-opacity:0.75000000;fill-rule:evenodd;stroke:#000000;stroke-width:1.0000000pt;stroke-linecap:butt;stroke-linejoin:miter;stroke-opacity:1.0000000;"
       id="path2928" />
    <path
       d="M 500.40625,300.84375 C 497.97792,300.80037 495.48566,300.83182 492.93750,300.96875 C 462.63792,299.18668 433.17437,309.80037 406.65625,323.53125 C 368.95593,375.57628 308.93501,446.52086 366.59375,507.62500 C 406.49592,567.48586 495.94704,610.02617 545.40115,556.29383 C 555.29468,585.98418 626.86316,536.51794 645.59375,505.37500 C 625.33816,511.98754 603.15179,514.01514 582.71875,519.25000 C 562.24301,519.83581 540.17447,521.78832 520.34375,516.03125 C 520.33339,516.03167 520.32286,516.03083 520.31250,516.03125 C 498.52362,516.90894 476.80262,508.83380 455.59375,505.50000 C 454.23686,504.19754 453.26722,502.88428 452.43750,501.56250 C 444.01530,500.98020 435.97912,498.75003 429.09375,491.50000 C 407.07305,471.79240 427.21785,444.87641 433.84375,423.40625 C 433.67917,419.83749 433.77604,416.12493 433.81250,412.43750 C 435.76858,412.69390 437.89602,412.05262 440.21875,410.09375 C 446.98572,399.23750 454.75463,387.59399 454.65625,374.25000 C 454.64111,368.89154 452.29377,363.65145 448.50000,359.93750 C 448.64904,359.74720 448.75441,359.53236 448.90625,359.34375 C 465.24270,375.14473 479.64272,392.68153 496.15625,406.90625 C 524.73076,422.71110 576.40514,436.56057 590.21875,395.71875 C 591.62195,372.77945 582.83594,351.19220 568.37500,334.15625 C 550.96097,315.15800 530.09491,301.37411 500.40625,300.84375 z M 650.90625,453.71875 C 651.34445,454.97665 651.71675,456.27673 652.00000,457.59375 C 651.71375,456.26320 651.35068,454.98887 650.90625,453.71875 z M 652.84375,465.75000 C 652.82918,476.84272 648.51800,488.53008 642.03125,496.65625 C 648.51801,488.53008 652.83009,476.84323 652.84375,465.75000 z M 462.34375,473.40625 C 461.58747,474.13106 460.85338,474.84241 460.12500,475.59375 C 460.85129,474.84792 461.59018,474.12593 462.34375,473.40625 z M 457.50000,478.53125 C 456.90553,479.22464 456.32534,479.91584 455.78125,480.62500 C 456.32429,479.92171 456.90747,479.21901 457.50000,478.53125 z M 453.62500,483.81250 C 453.14563,484.59041 452.70193,485.36629 452.31250,486.15625 C 452.70424,485.36884 453.14382,484.58790 453.62500,483.81250 z M 535.65625,513.90625 C 532.94785,514.64400 530.23934,515.05662 527.53125,515.43750 C 530.23488,515.10491 532.95276,514.64266 535.65625,513.90625 z "
       style="fill:url(#linearGradient2768);fill-opacity:1.0000000;fill-rule:evenodd;stroke:#000000;stroke-width:1.0000000pt;stroke-linecap:butt;stroke-linejoin:miter;stroke-opacity:1.0000000;"
       id="path1064" />
    <path
       d="M 439.74469,355.08185 C 427.41910,360.91996 420.19846,374.41751 421.31655,387.88357 C 421.13836,397.06292 428.50750,419.98413 440.22543,410.10185 C 446.99240,399.24559 454.76116,387.60511 454.66278,374.26112 C 454.63802,365.49867 448.40557,357.04309 439.74469,355.08185 z "
       style="font-size:12.000000;font-style:normal;font-variant:normal;font-weight:100;font-stretch:ultra-condensed;color:#000000;fill:url(#linearGradient2679);fill-opacity:0.75000000;fill-rule:evenodd;stroke:#000000;stroke-width:1.0000000pt;stroke-linecap:butt;stroke-linejoin:miter;stroke-miterlimit:4.0000000;stroke-dashoffset:0.0000000;stroke-opacity:1.0000000;marker:none;marker-start:none;marker-mid:none;marker-end:none;font-family:Bitstream Vera Sans;letter-spacing:0.0000000;text-anchor:start;writing-mode:lr;"
       id="path1087" />
    <path
       d="M 442.79845,391.72722 C 445.49656,385.10451 444.20018,376.18634 438.22595,371.81898 C 430.19876,368.65977 427.47747,379.72503 428.88868,385.59129 C 428.60102,391.05859 436.01614,401.98739 441.20751,396.01938 C 441.87157,394.63806 442.12526,393.10428 442.79845,391.72722 z "
       style="fill:#000000;fill-opacity:1.0000000;fill-rule:evenodd;stroke:#000000;stroke-width:1.0000000pt;stroke-linecap:butt;stroke-linejoin:miter;stroke-opacity:1.0000000;"
       id="path1126" />
    <path
       d="M 500.58745,300.63840 C 498.15912,300.59502 495.66686,300.62647 493.11870,300.76340 C 463.55207,299.02442 434.82018,309.14241 408.80620,322.38840 C 407.92610,322.96596 407.08311,323.59933 406.21245,324.20090 C 405.43100,325.27717 404.54224,326.45273 403.74370,327.54465 C 443.85662,344.68804 466.43110,381.31989 496.14995,406.91965 C 524.72447,422.72450 576.39884,436.57397 590.21245,395.73215 C 591.76003,370.43271 581.07888,346.65024 563.86870,328.95090 C 563.84265,328.92498 563.83226,328.88304 563.80620,328.85715 C 563.79592,328.84660 563.78523,328.83644 563.77495,328.82590 C 562.97178,328.00242 562.07463,327.27866 561.24370,326.48215 C 559.10841,324.47038 556.96913,322.49878 554.71245,320.66965 C 553.86264,319.98309 552.95860,319.36028 552.08745,318.70090 C 549.88888,317.02919 547.63485,315.42690 545.30620,313.95090 C 544.38235,313.36179 543.43555,312.82233 542.49370,312.26340 C 530.57612,305.30112 516.93822,300.93049 500.58745,300.63840 z "
       style="font-size:12.000000;font-style:normal;font-variant:normal;font-weight:100;font-stretch:ultra-condensed;color:#000000;fill:url(#linearGradient2680);fill-opacity:0.75000000;fill-rule:evenodd;stroke:#000000;stroke-width:1.0000000pt;stroke-linecap:butt;stroke-linejoin:miter;stroke-miterlimit:4.0000000;stroke-dashoffset:0.0000000;stroke-opacity:1.0000000;marker:none;marker-start:none;marker-mid:none;marker-end:none;font-family:Bitstream Vera Sans;letter-spacing:0.0000000;text-anchor:start;writing-mode:lr;"
       id="path2025" />
    <path
       d="M 584.46417,495.24979 C 603.66369,490.22637 624.46725,509.97462 642.01769,496.64615 C 654.99121,480.39381 659.26035,449.90003 637.86509,438.39820 C 612.09632,423.39248 581.11644,430.61792 552.99586,431.52148 C 525.04895,435.84489 497.86645,446.86531 474.53801,462.77749 C 463.13836,472.48680 439.34473,489.88135 455.60895,505.49316 C 481.79309,509.60902 508.73678,521.23496 535.65599,513.90235 C 552.40421,509.18569 568.21505,500.66036 584.46417,495.24979 z "
       style="fill:#a3a6b9;fill-opacity:1.0000000;fill-rule:evenodd;stroke:#000000;stroke-width:1.0000000pt;stroke-linecap:butt;stroke-linejoin:miter;stroke-opacity:1.0000000;"
       id="path1052" />
    <path
       d="M 579.80617,492.67562 C 596.29577,488.22398 614.16302,505.72442 629.23630,493.91304 C 640.37867,479.51059 644.04525,452.48769 625.66982,442.29504 C 603.53818,428.99731 576.93095,435.40033 552.77945,436.20104 C 528.77711,440.03235 505.43128,449.79839 485.39553,463.89940 C 475.60488,472.50357 455.16960,487.91823 469.13821,501.75306 C 491.62659,505.40044 514.76732,515.70308 537.88702,509.20509 C 552.27131,505.02529 565.85053,497.47034 579.80617,492.67562 z "
       style="fill:url(#radialGradient2856);fill-opacity:1.0000000;fill-rule:evenodd;stroke:#000000;stroke-width:0.87240915pt;stroke-linecap:butt;stroke-linejoin:miter;stroke-opacity:1.0000000;"
       id="path3021" />
  </g>

  <metadata>
    <rdf:RDF 
     xmlns="http://web.resource.org/cc/"
     xmlns:dc="http://purl.org/dc/elements/1.1/"
     xmlns:rdf="http://www.w3.org/1999/02/22-rdf-syntax-ns#">
      <Work rdf:about="">
        <dc:title>Brown Fish</dc:title>
	<dc:description></dc:description>
        <dc:subject>
          <rdf:Bag>
            <rdf:li>animal</rdf:li>
            <rdf:li>fish</rdf:li>
          </rdf:Bag>
        </dc:subject>
        <dc:publisher>
           <Agent rdf:about="">
             <dc:title>Open Clip Art Library</dc:title>
           </Agent>
         </dc:publisher>
         <dc:creator>
           <Agent rdf:about="">
             <dc:title>Jonathon Love</dc:title>
           </Agent>
        </dc:creator>
         <dc:rights>
           <Agent rdf:about="">
             <dc:title></dc:title>
           </Agent>
        </dc:rights>
        <dc:date></dc:date>
        <dc:format>image/svg+xml</dc:format>
        <dc:type rdf:resource="http://purl.org/dc/dcmitype/StillImage" />
        <license rdf:resource="Public Domain">
	  <dc:date>2</dc:date>
	</license>
        <dc:language>en</dc:language>
      </Work>

      <License rdf:about="Public Domain">
         <permits rdf:resource="http://web.resource.org/cc/Reproduction" />
         <permits rdf:resource="http://web.resource.org/cc/Distribution" />
         <permits rdf:resource="http://web.resource.org/cc/DerivativeWorks" />
      </License>


    </rdf:RDF>
  </metadata>
</svg>
