<?xml version="1.0" encoding="windows-1252" standalone="no"?>
<!DOCTYPE svg PUBLIC "-//W3C//DTD SVG 1.0//EN" "http://www.w3.org/TR/SVG/DTD/svg10.dtd" [
<!ENTITY Austria "
  <g transform='translate(-6000,500),scale(0.35)'>
    <rect fill='#F5C592' stroke='#1F1A17' stroke-width='3' x='-5614' y='2' width='11036' height='5979'/>
    <path fill='#7CC5A1' stroke='#604F5E' stroke-width='28' d='M589 1050c19,-85 -67,-342 82,-312 65,64 314,174 194,255 136,160 251,75 428,173 46,-20 72,-46 115,-66 87,-41 13,-82 74,-120 73,74 112,93 201,37 21,61 143,127 149,21 5,-113 -32,-134 78,-210 72,-49 -17,-178 131,-123 38,14 208,47 107,-29 7,-65 21,-139 37,-202 10,-35 -59,-416 120,-238 76,0 146,-19 111,99 51,14 73,-32 140,-17 54,-99 -5,-59 94,-49 42,-19 149,47 214,61 54,81 84,77 169,99 55,15 85,61 136,74 80,21 74,-34 140,-37 71,-3 91,66 168,74 92,208 443,194 638,194 45,-61 70,-170 148,-153 93,-31 94,33 185,33 72,0 62,46 70,103 61,-24 65,-10 115,17 108,56 212,-89 222,115 5,93 51,179 42,271 -93,109 -111,150 -111,284 -57,76 29,96 69,152 0,57 6,72 58,95 24,28 43,136 58,181 19,58 127,119 172,189 -34,35 -18,85 -12,136 192,-48 40,103 54,124 -26,101 39,186 -116,201 0,74 95,77 54,169 24,55 17,96 49,148 -41,30 -253,78 -296,53 -27,-73 -39,-33 -53,17 -100,62 -141,13 -161,-87 -76,-25 -262,-102 -247,50 -48,16 -63,26 -98,62 -112,-56 63,185 222,115 59,18 71,69 66,127 91,51 65,83 -9,136 35,176 -132,151 -214,222 -84,-106 -74,88 -37,148 84,134 -157,240 4,309 -13,75 -4,51 50,53 125,7 -107,113 -8,165 80,42 -7,39 -54,74 27,36 149,78 12,78 -64,0 -139,-21 -193,13 -66,-50 -43,10 -58,49 -14,37 -82,72 -115,90 -34,103 -160,199 -267,210 -28,93 -19,186 49,259 33,36 39,146 -20,91 -83,-77 -223,-140 -325,-74 -70,45 -118,8 -190,8 -32,96 -167,4 -140,128 -40,54 -61,61 -127,61 -62,-112 -184,-68 -284,-41 -117,33 -323,-121 -391,83 -47,-63 -68,-50 -111,4 -96,-32 -117,134 -132,205 -54,18 -94,10 -148,37 -21,109 -181,94 -181,165 0,142 -42,37 -78,-21 -111,23 -89,-1 -177,-45 -69,31 -329,40 -382,0 -35,-102 -106,-89 -194,-70 -84,-52 -118,-87 -222,-66 -146,31 -431,-70 -613,-86 -48,-54 -52,-41 -107,-12 -61,32 -96,0 -156,20 -103,-103 -379,-107 -527,-107 -70,0 -95,-135 -193,-61 -91,-106 -426,-7 -510,-198 -43,-97 17,-94 -116,-123 -31,-94 52,-113 -49,-214 -157,52 -231,-276 -123,-276 85,0 50,-63 107,-99 -119,-118 -505,139 -626,152 -51,6 -43,37 -99,38 -111,-128 -238,-13 -304,-66 -91,-73 -100,129 -193,49 -72,-61 -220,-8 -305,21 -12,54 -19,61 -74,61 -77,109 -31,269 -177,334 -101,-34 -215,23 -300,-62 -165,36 41,-51 -99,-107 -90,-121 -150,-8 -263,-21 -204,-22 36,-152 -103,-222 -46,-23 -40,-50 -70,-90 -114,-13 -100,80 -148,148 -162,-65 -56,84 -128,111 -184,69 -243,-52 -403,-128 -119,-56 -38,-107 -57,-201 -42,-12 -378,-124 -383,-132 107,-67 8,-170 -37,-230 15,-76 -19,-86 -12,-148 -69,-92 109,-216 172,-264 -23,-69 -24,-76 -24,-148 -243,-135 1,-130 131,-169 22,-66 26,-148 120,-107 18,62 -22,62 28,99 50,36 141,-11 177,54 31,54 264,182 136,230 23,57 3,128 70,91 61,6 96,-69 156,-9 -30,68 -53,69 -45,148 -129,72 30,80 103,38 119,-70 153,-163 239,-256 22,-24 41,-18 41,-61 0,-47 -74,-243 -13,-284 41,25 38,16 0,49 57,66 142,86 194,4 86,0 184,32 247,95 60,7 96,-23 156,-29 84,72 -129,111 66,111 0,81 95,88 45,169 64,28 134,16 202,16 55,-47 185,-127 168,5 100,9 75,-71 161,-95 34,-10 151,19 70,-41 21,-193 226,31 280,-173 32,-123 258,-49 357,-62 109,-109 514,-5 511,-74 -4,-66 -103,-128 -21,-160 61,-24 130,-129 74,12 15,21 178,30 214,21 77,-21 179,246 272,70 32,-62 270,-78 246,28 114,85 -45,139 83,210 95,53 217,239 312,87 -38,-117 28,-178 66,-280 -21,-53 -37,-199 -127,-165 -97,37 -167,21 -87,-86 -11,-35 -17,-36 9,-66 184,-215 -82,-276 -120,-428 -29,-117 -187,-120 -140,-263 67,-13 124,-113 169,-165 90,-10 111,-1 173,-78 109,-137 328,-63 440,-160 79,-69 169,-153 152,-264 -10,-68 36,-90 29,-156 -12,-115 12,-54 82,-136 110,37 302,231 338,54 75,-15 62,-58 82,-120z'/>
  </g>
">
]>
<svg width="453" height="300" viewBox="-5616 0 11039 11029" xmlns="http://www.w3.org/2000/svg" xmlns:xlink="http://www.w3.org/1999/xlink" overflow="visible">
<g id="norm">
  <g transform="translate(-6000,500),scale(0.35)">
    <rect fill="#F5C592" stroke="#1F1A17" stroke-width="3" x="-5614" y="2" width="11036" height="5979"/>
    <path fill="#7CC5A1" stroke="#604F5E" stroke-width="28" d="M589 1050c19,-85 -67,-342 82,-312 65,64 314,174 194,255 136,160 251,75 428,173 46,-20 72,-46 115,-66 87,-41 13,-82 74,-120 73,74 112,93 201,37 21,61 143,127 149,21 5,-113 -32,-134 78,-210 72,-49 -17,-178 131,-123 38,14 208,47 107,-29 7,-65 21,-139 37,-202 10,-35 -59,-416 120,-238 76,0 146,-19 111,99 51,14 73,-32 140,-17 54,-99 -5,-59 94,-49 42,-19 149,47 214,61 54,81 84,77 169,99 55,15 85,61 136,74 80,21 74,-34 140,-37 71,-3 91,66 168,74 92,208 443,194 638,194 45,-61 70,-170 148,-153 93,-31 94,33 185,33 72,0 62,46 70,103 61,-24 65,-10 115,17 108,56 212,-89 222,115 5,93 51,179 42,271 -93,109 -111,150 -111,284 -57,76 29,96 69,152 0,57 6,72 58,95 24,28 43,136 58,181 19,58 127,119 172,189 -34,35 -18,85 -12,136 192,-48 40,103 54,124 -26,101 39,186 -116,201 0,74 95,77 54,169 24,55 17,96 49,148 -41,30 -253,78 -296,53 -27,-73 -39,-33 -53,17 -100,62 -141,13 -161,-87 -76,-25 -262,-102 -247,50 -48,16 -63,26 -98,62 -112,-56 63,185 222,115 59,18 71,69 66,127 91,51 65,83 -9,136 35,176 -132,151 -214,222 -84,-106 -74,88 -37,148 84,134 -157,240 4,309 -13,75 -4,51 50,53 125,7 -107,113 -8,165 80,42 -7,39 -54,74 27,36 149,78 12,78 -64,0 -139,-21 -193,13 -66,-50 -43,10 -58,49 -14,37 -82,72 -115,90 -34,103 -160,199 -267,210 -28,93 -19,186 49,259 33,36 39,146 -20,91 -83,-77 -223,-140 -325,-74 -70,45 -118,8 -190,8 -32,96 -167,4 -140,128 -40,54 -61,61 -127,61 -62,-112 -184,-68 -284,-41 -117,33 -323,-121 -391,83 -47,-63 -68,-50 -111,4 -96,-32 -117,134 -132,205 -54,18 -94,10 -148,37 -21,109 -181,94 -181,165 0,142 -42,37 -78,-21 -111,23 -89,-1 -177,-45 -69,31 -329,40 -382,0 -35,-102 -106,-89 -194,-70 -84,-52 -118,-87 -222,-66 -146,31 -431,-70 -613,-86 -48,-54 -52,-41 -107,-12 -61,32 -96,0 -156,20 -103,-103 -379,-107 -527,-107 -70,0 -95,-135 -193,-61 -91,-106 -426,-7 -510,-198 -43,-97 17,-94 -116,-123 -31,-94 52,-113 -49,-214 -157,52 -231,-276 -123,-276 85,0 50,-63 107,-99 -119,-118 -505,139 -626,152 -51,6 -43,37 -99,38 -111,-128 -238,-13 -304,-66 -91,-73 -100,129 -193,49 -72,-61 -220,-8 -305,21 -12,54 -19,61 -74,61 -77,109 -31,269 -177,334 -101,-34 -215,23 -300,-62 -165,36 41,-51 -99,-107 -90,-121 -150,-8 -263,-21 -204,-22 36,-152 -103,-222 -46,-23 -40,-50 -70,-90 -114,-13 -100,80 -148,148 -162,-65 -56,84 -128,111 -184,69 -243,-52 -403,-128 -119,-56 -38,-107 -57,-201 -42,-12 -378,-124 -383,-132 107,-67 8,-170 -37,-230 15,-76 -19,-86 -12,-148 -69,-92 109,-216 172,-264 -23,-69 -24,-76 -24,-148 -243,-135 1,-130 131,-169 22,-66 26,-148 120,-107 18,62 -22,62 28,99 50,36 141,-11 177,54 31,54 264,182 136,230 23,57 3,128 70,91 61,6 96,-69 156,-9 -30,68 -53,69 -45,148 -129,72 30,80 103,38 119,-70 153,-163 239,-256 22,-24 41,-18 41,-61 0,-47 -74,-243 -13,-284 41,25 38,16 0,49 57,66 142,86 194,4 86,0 184,32 247,95 60,7 96,-23 156,-29 84,72 -129,111 66,111 0,81 95,88 45,169 64,28 134,16 202,16 55,-47 185,-127 168,5 100,9 75,-71 161,-95 34,-10 151,19 70,-41 21,-193 226,31 280,-173 32,-123 258,-49 357,-62 109,-109 514,-5 511,-74 -4,-66 -103,-128 -21,-160 61,-24 130,-129 74,12 15,21 178,30 214,21 77,-21 179,246 272,70 32,-62 270,-78 246,28 114,85 -45,139 83,210 95,53 217,239 312,87 -38,-117 28,-178 66,-280 -21,-53 -37,-199 -127,-165 -97,37 -167,21 -87,-86 -11,-35 -17,-36 9,-66 184,-215 -82,-276 -120,-428 -29,-117 -187,-120 -140,-263 67,-13 124,-113 169,-165 90,-10 111,-1 173,-78 109,-137 328,-63 440,-160 79,-69 169,-153 152,-264 -10,-68 36,-90 29,-156 -12,-115 12,-54 82,-136 110,37 302,231 338,54 75,-15 62,-58 82,-120z"/>
  </g>
</g>
<g id="sc05" transform="translate(1000,1300),scale(0.5)">
  <g transform="translate(-6000,500),scale(0.35)">
    <rect fill="#F5C592" stroke="#1F1A17" stroke-width="3" x="-5614" y="2" width="11036" height="5979"/>
    <path fill="#7CC5A1" stroke="#604F5E" stroke-width="28" d="M589 1050c19,-85 -67,-342 82,-312 65,64 314,174 194,255 136,160 251,75 428,173 46,-20 72,-46 115,-66 87,-41 13,-82 74,-120 73,74 112,93 201,37 21,61 143,127 149,21 5,-113 -32,-134 78,-210 72,-49 -17,-178 131,-123 38,14 208,47 107,-29 7,-65 21,-139 37,-202 10,-35 -59,-416 120,-238 76,0 146,-19 111,99 51,14 73,-32 140,-17 54,-99 -5,-59 94,-49 42,-19 149,47 214,61 54,81 84,77 169,99 55,15 85,61 136,74 80,21 74,-34 140,-37 71,-3 91,66 168,74 92,208 443,194 638,194 45,-61 70,-170 148,-153 93,-31 94,33 185,33 72,0 62,46 70,103 61,-24 65,-10 115,17 108,56 212,-89 222,115 5,93 51,179 42,271 -93,109 -111,150 -111,284 -57,76 29,96 69,152 0,57 6,72 58,95 24,28 43,136 58,181 19,58 127,119 172,189 -34,35 -18,85 -12,136 192,-48 40,103 54,124 -26,101 39,186 -116,201 0,74 95,77 54,169 24,55 17,96 49,148 -41,30 -253,78 -296,53 -27,-73 -39,-33 -53,17 -100,62 -141,13 -161,-87 -76,-25 -262,-102 -247,50 -48,16 -63,26 -98,62 -112,-56 63,185 222,115 59,18 71,69 66,127 91,51 65,83 -9,136 35,176 -132,151 -214,222 -84,-106 -74,88 -37,148 84,134 -157,240 4,309 -13,75 -4,51 50,53 125,7 -107,113 -8,165 80,42 -7,39 -54,74 27,36 149,78 12,78 -64,0 -139,-21 -193,13 -66,-50 -43,10 -58,49 -14,37 -82,72 -115,90 -34,103 -160,199 -267,210 -28,93 -19,186 49,259 33,36 39,146 -20,91 -83,-77 -223,-140 -325,-74 -70,45 -118,8 -190,8 -32,96 -167,4 -140,128 -40,54 -61,61 -127,61 -62,-112 -184,-68 -284,-41 -117,33 -323,-121 -391,83 -47,-63 -68,-50 -111,4 -96,-32 -117,134 -132,205 -54,18 -94,10 -148,37 -21,109 -181,94 -181,165 0,142 -42,37 -78,-21 -111,23 -89,-1 -177,-45 -69,31 -329,40 -382,0 -35,-102 -106,-89 -194,-70 -84,-52 -118,-87 -222,-66 -146,31 -431,-70 -613,-86 -48,-54 -52,-41 -107,-12 -61,32 -96,0 -156,20 -103,-103 -379,-107 -527,-107 -70,0 -95,-135 -193,-61 -91,-106 -426,-7 -510,-198 -43,-97 17,-94 -116,-123 -31,-94 52,-113 -49,-214 -157,52 -231,-276 -123,-276 85,0 50,-63 107,-99 -119,-118 -505,139 -626,152 -51,6 -43,37 -99,38 -111,-128 -238,-13 -304,-66 -91,-73 -100,129 -193,49 -72,-61 -220,-8 -305,21 -12,54 -19,61 -74,61 -77,109 -31,269 -177,334 -101,-34 -215,23 -300,-62 -165,36 41,-51 -99,-107 -90,-121 -150,-8 -263,-21 -204,-22 36,-152 -103,-222 -46,-23 -40,-50 -70,-90 -114,-13 -100,80 -148,148 -162,-65 -56,84 -128,111 -184,69 -243,-52 -403,-128 -119,-56 -38,-107 -57,-201 -42,-12 -378,-124 -383,-132 107,-67 8,-170 -37,-230 15,-76 -19,-86 -12,-148 -69,-92 109,-216 172,-264 -23,-69 -24,-76 -24,-148 -243,-135 1,-130 131,-169 22,-66 26,-148 120,-107 18,62 -22,62 28,99 50,36 141,-11 177,54 31,54 264,182 136,230 23,57 3,128 70,91 61,6 96,-69 156,-9 -30,68 -53,69 -45,148 -129,72 30,80 103,38 119,-70 153,-163 239,-256 22,-24 41,-18 41,-61 0,-47 -74,-243 -13,-284 41,25 38,16 0,49 57,66 142,86 194,4 86,0 184,32 247,95 60,7 96,-23 156,-29 84,72 -129,111 66,111 0,81 95,88 45,169 64,28 134,16 202,16 55,-47 185,-127 168,5 100,9 75,-71 161,-95 34,-10 151,19 70,-41 21,-193 226,31 280,-173 32,-123 258,-49 357,-62 109,-109 514,-5 511,-74 -4,-66 -103,-128 -21,-160 61,-24 130,-129 74,12 15,21 178,30 214,21 77,-21 179,246 272,70 32,-62 270,-78 246,28 114,85 -45,139 83,210 95,53 217,239 312,87 -38,-117 28,-178 66,-280 -21,-53 -37,-199 -127,-165 -97,37 -167,21 -87,-86 -11,-35 -17,-36 9,-66 184,-215 -82,-276 -120,-428 -29,-117 -187,-120 -140,-263 67,-13 124,-113 169,-165 90,-10 111,-1 173,-78 109,-137 328,-63 440,-160 79,-69 169,-153 152,-264 -10,-68 36,-90 29,-156 -12,-115 12,-54 82,-136 110,37 302,231 338,54 75,-15 62,-58 82,-120z"/>
  </g>
</g>
<g id="sc06" transform="translate(3200,0),scale(0.4 1)">
  <g transform="translate(-6000,500),scale(0.35)">
    <rect fill="#F5C592" stroke="#1F1A17" stroke-width="3" x="-5614" y="2" width="11036" height="5979"/>
    <path fill="#7CC5A1" stroke="#604F5E" stroke-width="28" d="M589 1050c19,-85 -67,-342 82,-312 65,64 314,174 194,255 136,160 251,75 428,173 46,-20 72,-46 115,-66 87,-41 13,-82 74,-120 73,74 112,93 201,37 21,61 143,127 149,21 5,-113 -32,-134 78,-210 72,-49 -17,-178 131,-123 38,14 208,47 107,-29 7,-65 21,-139 37,-202 10,-35 -59,-416 120,-238 76,0 146,-19 111,99 51,14 73,-32 140,-17 54,-99 -5,-59 94,-49 42,-19 149,47 214,61 54,81 84,77 169,99 55,15 85,61 136,74 80,21 74,-34 140,-37 71,-3 91,66 168,74 92,208 443,194 638,194 45,-61 70,-170 148,-153 93,-31 94,33 185,33 72,0 62,46 70,103 61,-24 65,-10 115,17 108,56 212,-89 222,115 5,93 51,179 42,271 -93,109 -111,150 -111,284 -57,76 29,96 69,152 0,57 6,72 58,95 24,28 43,136 58,181 19,58 127,119 172,189 -34,35 -18,85 -12,136 192,-48 40,103 54,124 -26,101 39,186 -116,201 0,74 95,77 54,169 24,55 17,96 49,148 -41,30 -253,78 -296,53 -27,-73 -39,-33 -53,17 -100,62 -141,13 -161,-87 -76,-25 -262,-102 -247,50 -48,16 -63,26 -98,62 -112,-56 63,185 222,115 59,18 71,69 66,127 91,51 65,83 -9,136 35,176 -132,151 -214,222 -84,-106 -74,88 -37,148 84,134 -157,240 4,309 -13,75 -4,51 50,53 125,7 -107,113 -8,165 80,42 -7,39 -54,74 27,36 149,78 12,78 -64,0 -139,-21 -193,13 -66,-50 -43,10 -58,49 -14,37 -82,72 -115,90 -34,103 -160,199 -267,210 -28,93 -19,186 49,259 33,36 39,146 -20,91 -83,-77 -223,-140 -325,-74 -70,45 -118,8 -190,8 -32,96 -167,4 -140,128 -40,54 -61,61 -127,61 -62,-112 -184,-68 -284,-41 -117,33 -323,-121 -391,83 -47,-63 -68,-50 -111,4 -96,-32 -117,134 -132,205 -54,18 -94,10 -148,37 -21,109 -181,94 -181,165 0,142 -42,37 -78,-21 -111,23 -89,-1 -177,-45 -69,31 -329,40 -382,0 -35,-102 -106,-89 -194,-70 -84,-52 -118,-87 -222,-66 -146,31 -431,-70 -613,-86 -48,-54 -52,-41 -107,-12 -61,32 -96,0 -156,20 -103,-103 -379,-107 -527,-107 -70,0 -95,-135 -193,-61 -91,-106 -426,-7 -510,-198 -43,-97 17,-94 -116,-123 -31,-94 52,-113 -49,-214 -157,52 -231,-276 -123,-276 85,0 50,-63 107,-99 -119,-118 -505,139 -626,152 -51,6 -43,37 -99,38 -111,-128 -238,-13 -304,-66 -91,-73 -100,129 -193,49 -72,-61 -220,-8 -305,21 -12,54 -19,61 -74,61 -77,109 -31,269 -177,334 -101,-34 -215,23 -300,-62 -165,36 41,-51 -99,-107 -90,-121 -150,-8 -263,-21 -204,-22 36,-152 -103,-222 -46,-23 -40,-50 -70,-90 -114,-13 -100,80 -148,148 -162,-65 -56,84 -128,111 -184,69 -243,-52 -403,-128 -119,-56 -38,-107 -57,-201 -42,-12 -378,-124 -383,-132 107,-67 8,-170 -37,-230 15,-76 -19,-86 -12,-148 -69,-92 109,-216 172,-264 -23,-69 -24,-76 -24,-148 -243,-135 1,-130 131,-169 22,-66 26,-148 120,-107 18,62 -22,62 28,99 50,36 141,-11 177,54 31,54 264,182 136,230 23,57 3,128 70,91 61,6 96,-69 156,-9 -30,68 -53,69 -45,148 -129,72 30,80 103,38 119,-70 153,-163 239,-256 22,-24 41,-18 41,-61 0,-47 -74,-243 -13,-284 41,25 38,16 0,49 57,66 142,86 194,4 86,0 184,32 247,95 60,7 96,-23 156,-29 84,72 -129,111 66,111 0,81 95,88 45,169 64,28 134,16 202,16 55,-47 185,-127 168,5 100,9 75,-71 161,-95 34,-10 151,19 70,-41 21,-193 226,31 280,-173 32,-123 258,-49 357,-62 109,-109 514,-5 511,-74 -4,-66 -103,-128 -21,-160 61,-24 130,-129 74,12 15,21 178,30 214,21 77,-21 179,246 272,70 32,-62 270,-78 246,28 114,85 -45,139 83,210 95,53 217,239 312,87 -38,-117 28,-178 66,-280 -21,-53 -37,-199 -127,-165 -97,37 -167,21 -87,-86 -11,-35 -17,-36 9,-66 184,-215 -82,-276 -120,-428 -29,-117 -187,-120 -140,-263 67,-13 124,-113 169,-165 90,-10 111,-1 173,-78 109,-137 328,-63 440,-160 79,-69 169,-153 152,-264 -10,-68 36,-90 29,-156 -12,-115 12,-54 82,-136 110,37 302,231 338,54 75,-15 62,-58 82,-120z"/>
  </g>
</g>
<g id="sc07" transform="translate(11000,2500),scale(1 -0.5)">
  <g transform="translate(-6000,500),scale(0.35)">
    <rect fill="#F5C592" stroke="#1F1A17" stroke-width="3" x="-5614" y="2" width="11036" height="5979"/>
    <path fill="#7CC5A1" stroke="#604F5E" stroke-width="28" d="M589 1050c19,-85 -67,-342 82,-312 65,64 314,174 194,255 136,160 251,75 428,173 46,-20 72,-46 115,-66 87,-41 13,-82 74,-120 73,74 112,93 201,37 21,61 143,127 149,21 5,-113 -32,-134 78,-210 72,-49 -17,-178 131,-123 38,14 208,47 107,-29 7,-65 21,-139 37,-202 10,-35 -59,-416 120,-238 76,0 146,-19 111,99 51,14 73,-32 140,-17 54,-99 -5,-59 94,-49 42,-19 149,47 214,61 54,81 84,77 169,99 55,15 85,61 136,74 80,21 74,-34 140,-37 71,-3 91,66 168,74 92,208 443,194 638,194 45,-61 70,-170 148,-153 93,-31 94,33 185,33 72,0 62,46 70,103 61,-24 65,-10 115,17 108,56 212,-89 222,115 5,93 51,179 42,271 -93,109 -111,150 -111,284 -57,76 29,96 69,152 0,57 6,72 58,95 24,28 43,136 58,181 19,58 127,119 172,189 -34,35 -18,85 -12,136 192,-48 40,103 54,124 -26,101 39,186 -116,201 0,74 95,77 54,169 24,55 17,96 49,148 -41,30 -253,78 -296,53 -27,-73 -39,-33 -53,17 -100,62 -141,13 -161,-87 -76,-25 -262,-102 -247,50 -48,16 -63,26 -98,62 -112,-56 63,185 222,115 59,18 71,69 66,127 91,51 65,83 -9,136 35,176 -132,151 -214,222 -84,-106 -74,88 -37,148 84,134 -157,240 4,309 -13,75 -4,51 50,53 125,7 -107,113 -8,165 80,42 -7,39 -54,74 27,36 149,78 12,78 -64,0 -139,-21 -193,13 -66,-50 -43,10 -58,49 -14,37 -82,72 -115,90 -34,103 -160,199 -267,210 -28,93 -19,186 49,259 33,36 39,146 -20,91 -83,-77 -223,-140 -325,-74 -70,45 -118,8 -190,8 -32,96 -167,4 -140,128 -40,54 -61,61 -127,61 -62,-112 -184,-68 -284,-41 -117,33 -323,-121 -391,83 -47,-63 -68,-50 -111,4 -96,-32 -117,134 -132,205 -54,18 -94,10 -148,37 -21,109 -181,94 -181,165 0,142 -42,37 -78,-21 -111,23 -89,-1 -177,-45 -69,31 -329,40 -382,0 -35,-102 -106,-89 -194,-70 -84,-52 -118,-87 -222,-66 -146,31 -431,-70 -613,-86 -48,-54 -52,-41 -107,-12 -61,32 -96,0 -156,20 -103,-103 -379,-107 -527,-107 -70,0 -95,-135 -193,-61 -91,-106 -426,-7 -510,-198 -43,-97 17,-94 -116,-123 -31,-94 52,-113 -49,-214 -157,52 -231,-276 -123,-276 85,0 50,-63 107,-99 -119,-118 -505,139 -626,152 -51,6 -43,37 -99,38 -111,-128 -238,-13 -304,-66 -91,-73 -100,129 -193,49 -72,-61 -220,-8 -305,21 -12,54 -19,61 -74,61 -77,109 -31,269 -177,334 -101,-34 -215,23 -300,-62 -165,36 41,-51 -99,-107 -90,-121 -150,-8 -263,-21 -204,-22 36,-152 -103,-222 -46,-23 -40,-50 -70,-90 -114,-13 -100,80 -148,148 -162,-65 -56,84 -128,111 -184,69 -243,-52 -403,-128 -119,-56 -38,-107 -57,-201 -42,-12 -378,-124 -383,-132 107,-67 8,-170 -37,-230 15,-76 -19,-86 -12,-148 -69,-92 109,-216 172,-264 -23,-69 -24,-76 -24,-148 -243,-135 1,-130 131,-169 22,-66 26,-148 120,-107 18,62 -22,62 28,99 50,36 141,-11 177,54 31,54 264,182 136,230 23,57 3,128 70,91 61,6 96,-69 156,-9 -30,68 -53,69 -45,148 -129,72 30,80 103,38 119,-70 153,-163 239,-256 22,-24 41,-18 41,-61 0,-47 -74,-243 -13,-284 41,25 38,16 0,49 57,66 142,86 194,4 86,0 184,32 247,95 60,7 96,-23 156,-29 84,72 -129,111 66,111 0,81 95,88 45,169 64,28 134,16 202,16 55,-47 185,-127 168,5 100,9 75,-71 161,-95 34,-10 151,19 70,-41 21,-193 226,31 280,-173 32,-123 258,-49 357,-62 109,-109 514,-5 511,-74 -4,-66 -103,-128 -21,-160 61,-24 130,-129 74,12 15,21 178,30 214,21 77,-21 179,246 272,70 32,-62 270,-78 246,28 114,85 -45,139 83,210 95,53 217,239 312,87 -38,-117 28,-178 66,-280 -21,-53 -37,-199 -127,-165 -97,37 -167,21 -87,-86 -11,-35 -17,-36 9,-66 184,-215 -82,-276 -120,-428 -29,-117 -187,-120 -140,-263 67,-13 124,-113 169,-165 90,-10 111,-1 173,-78 109,-137 328,-63 440,-160 79,-69 169,-153 152,-264 -10,-68 36,-90 29,-156 -12,-115 12,-54 82,-136 110,37 302,231 338,54 75,-15 62,-58 82,-120z"/>
  </g>
</g>
<g id="sc08" transform="translate(1800,3500),skewX(-40)">
  <g transform="translate(-6000,500),scale(0.35)">
    <rect fill="#F5C592" stroke="#1F1A17" stroke-width="3" x="-5614" y="2" width="11036" height="5979"/>
    <path fill="#7CC5A1" stroke="#604F5E" stroke-width="28" d="M589 1050c19,-85 -67,-342 82,-312 65,64 314,174 194,255 136,160 251,75 428,173 46,-20 72,-46 115,-66 87,-41 13,-82 74,-120 73,74 112,93 201,37 21,61 143,127 149,21 5,-113 -32,-134 78,-210 72,-49 -17,-178 131,-123 38,14 208,47 107,-29 7,-65 21,-139 37,-202 10,-35 -59,-416 120,-238 76,0 146,-19 111,99 51,14 73,-32 140,-17 54,-99 -5,-59 94,-49 42,-19 149,47 214,61 54,81 84,77 169,99 55,15 85,61 136,74 80,21 74,-34 140,-37 71,-3 91,66 168,74 92,208 443,194 638,194 45,-61 70,-170 148,-153 93,-31 94,33 185,33 72,0 62,46 70,103 61,-24 65,-10 115,17 108,56 212,-89 222,115 5,93 51,179 42,271 -93,109 -111,150 -111,284 -57,76 29,96 69,152 0,57 6,72 58,95 24,28 43,136 58,181 19,58 127,119 172,189 -34,35 -18,85 -12,136 192,-48 40,103 54,124 -26,101 39,186 -116,201 0,74 95,77 54,169 24,55 17,96 49,148 -41,30 -253,78 -296,53 -27,-73 -39,-33 -53,17 -100,62 -141,13 -161,-87 -76,-25 -262,-102 -247,50 -48,16 -63,26 -98,62 -112,-56 63,185 222,115 59,18 71,69 66,127 91,51 65,83 -9,136 35,176 -132,151 -214,222 -84,-106 -74,88 -37,148 84,134 -157,240 4,309 -13,75 -4,51 50,53 125,7 -107,113 -8,165 80,42 -7,39 -54,74 27,36 149,78 12,78 -64,0 -139,-21 -193,13 -66,-50 -43,10 -58,49 -14,37 -82,72 -115,90 -34,103 -160,199 -267,210 -28,93 -19,186 49,259 33,36 39,146 -20,91 -83,-77 -223,-140 -325,-74 -70,45 -118,8 -190,8 -32,96 -167,4 -140,128 -40,54 -61,61 -127,61 -62,-112 -184,-68 -284,-41 -117,33 -323,-121 -391,83 -47,-63 -68,-50 -111,4 -96,-32 -117,134 -132,205 -54,18 -94,10 -148,37 -21,109 -181,94 -181,165 0,142 -42,37 -78,-21 -111,23 -89,-1 -177,-45 -69,31 -329,40 -382,0 -35,-102 -106,-89 -194,-70 -84,-52 -118,-87 -222,-66 -146,31 -431,-70 -613,-86 -48,-54 -52,-41 -107,-12 -61,32 -96,0 -156,20 -103,-103 -379,-107 -527,-107 -70,0 -95,-135 -193,-61 -91,-106 -426,-7 -510,-198 -43,-97 17,-94 -116,-123 -31,-94 52,-113 -49,-214 -157,52 -231,-276 -123,-276 85,0 50,-63 107,-99 -119,-118 -505,139 -626,152 -51,6 -43,37 -99,38 -111,-128 -238,-13 -304,-66 -91,-73 -100,129 -193,49 -72,-61 -220,-8 -305,21 -12,54 -19,61 -74,61 -77,109 -31,269 -177,334 -101,-34 -215,23 -300,-62 -165,36 41,-51 -99,-107 -90,-121 -150,-8 -263,-21 -204,-22 36,-152 -103,-222 -46,-23 -40,-50 -70,-90 -114,-13 -100,80 -148,148 -162,-65 -56,84 -128,111 -184,69 -243,-52 -403,-128 -119,-56 -38,-107 -57,-201 -42,-12 -378,-124 -383,-132 107,-67 8,-170 -37,-230 15,-76 -19,-86 -12,-148 -69,-92 109,-216 172,-264 -23,-69 -24,-76 -24,-148 -243,-135 1,-130 131,-169 22,-66 26,-148 120,-107 18,62 -22,62 28,99 50,36 141,-11 177,54 31,54 264,182 136,230 23,57 3,128 70,91 61,6 96,-69 156,-9 -30,68 -53,69 -45,148 -129,72 30,80 103,38 119,-70 153,-163 239,-256 22,-24 41,-18 41,-61 0,-47 -74,-243 -13,-284 41,25 38,16 0,49 57,66 142,86 194,4 86,0 184,32 247,95 60,7 96,-23 156,-29 84,72 -129,111 66,111 0,81 95,88 45,169 64,28 134,16 202,16 55,-47 185,-127 168,5 100,9 75,-71 161,-95 34,-10 151,19 70,-41 21,-193 226,31 280,-173 32,-123 258,-49 357,-62 109,-109 514,-5 511,-74 -4,-66 -103,-128 -21,-160 61,-24 130,-129 74,12 15,21 178,30 214,21 77,-21 179,246 272,70 32,-62 270,-78 246,28 114,85 -45,139 83,210 95,53 217,239 312,87 -38,-117 28,-178 66,-280 -21,-53 -37,-199 -127,-165 -97,37 -167,21 -87,-86 -11,-35 -17,-36 9,-66 184,-215 -82,-276 -120,-428 -29,-117 -187,-120 -140,-263 67,-13 124,-113 169,-165 90,-10 111,-1 173,-78 109,-137 328,-63 440,-160 79,-69 169,-153 152,-264 -10,-68 36,-90 29,-156 -12,-115 12,-54 82,-136 110,37 302,231 338,54 75,-15 62,-58 82,-120z"/>
  </g>
</g>
<g id="sc09" transform="translate(6000,5400),scale(0.7),skewX(-40),skewY(20)">
  <g transform="translate(-6000,500),scale(0.35)">
    <rect fill="#F5C592" stroke="#1F1A17" stroke-width="3" x="-5614" y="2" width="11036" height="5979"/>
    <path fill="#7CC5A1" stroke="#604F5E" stroke-width="28" d="M589 1050c19,-85 -67,-342 82,-312 65,64 314,174 194,255 136,160 251,75 428,173 46,-20 72,-46 115,-66 87,-41 13,-82 74,-120 73,74 112,93 201,37 21,61 143,127 149,21 5,-113 -32,-134 78,-210 72,-49 -17,-178 131,-123 38,14 208,47 107,-29 7,-65 21,-139 37,-202 10,-35 -59,-416 120,-238 76,0 146,-19 111,99 51,14 73,-32 140,-17 54,-99 -5,-59 94,-49 42,-19 149,47 214,61 54,81 84,77 169,99 55,15 85,61 136,74 80,21 74,-34 140,-37 71,-3 91,66 168,74 92,208 443,194 638,194 45,-61 70,-170 148,-153 93,-31 94,33 185,33 72,0 62,46 70,103 61,-24 65,-10 115,17 108,56 212,-89 222,115 5,93 51,179 42,271 -93,109 -111,150 -111,284 -57,76 29,96 69,152 0,57 6,72 58,95 24,28 43,136 58,181 19,58 127,119 172,189 -34,35 -18,85 -12,136 192,-48 40,103 54,124 -26,101 39,186 -116,201 0,74 95,77 54,169 24,55 17,96 49,148 -41,30 -253,78 -296,53 -27,-73 -39,-33 -53,17 -100,62 -141,13 -161,-87 -76,-25 -262,-102 -247,50 -48,16 -63,26 -98,62 -112,-56 63,185 222,115 59,18 71,69 66,127 91,51 65,83 -9,136 35,176 -132,151 -214,222 -84,-106 -74,88 -37,148 84,134 -157,240 4,309 -13,75 -4,51 50,53 125,7 -107,113 -8,165 80,42 -7,39 -54,74 27,36 149,78 12,78 -64,0 -139,-21 -193,13 -66,-50 -43,10 -58,49 -14,37 -82,72 -115,90 -34,103 -160,199 -267,210 -28,93 -19,186 49,259 33,36 39,146 -20,91 -83,-77 -223,-140 -325,-74 -70,45 -118,8 -190,8 -32,96 -167,4 -140,128 -40,54 -61,61 -127,61 -62,-112 -184,-68 -284,-41 -117,33 -323,-121 -391,83 -47,-63 -68,-50 -111,4 -96,-32 -117,134 -132,205 -54,18 -94,10 -148,37 -21,109 -181,94 -181,165 0,142 -42,37 -78,-21 -111,23 -89,-1 -177,-45 -69,31 -329,40 -382,0 -35,-102 -106,-89 -194,-70 -84,-52 -118,-87 -222,-66 -146,31 -431,-70 -613,-86 -48,-54 -52,-41 -107,-12 -61,32 -96,0 -156,20 -103,-103 -379,-107 -527,-107 -70,0 -95,-135 -193,-61 -91,-106 -426,-7 -510,-198 -43,-97 17,-94 -116,-123 -31,-94 52,-113 -49,-214 -157,52 -231,-276 -123,-276 85,0 50,-63 107,-99 -119,-118 -505,139 -626,152 -51,6 -43,37 -99,38 -111,-128 -238,-13 -304,-66 -91,-73 -100,129 -193,49 -72,-61 -220,-8 -305,21 -12,54 -19,61 -74,61 -77,109 -31,269 -177,334 -101,-34 -215,23 -300,-62 -165,36 41,-51 -99,-107 -90,-121 -150,-8 -263,-21 -204,-22 36,-152 -103,-222 -46,-23 -40,-50 -70,-90 -114,-13 -100,80 -148,148 -162,-65 -56,84 -128,111 -184,69 -243,-52 -403,-128 -119,-56 -38,-107 -57,-201 -42,-12 -378,-124 -383,-132 107,-67 8,-170 -37,-230 15,-76 -19,-86 -12,-148 -69,-92 109,-216 172,-264 -23,-69 -24,-76 -24,-148 -243,-135 1,-130 131,-169 22,-66 26,-148 120,-107 18,62 -22,62 28,99 50,36 141,-11 177,54 31,54 264,182 136,230 23,57 3,128 70,91 61,6 96,-69 156,-9 -30,68 -53,69 -45,148 -129,72 30,80 103,38 119,-70 153,-163 239,-256 22,-24 41,-18 41,-61 0,-47 -74,-243 -13,-284 41,25 38,16 0,49 57,66 142,86 194,4 86,0 184,32 247,95 60,7 96,-23 156,-29 84,72 -129,111 66,111 0,81 95,88 45,169 64,28 134,16 202,16 55,-47 185,-127 168,5 100,9 75,-71 161,-95 34,-10 151,19 70,-41 21,-193 226,31 280,-173 32,-123 258,-49 357,-62 109,-109 514,-5 511,-74 -4,-66 -103,-128 -21,-160 61,-24 130,-129 74,12 15,21 178,30 214,21 77,-21 179,246 272,70 32,-62 270,-78 246,28 114,85 -45,139 83,210 95,53 217,239 312,87 -38,-117 28,-178 66,-280 -21,-53 -37,-199 -127,-165 -97,37 -167,21 -87,-86 -11,-35 -17,-36 9,-66 184,-215 -82,-276 -120,-428 -29,-117 -187,-120 -140,-263 67,-13 124,-113 169,-165 90,-10 111,-1 173,-78 109,-137 328,-63 440,-160 79,-69 169,-153 152,-264 -10,-68 36,-90 29,-156 -12,-115 12,-54 82,-136 110,37 302,231 338,54 75,-15 62,-58 82,-120z"/>
  </g>
</g>
<g id="sc01" transform="rotate(-25),translate(-3000,4300)">
  <g transform="translate(-6000,500),scale(0.35)">
    <rect fill="#F5C592" stroke="#1F1A17" stroke-width="3" x="-5614" y="2" width="11036" height="5979"/>
    <path fill="#7CC5A1" stroke="#604F5E" stroke-width="28" d="M589 1050c19,-85 -67,-342 82,-312 65,64 314,174 194,255 136,160 251,75 428,173 46,-20 72,-46 115,-66 87,-41 13,-82 74,-120 73,74 112,93 201,37 21,61 143,127 149,21 5,-113 -32,-134 78,-210 72,-49 -17,-178 131,-123 38,14 208,47 107,-29 7,-65 21,-139 37,-202 10,-35 -59,-416 120,-238 76,0 146,-19 111,99 51,14 73,-32 140,-17 54,-99 -5,-59 94,-49 42,-19 149,47 214,61 54,81 84,77 169,99 55,15 85,61 136,74 80,21 74,-34 140,-37 71,-3 91,66 168,74 92,208 443,194 638,194 45,-61 70,-170 148,-153 93,-31 94,33 185,33 72,0 62,46 70,103 61,-24 65,-10 115,17 108,56 212,-89 222,115 5,93 51,179 42,271 -93,109 -111,150 -111,284 -57,76 29,96 69,152 0,57 6,72 58,95 24,28 43,136 58,181 19,58 127,119 172,189 -34,35 -18,85 -12,136 192,-48 40,103 54,124 -26,101 39,186 -116,201 0,74 95,77 54,169 24,55 17,96 49,148 -41,30 -253,78 -296,53 -27,-73 -39,-33 -53,17 -100,62 -141,13 -161,-87 -76,-25 -262,-102 -247,50 -48,16 -63,26 -98,62 -112,-56 63,185 222,115 59,18 71,69 66,127 91,51 65,83 -9,136 35,176 -132,151 -214,222 -84,-106 -74,88 -37,148 84,134 -157,240 4,309 -13,75 -4,51 50,53 125,7 -107,113 -8,165 80,42 -7,39 -54,74 27,36 149,78 12,78 -64,0 -139,-21 -193,13 -66,-50 -43,10 -58,49 -14,37 -82,72 -115,90 -34,103 -160,199 -267,210 -28,93 -19,186 49,259 33,36 39,146 -20,91 -83,-77 -223,-140 -325,-74 -70,45 -118,8 -190,8 -32,96 -167,4 -140,128 -40,54 -61,61 -127,61 -62,-112 -184,-68 -284,-41 -117,33 -323,-121 -391,83 -47,-63 -68,-50 -111,4 -96,-32 -117,134 -132,205 -54,18 -94,10 -148,37 -21,109 -181,94 -181,165 0,142 -42,37 -78,-21 -111,23 -89,-1 -177,-45 -69,31 -329,40 -382,0 -35,-102 -106,-89 -194,-70 -84,-52 -118,-87 -222,-66 -146,31 -431,-70 -613,-86 -48,-54 -52,-41 -107,-12 -61,32 -96,0 -156,20 -103,-103 -379,-107 -527,-107 -70,0 -95,-135 -193,-61 -91,-106 -426,-7 -510,-198 -43,-97 17,-94 -116,-123 -31,-94 52,-113 -49,-214 -157,52 -231,-276 -123,-276 85,0 50,-63 107,-99 -119,-118 -505,139 -626,152 -51,6 -43,37 -99,38 -111,-128 -238,-13 -304,-66 -91,-73 -100,129 -193,49 -72,-61 -220,-8 -305,21 -12,54 -19,61 -74,61 -77,109 -31,269 -177,334 -101,-34 -215,23 -300,-62 -165,36 41,-51 -99,-107 -90,-121 -150,-8 -263,-21 -204,-22 36,-152 -103,-222 -46,-23 -40,-50 -70,-90 -114,-13 -100,80 -148,148 -162,-65 -56,84 -128,111 -184,69 -243,-52 -403,-128 -119,-56 -38,-107 -57,-201 -42,-12 -378,-124 -383,-132 107,-67 8,-170 -37,-230 15,-76 -19,-86 -12,-148 -69,-92 109,-216 172,-264 -23,-69 -24,-76 -24,-148 -243,-135 1,-130 131,-169 22,-66 26,-148 120,-107 18,62 -22,62 28,99 50,36 141,-11 177,54 31,54 264,182 136,230 23,57 3,128 70,91 61,6 96,-69 156,-9 -30,68 -53,69 -45,148 -129,72 30,80 103,38 119,-70 153,-163 239,-256 22,-24 41,-18 41,-61 0,-47 -74,-243 -13,-284 41,25 38,16 0,49 57,66 142,86 194,4 86,0 184,32 247,95 60,7 96,-23 156,-29 84,72 -129,111 66,111 0,81 95,88 45,169 64,28 134,16 202,16 55,-47 185,-127 168,5 100,9 75,-71 161,-95 34,-10 151,19 70,-41 21,-193 226,31 280,-173 32,-123 258,-49 357,-62 109,-109 514,-5 511,-74 -4,-66 -103,-128 -21,-160 61,-24 130,-129 74,12 15,21 178,30 214,21 77,-21 179,246 272,70 32,-62 270,-78 246,28 114,85 -45,139 83,210 95,53 217,239 312,87 -38,-117 28,-178 66,-280 -21,-53 -37,-199 -127,-165 -97,37 -167,21 -87,-86 -11,-35 -17,-36 9,-66 184,-215 -82,-276 -120,-428 -29,-117 -187,-120 -140,-263 67,-13 124,-113 169,-165 90,-10 111,-1 173,-78 109,-137 328,-63 440,-160 79,-69 169,-153 152,-264 -10,-68 36,-90 29,-156 -12,-115 12,-54 82,-136 110,37 302,231 338,54 75,-15 62,-58 82,-120z"/>
  </g>
</g>
<g id="sc02" transform="translate(4500,11600),matrix(.707 .707 -.707 .707 0 0)">
  <g transform="translate(-6000,500),scale(0.35)">
    <rect fill="#F5C592" stroke="#1F1A17" stroke-width="3" x="-5614" y="2" width="11036" height="5979"/>
    <path fill="#7CC5A1" stroke="#604F5E" stroke-width="28" d="M589 1050c19,-85 -67,-342 82,-312 65,64 314,174 194,255 136,160 251,75 428,173 46,-20 72,-46 115,-66 87,-41 13,-82 74,-120 73,74 112,93 201,37 21,61 143,127 149,21 5,-113 -32,-134 78,-210 72,-49 -17,-178 131,-123 38,14 208,47 107,-29 7,-65 21,-139 37,-202 10,-35 -59,-416 120,-238 76,0 146,-19 111,99 51,14 73,-32 140,-17 54,-99 -5,-59 94,-49 42,-19 149,47 214,61 54,81 84,77 169,99 55,15 85,61 136,74 80,21 74,-34 140,-37 71,-3 91,66 168,74 92,208 443,194 638,194 45,-61 70,-170 148,-153 93,-31 94,33 185,33 72,0 62,46 70,103 61,-24 65,-10 115,17 108,56 212,-89 222,115 5,93 51,179 42,271 -93,109 -111,150 -111,284 -57,76 29,96 69,152 0,57 6,72 58,95 24,28 43,136 58,181 19,58 127,119 172,189 -34,35 -18,85 -12,136 192,-48 40,103 54,124 -26,101 39,186 -116,201 0,74 95,77 54,169 24,55 17,96 49,148 -41,30 -253,78 -296,53 -27,-73 -39,-33 -53,17 -100,62 -141,13 -161,-87 -76,-25 -262,-102 -247,50 -48,16 -63,26 -98,62 -112,-56 63,185 222,115 59,18 71,69 66,127 91,51 65,83 -9,136 35,176 -132,151 -214,222 -84,-106 -74,88 -37,148 84,134 -157,240 4,309 -13,75 -4,51 50,53 125,7 -107,113 -8,165 80,42 -7,39 -54,74 27,36 149,78 12,78 -64,0 -139,-21 -193,13 -66,-50 -43,10 -58,49 -14,37 -82,72 -115,90 -34,103 -160,199 -267,210 -28,93 -19,186 49,259 33,36 39,146 -20,91 -83,-77 -223,-140 -325,-74 -70,45 -118,8 -190,8 -32,96 -167,4 -140,128 -40,54 -61,61 -127,61 -62,-112 -184,-68 -284,-41 -117,33 -323,-121 -391,83 -47,-63 -68,-50 -111,4 -96,-32 -117,134 -132,205 -54,18 -94,10 -148,37 -21,109 -181,94 -181,165 0,142 -42,37 -78,-21 -111,23 -89,-1 -177,-45 -69,31 -329,40 -382,0 -35,-102 -106,-89 -194,-70 -84,-52 -118,-87 -222,-66 -146,31 -431,-70 -613,-86 -48,-54 -52,-41 -107,-12 -61,32 -96,0 -156,20 -103,-103 -379,-107 -527,-107 -70,0 -95,-135 -193,-61 -91,-106 -426,-7 -510,-198 -43,-97 17,-94 -116,-123 -31,-94 52,-113 -49,-214 -157,52 -231,-276 -123,-276 85,0 50,-63 107,-99 -119,-118 -505,139 -626,152 -51,6 -43,37 -99,38 -111,-128 -238,-13 -304,-66 -91,-73 -100,129 -193,49 -72,-61 -220,-8 -305,21 -12,54 -19,61 -74,61 -77,109 -31,269 -177,334 -101,-34 -215,23 -300,-62 -165,36 41,-51 -99,-107 -90,-121 -150,-8 -263,-21 -204,-22 36,-152 -103,-222 -46,-23 -40,-50 -70,-90 -114,-13 -100,80 -148,148 -162,-65 -56,84 -128,111 -184,69 -243,-52 -403,-128 -119,-56 -38,-107 -57,-201 -42,-12 -378,-124 -383,-132 107,-67 8,-170 -37,-230 15,-76 -19,-86 -12,-148 -69,-92 109,-216 172,-264 -23,-69 -24,-76 -24,-148 -243,-135 1,-130 131,-169 22,-66 26,-148 120,-107 18,62 -22,62 28,99 50,36 141,-11 177,54 31,54 264,182 136,230 23,57 3,128 70,91 61,6 96,-69 156,-9 -30,68 -53,69 -45,148 -129,72 30,80 103,38 119,-70 153,-163 239,-256 22,-24 41,-18 41,-61 0,-47 -74,-243 -13,-284 41,25 38,16 0,49 57,66 142,86 194,4 86,0 184,32 247,95 60,7 96,-23 156,-29 84,72 -129,111 66,111 0,81 95,88 45,169 64,28 134,16 202,16 55,-47 185,-127 168,5 100,9 75,-71 161,-95 34,-10 151,19 70,-41 21,-193 226,31 280,-173 32,-123 258,-49 357,-62 109,-109 514,-5 511,-74 -4,-66 -103,-128 -21,-160 61,-24 130,-129 74,12 15,21 178,30 214,21 77,-21 179,246 272,70 32,-62 270,-78 246,28 114,85 -45,139 83,210 95,53 217,239 312,87 -38,-117 28,-178 66,-280 -21,-53 -37,-199 -127,-165 -97,37 -167,21 -87,-86 -11,-35 -17,-36 9,-66 184,-215 -82,-276 -120,-428 -29,-117 -187,-120 -140,-263 67,-13 124,-113 169,-165 90,-10 111,-1 173,-78 109,-137 328,-63 440,-160 79,-69 169,-153 152,-264 -10,-68 36,-90 29,-156 -12,-115 12,-54 82,-136 110,37 302,231 338,54 75,-15 62,-58 82,-120z"/>
  </g>
</g>  
<g id="textelements" font-size="550" font-family="Arial,Helvetica">
  <text x="-7000" y="3300">Original</text>
  <text x="-3300" y="3300">scale(0.5)</text>
  <text x="-550" y="3300">scale(0.4 1)</text>
  <text x="3500" y="3300">scale(1 -0.5)</text>
  <text x="-7200" y="6700">skewX(-40)</text>
  <text x="0" y="6700">skewX(-40),skewY(20)</text>
  <text x="-5400" y="10800">rotate(-25)</text>
  <text x="0" y="10800">matrix(.707 .707 -.707 .707 0 0)</text>
</g>
</svg>