<?xml version="1.0" encoding="UTF-8" standalone="no"?>
<!-- Generator: Adobe Illustrator 14.0.0, SVG Export Plug-In . SVG Version: 6.00 Build 43363)  -->
<svg xmlns:dc="http://purl.org/dc/elements/1.1/" xmlns:cc="http://creativecommons.org/ns#" xmlns:rdf="http://www.w3.org/1999/02/22-rdf-syntax-ns#" xmlns:svg="http://www.w3.org/2000/svg" xmlns="http://www.w3.org/2000/svg" xmlns:sodipodi="http://sodipodi.sourceforge.net/DTD/sodipodi-0.dtd" xmlns:inkscape="http://www.inkscape.org/namespaces/inkscape" version="1.1" id="Layer_1" x="0px" y="0px" width="595.28px" height="841.89px" viewBox="0 0 595.28 841.89" enable-background="new 0 0 595.28 841.89" xml:space="preserve" inkscape:version="0.47 r22583" sodipodi:docname="goalpostdog-ink.svg"><metadata id="metadata589"><rdf:RDF><cc:Work rdf:about=""><dc:format>image/svg+xml</dc:format><dc:type rdf:resource="http://purl.org/dc/dcmitype/StillImage"/><dc:title/></cc:Work></rdf:RDF></metadata><defs id="defs587"><inkscape:perspective sodipodi:type="inkscape:persp3d" inkscape:vp_x="0 : 420.94501 : 1" inkscape:vp_y="0 : 1000 : 0" inkscape:vp_z="595.28003 : 420.94501 : 1" inkscape:persp3d-origin="297.64001 : 280.63 : 1" id="perspective591"/></defs><sodipodi:namedview pagecolor="#ffffff" bordercolor="#666666" borderopacity="1" objecttolerance="10" gridtolerance="10" guidetolerance="10" inkscape:pageopacity="0" inkscape:pageshadow="2" inkscape:window-width="1080" inkscape:window-height="840" id="namedview585" showgrid="false" inkscape:zoom="0.79286936" inkscape:cx="258.10185" inkscape:cy="530.08065" inkscape:window-x="0" inkscape:window-y="0" inkscape:window-maximized="0" inkscape:current-layer="Layer_1"/>
<linearGradient id="SVGID_1_" gradientUnits="userSpaceOnUse" x1="1358.0371" y1="523.9658" x2="-1623.0269" y2="523.9661">
	<stop offset="0" style="stop-color: rgb(255, 255, 255);" id="stop4"/>
	<stop offset="0.0354" style="stop-color: rgb(252, 253, 248);" id="stop6"/>
	<stop offset="0.0823" style="stop-color: rgb(245, 249, 234);" id="stop8"/>
	<stop offset="0.1356" style="stop-color: rgb(237, 244, 213);" id="stop10"/>
	<stop offset="0.1936" style="stop-color: rgb(226, 237, 184);" id="stop12"/>
	<stop offset="0.2556" style="stop-color: rgb(212, 228, 147);" id="stop14"/>
	<stop offset="0.3196" style="stop-color: rgb(196, 219, 100);" id="stop16"/>
	<stop offset="0.3758" style="stop-color: rgb(179, 211, 52);" id="stop18"/>
	<stop offset="0.5394" style="stop-color: rgb(222, 228, 94);" id="stop20"/>
	<stop offset="0.6707" style="stop-color: rgb(231, 235, 147);" id="stop22"/>
	<stop offset="0.9394" style="stop-color: rgb(255, 255, 255);" id="stop24"/>
</linearGradient>
<polygon points="-1623.03,669.764 -1254.49,378.169 1358.04,387.173 1017.23,669.764 " id="polygon26" style="opacity:0.57999998;fill:url(#SVGID_1_)" transform="matrix(0.16, 0, 0, 0.16, 283.473, 237.511)"/>
<path d="m 338.27786,315.08396 c 0,0 0,-11.84892 0,-14.44076 0,-5.02228 -21.69975,-42.58198 -25.40263,-44.24804 -3.70289,-1.66629 -23.6206,-2.21835 -23.6206,-2.21835 v 3.68427 c 0,0 19.77917,-0.6264 22.32482,1.51557 3.05736,2.57245 20.81641,34.93068 23.28642,40.56505 0.95949,2.18892 0.39044,15.7851 0.39044,15.7851 l 3.02155,-0.64284 z" id="path28" style="fill:#9c9ea1;stroke:#231f20;stroke-width:1.06168318"/>
<linearGradient id="SVGID_2_" gradientUnits="userSpaceOnUse" x1="-104.7695" y1="443.293" x2="120.5615" y2="443.293">
	<stop offset="0" style="stop-color: rgb(253, 253, 253);" id="stop31"/>
	<stop offset="1" style="stop-color: rgb(212, 212, 212);" id="stop33"/>
</linearGradient>
<polygon points="-104.77,471.688 120.562,423.771 120.562,414.898 -101.142,435.927 " id="polygon35" style="fill:url(#SVGID_2_);stroke:#231f20;stroke-width:5" transform="matrix(0.265421, 0, 0, 0.265421, 306.104, 203.508)"/>
<path d="m 282.91452,325.94948 c -0.6439,2.49655 -7.21786,3.33343 -7.21786,3.33343 l 7.36677,-72.6194 c 0,0 0.36336,-1.73292 1.62728,-1.96782 3.53143,-0.65586 3.53143,-0.65586 3.53143,-0.65586 l -4.65494,68.97038 c 2.4e-4,-2.5e-4 -0.15172,0.99666 -0.65268,2.93927 z" id="path37" style="fill:#ffffff;stroke:#231f20;stroke-width:1.32710397"/>
<path d="m 339.09613,316.04108 c 2.15921,-0.45893 142.3173,1.94765 142.3173,1.94765 l 9.15995,-4.07025 c 0,0 -150.21436,-0.1671 -152.19121,-0.28742 0,-2.9e-4 -0.36285,2.63932 0.71396,2.41002 z" id="path39" style="fill:#cccbcb;stroke:#231f20;stroke-width:1.32710397"/>
<path d="m 431.44719,239.31084 c 0,0 18.50434,2.42859 23.58476,4.69317 4.62415,2.06099 28.58821,45.28266 31.71777,52.42165 1.21564,2.77314 0.49449,19.99972 0.49449,19.99972 l 3.82844,-0.81403 c 0,0 0,-15.01273 0,-18.2968 0,-6.36319 -26.14954,-51.80721 -32.70065,-56.63229 -6.90705,-5.08732 -26.31276,-6.79583 -26.31276,-6.79583" id="path41" style="fill:#e8e6e4;stroke:#231f20;stroke-width:1.32710397"/>
<linearGradient id="SVGID_3_" gradientUnits="userSpaceOnUse" x1="411.3896" y1="447.0938" x2="696.8887" y2="447.0938">
	<stop offset="0" style="stop-color: rgb(255, 255, 255);" id="stop44"/>
	<stop offset="1" style="stop-color: rgb(220, 220, 220);" id="stop46"/>
</linearGradient>
<polyline points="411.39,483.069 696.889,422.359 696.889,411.118 415.985,437.763 411.39,483.069" id="polyline48" style="fill:url(#SVGID_3_);stroke:#231f20;stroke-width:6" transform="matrix(0.265421, 0, 0, 0.265421, 306.104, 203.508)"/>
<path d="m 301.87513,256.94353 7.7532,-0.68107 4.89595,1.08663 c 0,0 -5.23887,-1.39424 -3.55452,1.32129 0.6901,1.1121 -9.09463,-1.72685 -9.09463,-1.72685 z" id="path50" style="fill:#010101"/>
<g id="g52" transform="matrix(0.265421, 0, 0, 0.265421, 306.104, 203.508)">
	<line x1="480.35999" y1="421.427" x2="500.07901" y2="161.19501" id="line54" style="fill:none;stroke:#9c9ea1"/>
	<line x1="500.07901" y1="421.427" x2="518.47998" y2="163.30099" id="line56" style="fill:none;stroke:#9c9ea1"/>
	<line x1="538.47803" y1="169.505" x2="518.47998" y2="415.16101" id="line58" style="fill:none;stroke:#9c9ea1"/>
	<line x1="542.76202" y1="415.508" x2="554.823" y2="169.505" id="line60" style="fill:none;stroke:#9c9ea1"/>
	<line x1="566.05499" y1="413.298" x2="576.26202" y2="185.942" id="line62" style="fill:none;stroke:#9c9ea1"/>
	<line x1="585.93402" y1="411.41199" x2="595.13" y2="216.353" id="line64" style="fill:none;stroke:#9c9ea1"/>
	<line x1="606.25897" y1="409.48401" x2="612.76398" y2="246.804" id="line66" style="fill:none;stroke:#9c9ea1"/>
	<line x1="628.71301" y1="407.354" x2="634.53101" y2="285.836" id="line68" style="fill:none;stroke:#9c9ea1"/>
	<line x1="646.60901" y1="405.65701" x2="652.56097" y2="319.319" id="line70" style="fill:none;stroke:#9c9ea1"/>
	<line x1="480.35999" y1="174.17" x2="576.26202" y2="185.942" id="line72" style="fill:none;stroke:#9c9ea1"/>
	<line x1="475.36301" y1="205.241" x2="595.13" y2="216.353" id="line74" style="fill:none;stroke:#9c9ea1"/>
	<line x1="480.35999" y1="246.804" x2="616.38098" y2="253.192" id="line76" style="fill:none;stroke:#9c9ea1"/>
	<line x1="469.92401" y1="285.836" x2="634.53101" y2="285.836" id="line78" style="fill:none;stroke:#9c9ea1"/>
	<line x1="469.92401" y1="334.34201" x2="657.17499" y2="328.14401" id="line80" style="fill:none;stroke:#9c9ea1"/>
	<line x1="464.30099" y1="369.15601" x2="668.85901" y2="362.48801" id="line82" style="fill:none;stroke:#9c9ea1"/>
	<line x1="468.43799" y1="399.996" x2="669.18103" y2="389.88699" id="line84" style="fill:none;stroke:#9c9ea1"/>
</g>
<g id="g86" transform="matrix(0.265421, 0, 0, 0.265421, 306.104, 203.508)">
	<line x1="-60.549999" y1="428.745" x2="-43.629002" y2="199.59599" id="line88" style="fill:none;stroke:#9c9ea1"/>
	<line x1="-43.629002" y1="428.745" x2="-27.84" y2="201.44901" id="line90" style="fill:none;stroke:#9c9ea1"/>
	<line x1="-10.679" y1="206.914" x2="-27.84" y2="423.229" id="line92" style="fill:none;stroke:#9c9ea1"/>
	<line x1="-7.0019999" y1="423.534" x2="3.3469999" y2="206.914" id="line94" style="fill:none;stroke:#9c9ea1"/>
	<line x1="12.985" y1="421.58801" x2="21.743999" y2="221.38699" id="line96" style="fill:none;stroke:#9c9ea1"/>
	<line x1="30.044001" y1="419.92801" x2="37.935001" y2="248.166" id="line98" style="fill:none;stroke:#9c9ea1"/>
	<line x1="47.484001" y1="418.229" x2="53.064999" y2="274.98001" id="line100" style="fill:none;stroke:#9c9ea1"/>
	<line x1="66.751999" y1="416.354" x2="71.746002" y2="309.35001" id="line102" style="fill:none;stroke:#9c9ea1"/>
	<line x1="82.108002" y1="414.85901" x2="87.216003" y2="338.83301" id="line104" style="fill:none;stroke:#9c9ea1"/>
	<line x1="-60.549999" y1="211.021" x2="21.743999" y2="221.38699" id="line106" style="fill:none;stroke:#9c9ea1"/>
	<line x1="-64.838997" y1="238.381" x2="37.935001" y2="248.166" id="line108" style="fill:none;stroke:#9c9ea1"/>
	<line x1="-60.549999" y1="274.98001" x2="56.169998" y2="280.60501" id="line110" style="fill:none;stroke:#9c9ea1"/>
	<line x1="-69.504997" y1="309.35001" x2="71.746002" y2="309.35001" id="line112" style="fill:none;stroke:#9c9ea1"/>
	<line x1="-69.504997" y1="352.06201" x2="91.175003" y2="346.604" id="line114" style="fill:none;stroke:#9c9ea1"/>
	<line x1="-74.331001" y1="382.71899" x2="101.202" y2="376.84698" id="line116" style="fill:none;stroke:#9c9ea1"/>
	<line x1="-70.778999" y1="409.875" x2="101.477" y2="400.974" id="line118" style="fill:none;stroke:#9c9ea1"/>
</g>
<path d="M 278.66249,316.04108" id="path120" style="fill:none;stroke:#231f20;stroke-width:0.53084159"/>
<path d="m 415.29554,331.72479 c 0,0 8.32943,-1.05957 9.14533,-4.22339 0.63436,-2.46073 0.82732,-3.72358 0.82732,-3.72358 l 5.89765,-87.38662 -6.41865,-0.79626 -9.45165,96.12985" id="path122" style="fill:#ffffff;stroke:#231f20;stroke-width:2.12336636"/>
<linearGradient id="SVGID_4_" gradientUnits="userSpaceOnUse" x1="-85.3823" y1="161.5498" x2="474.5498" y2="161.5498" gradientTransform="matrix(0.265421, 0, 0, 0.265421, 306.104, 203.508)">
	<stop offset="0" style="stop-color: rgb(220, 220, 220);" id="stop125"/>
	<stop offset="1" style="stop-color: rgb(255, 255, 255);" id="stop127"/>
</linearGradient>
<path d="m 432.05953,233.88615 c 0,0 -144.28224,20.74264 -146.23758,20.71001 -4.00282,-0.0667 -2.2083,4.58329 -0.0499,4.27726 2.15867,-0.30605 145.67514,-19.56258 145.67514,-19.56258 l 0.61232,-5.42469" id="path129" style="fill:url(#SVGID_4_);stroke:#231f20;stroke-width:1.32710397"/>
<path d="m 325.14693,258.88773 c 21.83196,33.77268 19.17776,26.3409 21.83196,33.77268 2.65421,7.43178 1.06168,17.01505 1.06168,17.01505" id="path131" style="fill:none;stroke:#9c9ea1;stroke-width:0.26542079"/>
<path d="m 333.03818,258.26613 c 21.83191,33.77241 19.17771,26.34063 21.83191,33.77241 2.65421,7.43178 1.06168,17.0148 1.06168,17.0148" id="path133" style="fill:none;stroke:#9c9ea1;stroke-width:0.26542079"/>
<path d="m 344.72201,258.26613 c 21.83191,33.77267 19.1777,26.34088 21.83191,33.77267 2.65421,7.43178 1.06169,17.0148 1.06169,17.0148" id="path135" style="fill:none;stroke:#9c9ea1;stroke-width:0.26542079"/>
<path d="m 356.67125,254.1914 c 21.83191,36.88764 19.1777,28.77029 21.83191,36.88764 2.65421,8.1171 1.06167,18.58422 1.06167,18.58422" id="path137" style="fill:none;stroke:#9c9ea1;stroke-width:0.26542079"/>
<path d="m 371.12102,252.59888 c 21.83191,38.55527 19.17771,30.07109 21.83191,38.55527 2.65421,8.48444 1.06169,19.42458 1.06169,19.42458" id="path139" style="fill:none;stroke:#9c9ea1;stroke-width:0.26542079"/>
<path d="m 389.75355,250.38525 c 21.8322,38.55556 19.178,30.0711 21.8322,38.55556 2.65421,8.48417 1.06169,19.42454 1.06169,19.42454" id="path141" style="fill:none;stroke:#9c9ea1;stroke-width:0.26542079"/>
<path d="m 406.96399,248.49836 c 6.90095,13.90382 8.33155,19.57957 8.33155,19.57957" id="path143" style="fill:none;stroke:#9c9ea1;stroke-width:0.26542079"/>
<path d="m 330.30384,266.79622 c 86.21531,-10.23303 86.21531,-10.23303 86.21531,-10.23303" id="path145" style="fill:none;stroke:#9c9ea1;stroke-width:0.26542079"/>
<path d="m 332.96519,276.49362 c 82.33035,-8.41569 82.33035,-8.41569 82.33035,-8.41569" id="path147" style="fill:none;stroke:#9c9ea1;stroke-width:0.26542079"/>
<path d="m 338.32351,287.17524 c 77.66479,-8.31671 77.66479,-8.31671 77.66479,-8.31671" id="path149" style="fill:none;stroke:#9c9ea1;stroke-width:0.26542079"/>
<path d="m 344.72172,295.50201 c 67.88352,-2.03658 67.88352,-2.03658 67.88352,-2.03658" id="path151" style="fill:none;stroke:#9c9ea1;stroke-width:0.26542079"/>
<path d="m 344.72201,303.53126 c 70.73545,0.80767 70.73545,0.80767 70.73545,0.80767" id="path153" style="fill:none;stroke:#9c9ea1;stroke-width:0.26542079"/>
<g id="g155" transform="matrix(0.265421, 0, 0, 0.265421, 306.104, 203.508)">
	<path d="M 197.527,215.326" id="path157" style="fill:none;stroke:#231f20;stroke-width:2"/>
	<linearGradient id="SVGID_5_" gradientUnits="userSpaceOnUse" x1="-129.6582" y1="447.2598" x2="-84.349098" y2="447.2598">
		<stop offset="0" style="stop-color: rgb(99, 100, 103);" id="stop160"/>
		<stop offset="0.0168" style="stop-color: rgb(97, 98, 101);" id="stop162"/>
		<stop offset="0.6885" style="stop-color: rgb(27, 28, 29);" id="stop164"/>
		<stop offset="1" style="stop-color: rgb(0, 0, 0);" id="stop166"/>
	</linearGradient>
	<path d="m -84.349,425.84 c -0.831,-1.247 -3.741,-4.156 -7.482,-4.156 -3.742,0 -14.549,4.156 -15.381,6.65 -0.831,2.495 -4.573,9.146 -7.481,11.64 -2.91,2.494 -5.404,-2.078 -9.146,9.561 -3.741,11.639 -5.819,18.706 -5.819,18.706 0,0 7.898,4.987 10.807,4.572 2.91,-0.416 7.066,-5.404 14.133,-11.64 7.066,-6.235 12.887,-13.718 14.549,-14.133 1.663,-0.416 5.82,-21.2 5.82,-21.2 z" id="path168" style="fill:url(#SVGID_5_);stroke:#010101;stroke-width:3"/>
	<g id="g170">
		<path clip-rule="evenodd" d="m 321.767,253.396 c 12.749,-0.021 21.888,5.847 28.325,12.332 6.256,6.303 11.236,15.815 11.094,27.73 -0.154,12.926 -5.735,21.926 -12.332,28.325 -6.873,6.668 -16.063,10.867 -27.862,10.947 -12.729,0.086 -21.679,-5.605 -28.193,-12.187 -6.692,-6.759 -11.15,-15.48 -11.093,-27.73 0.06,-12.927 5.599,-22.209 12.054,-28.339 3.346,-3.178 6.971,-5.803 11.829,-7.88 4.534,-1.941 10.281,-3.188 16.178,-3.198 z m -12.372,2.282 c 0.119,1.835 -0.01,3.893 -0.024,5.849 5.82,0.401 10.44,1.887 13.978,4.345 3.9,-1.693 8.747,-2.338 14.053,-2.473 0.506,-1.837 0.416,-3.891 0.45,-5.965 -6.899,-4.116 -20.897,-4.936 -28.457,-1.756 z m 28.554,7.888 c 4.318,3.125 7.122,7.613 10.103,11.944 3.231,1.058 6.067,2.476 8.557,4.202 0.378,-0.605 0.913,-1.042 1.205,-1.747 -3.919,-9 -10.081,-15.979 -19.283,-20.218 -0.017,2.137 -0.342,3.931 -0.582,5.819 z m -17.155,19.301 c 1.084,-0.835 3.089,-1.794 3.354,-2.889 0.211,-0.873 -0.151,-2.385 -0.237,-3.494 -0.278,-3.63 -0.511,-6.99 -1.003,-10.218 -1.598,-1.178 -3.609,-2.231 -5.975,-2.956 -2.199,-0.673 -6.553,-1.678 -8.441,-0.995 -2.496,0.905 -4.658,1.941 -7.174,4.084 -1.292,1.101 -5.137,4.384 -5.602,5.976 -0.326,1.115 -0.126,2.778 -0.069,4.035 0.174,3.957 0.67,7.395 1.526,10.802 4.922,1.123 9.428,2.623 13.848,4.199 2.868,-2.895 6.34,-5.893 9.773,-8.544 z m -32.722,-10.749 c -1.589,2.714 -3.619,6.365 -4.73,10.615 -1.374,5.261 -2.304,13.304 0.24,16.863 1.957,0.593 4.961,0.883 6.944,0.36 1.055,-5.391 3.557,-9.174 6.233,-12.768 -1.357,-4.204 -1.597,-9.416 -1.597,-14.843 -2.23,-0.64 -4.953,-0.757 -7.09,-0.227 z m 55.906,9.447 c -0.735,1.017 -3.456,3.935 -3.606,5.104 -0.114,0.891 0.658,2.81 0.91,3.946 0.925,4.171 1.646,8.236 1.689,13.039 3.254,1.39 6.316,2.955 9.229,4.655 1.555,-1.245 3.064,-3.067 4.302,-5.067 1.001,-1.622 2.622,-4.631 2.983,-6.528 0.541,-2.844 -0.232,-6.169 -0.796,-8.816 -0.572,-2.688 -1.515,-5.227 -2.256,-7.496 -2.31,-1.935 -5.151,-3.391 -8.547,-4.344 -1.224,1.678 -2.339,3.338 -3.908,5.507 z m -29.765,7.368 c -0.968,0.872 -2.65,2.3 -2.812,3.195 -0.186,1.041 0.451,2.703 0.632,3.933 0.623,4.233 1.238,8.216 2.019,12.08 4.601,2.517 9.837,4.461 15.71,5.829 3.709,-2.011 6.707,-4.72 9.863,-7.566 0.982,-0.885 2.543,-1.987 2.805,-3.055 0.299,-1.222 -0.043,-3.205 -0.179,-4.606 -0.431,-4.418 -1.534,-8.398 -2.437,-12.103 -4.732,-2.308 -9.574,-4.52 -15.432,-5.813 -3.142,2.468 -6.907,5.166 -10.169,8.106 z m 45.646,8.634 c -1.197,3.087 -3.163,6.581 -5.06,8.93 -0.677,0.835 -1.821,1.478 -2.206,2.252 -0.541,1.086 -0.5,2.585 -0.89,3.714 -0.796,2.312 -1.926,4.453 -2.977,6.39 -0.419,0.771 -1.726,1.897 -0.706,2.889 1.06,-0.027 1.676,-1.112 2.322,-1.828 0.715,-0.798 1.41,-1.667 2.081,-2.539 3.858,-5.014 7.707,-11.732 7.85,-19.783 -0.138,-0.01 -0.275,-0.017 -0.414,-0.025 z m -76.314,2.723 c 0.151,1.005 -0.167,2.71 0.069,4.043 0.623,3.504 3.15,7.936 5.278,10.997 1.145,1.646 2.215,3.045 3.657,4.645 2.491,2.764 4.831,5.191 9.929,4.556 -0.988,-2.86 -2.411,-6.476 -2.222,-10.84 -4.291,-3.5 -7.576,-7.909 -9.9,-13.187 -1.847,0.354 -4.796,0.087 -6.811,-0.214 z m 17.134,13.284 c 0.042,4.375 1.005,7.921 2.494,10.991 3.827,2.244 9.378,5.875 15.573,5.821 2.384,-0.021 5.165,-0.759 7.467,-1.701 1.631,-0.666 5.154,-2.292 5.496,-3.893 0.312,-1.467 -0.665,-3.644 -0.984,-5.204 -0.385,-1.885 -0.605,-3.589 -1.121,-5.211 -6.108,-1.246 -11.188,-3.42 -15.99,-5.843 -4.082,1.936 -8.378,3.633 -12.935,5.04 z m 44.398,11.216 c 1.239,-0.91 3.604,-2.496 1.839,-3.245 -3.719,2.533 -8.541,3.84 -14.674,3.693 -3.224,3.426 -8.018,5.108 -13.672,5.836 0.132,0.411 0.075,0.991 0.206,1.402 10.787,0.616 19.776,-2.891 26.301,-7.686 z" id="path172" style="fill-rule:evenodd;stroke:#231f20;stroke-width:3"/>
		<path clip-rule="evenodd" d="m 337.851,257.434 c -0.034,2.074 0.056,4.128 -0.45,5.965 -5.306,0.135 -10.152,0.779 -14.053,2.473 -3.537,-2.458 -8.157,-3.943 -13.978,-4.345 0.015,-1.956 0.144,-4.014 0.024,-5.849 7.561,-3.18 21.559,-2.36 28.457,1.756 z" id="path174" style="fill:#ffffff;fill-rule:evenodd;stroke:#231f20;stroke-width:3"/>
		<path clip-rule="evenodd" d="m 338.53,257.748 c 9.202,4.238 15.364,11.218 19.283,20.218 -0.292,0.705 -0.827,1.142 -1.205,1.747 -2.489,-1.727 -5.325,-3.145 -8.557,-4.202 -2.98,-4.331 -5.784,-8.819 -10.103,-11.944 0.241,-1.889 0.566,-3.683 0.582,-5.819 z" id="path176" style="fill:#ffffff;fill-rule:evenodd;stroke:#231f20;stroke-width:3"/>
		<path clip-rule="evenodd" d="m 311.021,291.411 c -4.42,-1.576 -8.926,-3.076 -13.848,-4.199 -0.855,-3.407 -1.352,-6.845 -1.526,-10.802 -0.058,-1.257 -0.257,-2.92 0.069,-4.035 0.465,-1.592 4.31,-4.875 5.602,-5.976 2.516,-2.143 4.678,-3.179 7.174,-4.084 1.889,-0.683 6.242,0.322 8.441,0.995 2.365,0.725 4.377,1.778 5.975,2.956 0.492,3.228 0.725,6.588 1.003,10.218 0.086,1.109 0.448,2.621 0.237,3.494 -0.266,1.095 -2.271,2.054 -3.354,2.889 -3.433,2.651 -6.905,5.649 -9.773,8.544 z" id="path178" style="fill:#ffffff;fill-rule:evenodd;stroke:#231f20;stroke-width:3"/>
		<path clip-rule="evenodd" d="m 295.162,272.347 c 0,5.427 0.239,10.639 1.597,14.843 -2.676,3.594 -5.178,7.377 -6.233,12.768 -1.982,0.522 -4.987,0.232 -6.944,-0.36 -2.544,-3.56 -1.614,-11.603 -0.24,-16.863 1.112,-4.25 3.142,-7.901 4.73,-10.615 2.137,-0.532 4.86,-0.415 7.09,0.227 z" id="path180" style="fill:#ffffff;fill-rule:evenodd;stroke:#231f20;stroke-width:3"/>
		<path clip-rule="evenodd" d="m 347.886,276.058 c 3.396,0.953 6.237,2.409 8.547,4.344 0.741,2.27 1.684,4.808 2.256,7.496 0.563,2.647 1.337,5.973 0.796,8.816 -0.361,1.897 -1.982,4.906 -2.983,6.528 -1.237,2 -2.747,3.822 -4.302,5.067 -2.912,-1.7 -5.975,-3.266 -9.229,-4.655 -0.043,-4.803 -0.765,-8.868 -1.689,-13.039 -0.252,-1.137 -1.024,-3.056 -0.91,-3.946 0.15,-1.169 2.871,-4.087 3.606,-5.104 1.569,-2.169 2.684,-3.829 3.908,-5.507 z" id="path182" style="fill:#ffffff;fill-rule:evenodd;stroke:#231f20;stroke-width:3"/>
		<path clip-rule="evenodd" d="m 324.383,280.827 c 5.857,1.293 10.699,3.505 15.432,5.813 0.902,3.704 2.006,7.685 2.437,12.103 0.136,1.401 0.478,3.385 0.179,4.606 -0.262,1.067 -1.822,2.17 -2.805,3.055 -3.156,2.847 -6.154,5.556 -9.863,7.566 -5.873,-1.368 -11.109,-3.313 -15.71,-5.829 -0.78,-3.864 -1.396,-7.847 -2.019,-12.08 -0.181,-1.229 -0.817,-2.892 -0.632,-3.933 0.161,-0.896 1.844,-2.323 2.812,-3.195 3.261,-2.94 7.026,-5.638 10.169,-8.106 z" id="path184" style="fill:#ffffff;fill-rule:evenodd;stroke:#231f20;stroke-width:3"/>
		<path clip-rule="evenodd" d="m 360.274,297.591 c -0.143,8.051 -3.991,14.77 -7.85,19.783 -0.671,0.872 -1.366,1.741 -2.081,2.539 -0.646,0.716 -1.263,1.801 -2.322,1.828 -1.02,-0.991 0.287,-2.117 0.706,-2.889 1.051,-1.937 2.181,-4.078 2.977,-6.39 0.39,-1.129 0.349,-2.628 0.89,-3.714 0.385,-0.774 1.529,-1.417 2.206,-2.252 1.896,-2.349 3.862,-5.843 5.06,-8.93 0.138,0.009 0.275,0.016 0.414,0.025 z" id="path186" style="fill:#ffffff;fill-rule:evenodd;stroke:#231f20;stroke-width:3"/>
		<path clip-rule="evenodd" d="m 290.356,300.504 c 2.324,5.277 5.609,9.687 9.9,13.187 -0.189,4.364 1.233,7.979 2.222,10.84 -5.098,0.636 -7.438,-1.792 -9.929,-4.556 -1.441,-1.6 -2.512,-2.999 -3.657,-4.645 -2.128,-3.062 -4.656,-7.493 -5.278,-10.997 -0.236,-1.333 0.083,-3.038 -0.069,-4.043 2.015,0.301 4.964,0.568 6.811,0.214 z" id="path188" style="fill:#ffffff;fill-rule:evenodd;stroke:#231f20;stroke-width:3"/>
		<path clip-rule="evenodd" d="m 313.613,308.535 c 4.803,2.423 9.882,4.597 15.99,5.843 0.516,1.622 0.736,3.326 1.121,5.211 0.319,1.561 1.296,3.737 0.984,5.204 -0.342,1.601 -3.865,3.227 -5.496,3.893 -2.302,0.942 -5.083,1.681 -7.467,1.701 -6.195,0.054 -11.746,-3.577 -15.573,-5.821 -1.489,-3.07 -2.452,-6.616 -2.494,-10.991 4.558,-1.408 8.854,-3.105 12.935,-5.04 z" id="path190" style="fill:#ffffff;fill-rule:evenodd;stroke:#231f20;stroke-width:3"/>
		<path clip-rule="evenodd" d="m 318.776,332.477 c -0.131,-0.411 -0.074,-0.991 -0.206,-1.402 5.654,-0.728 10.448,-2.41 13.672,-5.836 6.133,0.146 10.955,-1.16 14.674,-3.693 1.766,0.749 -0.6,2.335 -1.839,3.245 -6.525,4.794 -15.514,8.301 -26.301,7.686 z" id="path192" style="fill:#ffffff;fill-rule:evenodd;stroke:#231f20;stroke-width:3"/>
	</g>
	<path d="m 171.515,342.451 c -32.743,46.512 -45.844,49.234 -45.844,49.234 l 20.142,-3.116 25.702,-46.118 z" id="path194" style="fill:#010101;stroke:#231f20;stroke-width:5"/>
	<g id="g196">
		<path d="m -41.994,365.203 c 2.754,1.447 1.729,6.342 0.097,8.098 -7.112,7.652 -11.605,-2.033 -17.103,-0.358 -6.146,1.872 -10.967,3.075 -14.442,2.61 -3.475,-0.465 -12.53,-3.29 -12.53,-3.29 0,0 -2.005,-10.398 6.698,-10.426 10.731,-0.034 17.715,-4.64 17.715,-4.64 l 19.706,6.946" id="path198" style="fill:#010101;stroke:#010101;stroke-width:3"/>
		<linearGradient id="SVGID_6_" gradientUnits="userSpaceOnUse" x1="-48.972198" y1="349.23239" x2="-34.118198" y2="349.23239">
			<stop offset="0" style="stop-color: rgb(227, 195, 167);" id="stop201"/>
			<stop offset="1" style="stop-color: rgb(214, 165, 120);" id="stop203"/>
		</linearGradient>
		<path d="m -34.118,361.404 c -8.962,-2.413 -13.958,-4.318 -14.567,-7.877 -1.988,-11.586 6.979,-13.513 7.987,-15.643 2.875,-6.082 6.58,23.52 6.58,23.52 z" id="path205" style="fill:url(#SVGID_6_);stroke:#231f20;stroke-width:5"/>
		<linearGradient id="SVGID_7_" gradientUnits="userSpaceOnUse" x1="-43.126999" y1="415.48291" x2="-25.9526" y2="415.48291">
			<stop offset="0" style="stop-color: rgb(227, 195, 167);" id="stop208"/>
			<stop offset="1" style="stop-color: rgb(214, 165, 120);" id="stop210"/>
		</linearGradient>
		<path d="m -28.355,400.985 c -4.451,0.213 -14.74,7.732 -14.772,14.601 -0.034,6.869 7.329,15.585 7.329,15.585 l 9.846,-0.755 c 0,0 -5.776,-1.984 -7.045,-9.028 -1.269,-7.041 4.802,-21.593 4.802,-21.593" id="path212" style="fill:url(#SVGID_7_);stroke:#231f20;stroke-width:5"/>
		<path d="m -33.969,362.503 c -10.438,-5.708 -13.937,-14.803 -13.653,-16.92 0.282,-2.117 -0.993,7.415 -5.473,10.051 -4.478,2.634 -8.108,0.537 -6.711,6.109 1.539,6.137 10.803,7.376 13.699,7.764 2.897,0.387 3.83,-2.185 4.113,-4.304 0.284,-2.118 8.025,-2.7 8.025,-2.7 z" id="path214" style="fill:#ffffff;stroke:#010101;stroke-width:3"/>
		<linearGradient id="SVGID_8_" gradientUnits="userSpaceOnUse" x1="19.443399" y1="338.8916" x2="228.0674" y2="338.8916">
			<stop offset="0" style="stop-color: rgb(255, 193, 21);" id="stop217"/>
			<stop offset="1" style="stop-color: rgb(252, 238, 33);" id="stop219"/>
		</linearGradient>
		<path d="m 124.333,386.628 c 0,0 44.362,25.335 54.354,26.671 9.989,1.337 28.784,6.274 20.965,5.229 -7.817,-1.045 -12.356,-22.563 3.825,-28.599 11.166,-4.167 23.626,5.179 24.581,-1.969 0.955,-7.15 -63.858,-28.348 -63.858,-28.348 0,0 5.916,-17.805 -0.947,-26 -4.853,-5.796 -14.682,-9.239 -22.5,-10.285 0,0 -8.773,6.105 -16.593,5.061 -7.818,-1.046 -11.386,-8.967 -11.386,-8.967 l -8.246,-22.768 8.773,-6.104 9.73,-13.255 c 0,0 9.73,-13.254 -13.726,-16.388 -23.457,-3.137 -63.506,-1.213 -63.506,-1.213 l -25.368,11.163 c 0,0 0,0 -0.955,7.15 -0.956,7.148 19.634,31.732 19.634,31.732 l 18.504,-19.358 15.638,2.091 -0.956,7.149 -26.322,18.314 c 0,0 -7.038,6.335 -8.862,13.367 -1.824,7.032 -8.427,18.777 -4.691,28.484 5.907,15.343 26.496,39.925 26.496,39.925 l 15.638,2.092 16.593,-5.06 16.593,-5.06 8.774,-6.104 7.818,1.05 z" id="path221" style="fill:url(#SVGID_8_);stroke:#010101;stroke-width:6"/>
		<path d="m 44.446,316.115 c 0,0 -18.127,0.002 -24.251,2.822 -6.125,2.818 -15.245,1.599 -16.603,1.821 -1.358,0.225 -13.074,1.891 -11.825,2.463 0,0 -6.282,-2.964 -8.36,-2.133 0,0 -4.79,-2.996 -7.067,-2.494 -2.278,0.507 -11.778,-0.221 -14.897,9.873 -3.119,10.094 0.131,25.487 2.746,29.069 2.616,3.586 8.948,15.751 8.948,15.751 l 3.475,0.465 5.15,-2.14 8.094,2.293 0.231,4.884 -7.095,1.741 c 0,0 -7.707,2.888 -11.639,12.47 -3.934,9.582 -2.758,9.677 -4.935,20.626 -0.809,4.067 2.693,15.671 9.091,18.449 8.08,3.505 24.673,-4.547 29.929,-7.483 5.256,-2.936 10.305,4.845 22.446,0 12.145,-4.846 24.705,-17.235 24.705,-17.235 l 7.418,-5.881 c 0,0 -16.607,-17.985 -20.821,-29.465 -4.213,-11.479 -7.761,-18.019 -6.22,-29.536 1.54,-11.519 13.007,-24.538 13.007,-24.538 l -1.527,-1.822 z" id="path223" style="fill:#010101;stroke:#010101;stroke-width:3"/>
		<path d="m 115.911,383.481 c -1.641,-4.263 -1.333,-9.883 -1.333,-9.883 0,0 -44.995,-0.759 -53.374,-7.538 -8.378,-6.781 -17.351,-12.428 -17.351,-12.428 0,0 21.333,19.024 32.625,20.534 11.295,1.511 -3.784,5.154 -9.704,3.148 -5.924,-2.004 -17.501,-7.998 -17.501,-7.998 l -11.419,-7.188 c 0,0 17.409,31.841 23.17,35.036 5.762,3.196 12.438,2.875 15.637,2.09 3.201,-0.784 27.549,-7.636 27.549,-7.636 l 11.701,-8.137 z" id="path225" style="fill:#979937"/>
		<path d="m 152.23,349.93 c -7.819,-1.047 -23.163,4.584 -25.928,5.427 -2.765,0.843 -9.243,12.915 -9.243,12.915 L 152.23,349.93 z" id="path227" style="fill:#c9ca2d"/>
		<path d="m 38.454,308.037 c 0.531,-3.974 3.975,-13.215 9.889,-14.446 5.91,-1.23 20.999,-1.639 22.905,0.637 1.908,2.277 7.201,12.283 7.201,12.283 0,0 -27.632,-1.673 -28.153,5.535 -0.521,7.206 -11.842,-4.009 -11.842,-4.009 z" id="path229" style="fill:#c9ca2d;stroke:#010101;stroke-width:3"/>
		<linearGradient id="SVGID_9_" gradientUnits="userSpaceOnUse" x1="48.963402" y1="338.5459" x2="124.0513" y2="338.5459">
			<stop offset="0" style="stop-color: rgb(192, 40, 45);" id="stop232"/>
			<stop offset="1" style="stop-color: rgb(235, 34, 39);" id="stop234"/>
		</linearGradient>
		<path d="m 49.935,318.061 c 0,0 -2.904,-6.746 1.327,-9.93 6.39,-4.806 27.187,-1.62 27.187,-1.62 l 8.875,9.676 c 0,0 16.135,4.987 20.647,7.612 4.512,2.623 9.966,11.437 11.394,17.289 1.429,5.852 6.493,10.977 4.011,16.304 -2.481,5.327 -4.792,12.7 -10.981,12.683 -6.186,-0.021 -10.529,-0.6 -10.529,-0.6 l -5.151,2.142 -10.541,-3.835 -6.622,-0.077 -3.857,-0.921 -8.315,-3.94 c 0,0 -0.985,-2.558 -3.717,-8.582 -2.731,-6.025 -1.033,-18.735 0.535,-20.548 1.572,-1.812 -14.263,-15.653 -14.263,-15.653 z" id="path236" style="fill:url(#SVGID_9_);stroke:#010101;stroke-width:3"/>
		<path d="m 84.178,316.575 c -6.242,0.378 -22.156,-0.503 -19.803,2.608 2.353,3.113 3.432,5.66 9.797,9.396 6.364,3.734 36.637,0.45 35.388,-0.12 -1.25,-0.573 0.699,-1.929 -8.103,-5.533 -8.804,-3.602 -17.279,-6.351 -17.279,-6.351 z" id="path238" style="fill:#981e20;stroke:#010101;stroke-width:3"/>
		<path d="m 103.16,366.412 c 3.041,0.408 8.094,2.296 10.095,0.541 2.005,-1.753 7.242,-11.158 7.242,-11.158 0,0 -7.693,4.631 -10.078,5.929 -2.385,1.298 -7.259,4.688 -7.259,4.688 z" id="path240" style="fill:#981e20;stroke:#010101;stroke-width:3"/>
		<path d="m 87.468,364.72 c 14.947,7.252 22.647,-13.952 20.208,-12.257 -2.437,1.695 -20.208,12.257 -20.208,12.257 z" id="path242" style="fill:#981e20;stroke:#010101;stroke-width:3"/>
		<path d="m 197.809,419.089 c -11.236,-18.482 2.53,-25.536 6.97,-28.984 4.44,-3.45 24.792,-3.56 24.792,-3.56 0,0 -13.656,6.261 -16.51,14.367 -2.852,8.109 0.268,13.211 5.48,13.908 5.211,0.696 9.993,5.951 9.993,5.951 0,0 -7.799,5.426 -14.748,4.496 -6.953,-0.928 -15.977,-6.178 -15.977,-6.178 z" id="path244" style="fill:#010101;stroke:#010101;stroke-width:3"/>
		<path d="m 64.071,271.841 c 3.929,6.994 7.051,16.709 6.84,18.298 -0.214,1.59 3.301,-21.39 3.301,-21.39 l -4.166,4.699 -5.975,-1.607 z" id="path246" style="fill:#c9ca2d"/>
		<linearGradient id="SVGID_10_" gradientUnits="userSpaceOnUse" x1="212.2334" y1="388.60739" x2="288.80811" y2="388.60739">
			<stop offset="0" style="stop-color: rgb(192, 40, 45);" id="stop249"/>
			<stop offset="1" style="stop-color: rgb(235, 34, 39);" id="stop251"/>
		</linearGradient>
		<path d="m 226.681,418.098 c -10.976,-3.893 -15.107,-6.063 -14.364,-11.622 0.743,-5.563 1.645,-12.314 10.05,-15.637 8.4,-3.324 12.638,-1.949 16.432,-3.867 3.794,-1.919 7.346,-11.957 7.771,-15.134 0.426,-3.178 0.884,-13.224 9.073,-14.96 8.19,-1.734 20.183,-2.152 24.325,3.251 4.142,5.406 11.013,16.838 8.169,28.182 -2.842,11.344 -10.061,28.978 -21.019,31.555 -10.954,2.577 -28.491,1.447 -31.964,0.983 -3.475,-0.467 -8.473,-2.751 -8.473,-2.751 z" id="path253" style="fill:url(#SVGID_10_);stroke:#010101;stroke-width:3"/>
		<path d="m -40.381,407.207 c -17.106,0.777 -21.053,15.23 -30.309,18.306 -9.253,3.076 -16.64,1.011 -18.659,2.897 -2.021,1.886 -7.999,11.328 -5.021,15.499 2.979,4.172 6.879,1.46 16.429,0.58 10.676,-0.981 36.272,-5.051 42.228,-11.998 2.494,-2.909 -3.699,-2.797 -5.747,-9.539 -0.957,-3.153 1.079,-15.745 1.079,-15.745 z" id="path255" style="fill:#ffffff;stroke:#010101;stroke-width:3"/>
		<path d="m -10.551,376.952 c 9.717,6.691 23.913,10.743 23.913,10.743 l -5.128,3.089 -18.785,-13.832 z" id="path257" style="fill:#979797;stroke:#010101;stroke-width:3"/>
	</g>
	<path d="m 247.782,384.999 c -3.705,1.867 -16.191,10.491 -16.757,13.819 -0.566,3.329 4.202,5.803 8.045,5.413 9.621,-0.976 12.417,-21.1 8.712,-19.232 z" id="path259" style="fill:#981e20;stroke:#010101;stroke-width:3"/>
	<path d="m 284.498,384.688 c -2.143,-1.199 -25.6,6.42 -25.6,6.42 0,0 -5.358,23.031 -11.256,24.391 -5.897,1.358 17.079,4.86 24.109,-2.267 7.029,-7.127 14.889,-27.343 12.747,-28.544 z" id="path261" style="fill:#981e20;stroke:#010101;stroke-width:3"/>
	<path d="m 123.96,290.599 c -8.903,6.188 -17.026,12.981 -17.026,12.981 0,0 0.98,5.185 2.833,9.582 1.983,4.707 6.326,6.434 6.326,6.434 0,0 -1.229,-8.391 0.194,-14.421 1.422,-6.03 7.673,-14.576 7.673,-14.576 z" id="path263" style="fill:#f8983a"/>
	<path d="m 167.613,353.487 c 0.354,0.567 0.76,1.122 1.198,1.659 2.881,3.535 7.131,6.265 7.131,6.265 l 5.854,-0.527 3.079,-3.171 -17.262,-4.226 z" id="path265" style="fill:#983820;stroke:#231f20;stroke-width:2"/>
	<g id="g267">
		<g id="g269">
			<linearGradient id="SVGID_11_" gradientUnits="userSpaceOnUse" x1="182.7769" y1="287.0498" x2="227.89841" y2="287.0498">
				<stop offset="0.3581" style="stop-color: rgb(111, 85, 59);" id="stop272"/>
				<stop offset="1" style="stop-color: rgb(227, 195, 167);" id="stop274"/>
			</linearGradient>
			<path clip-rule="evenodd" d="m 184.577,276.581 c 18.134,3.894 20.947,3.471 28.964,-0.609 8.019,-4.081 17.515,1.685 13.338,8.354 -4.177,6.668 -20.605,16.04 -29.666,15.099 -9.06,-0.941 -14.437,-21.424 -14.437,-21.424" id="path276" style="fill:url(#SVGID_11_);fill-rule:evenodd;stroke:#231f20;stroke-width:4"/>
			<path clip-rule="evenodd" d="m 211.18,339.761 c -2.004,4.212 -4.904,11.176 -6.768,13.001 -1.862,1.826 -7.939,1.978 -9.66,1.418 -1.72,-0.561 -6.113,-1.686 -6.113,-1.686 l 22.541,-12.733 z" id="path278" style="fill:#f8983a;fill-rule:evenodd;stroke:#231f20;stroke-width:4"/>
			<linearGradient id="SVGID_12_" gradientUnits="userSpaceOnUse" x1="51.352501" y1="305.5723" x2="213.06841" y2="305.5723">
				<stop offset="0" style="stop-color: rgb(227, 195, 167);" id="stop281"/>
				<stop offset="1" style="stop-color: rgb(214, 165, 120);" id="stop283"/>
			</linearGradient>
			<path clip-rule="evenodd" d="m 117.282,290.138 c 0.009,1.341 -14.479,9.862 -12.575,13.604 7.062,13.874 7.35,14.723 13.311,18.866 4.61,3.204 7.943,4.535 15.818,4.025 2.962,-0.193 9.118,0.416 10.798,4.85 2.939,7.758 25.039,22.42 30.172,23.087 6.846,0.89 17.293,-1.062 23.979,-3.79 6.687,-2.731 12.398,-10.686 13.85,-13.779 1.453,-3.095 -1.155,-11.526 -1.972,-13.131 -0.814,-1.602 -6.621,-7.06 -10.945,-11.589 -4.324,-4.53 -7.418,-5.982 -7.428,-7.324 -0.01,-1.34 4.209,-11.563 4.331,-13.307 0.122,-1.744 -3.95,-8.423 -4.644,-11.771 -0.695,-3.349 -11.612,-10.914 -20.626,-14.739 0,0 -16.805,-5.914 -20.033,-6.964 -3.225,-1.05 -15.98,-2.972 -24.684,-0.897 -8.702,2.073 -14.149,9.22 -19.373,10.197 -5.225,0.976 -7.522,-1.556 -11.253,1.688 -3.731,3.247 -12.449,3.31 -19.286,3.76 -2.244,0.149 -22.325,0.763 -22.325,0.763 0,0 -5.838,-0.562 -1.349,8.259 4.488,8.819 8.541,12.813 22.438,15.33 13.9,2.516 26.808,9.812 33.986,-1.651 1.395,-2.224 7.81,-5.487 7.81,-5.487 l 5.147,-2.116" id="path285" style="fill:url(#SVGID_12_);fill-rule:evenodd;stroke:#231f20;stroke-width:5"/>
			<path clip-rule="evenodd" d="M 128.674,335.99" id="path287" style="fill:#ffcc68;fill-rule:evenodd;stroke:#231f20;stroke-width:4"/>
			<path clip-rule="evenodd" d="m 189.688,301.992 c -2.041,-4.009 -1.576,-9.543 -1.183,-10.754 0.395,-1.21 1.386,-3.229 3.102,-2.335 1.716,0.892 1.522,1.833 1.949,5.316 0.471,3.841 -1.879,9.201 -1.879,9.201 l -1.989,-1.428 z" id="path289" style="fill:#ffffff;fill-rule:evenodd;stroke:#231f20;stroke-width:4"/>
			<path clip-rule="evenodd" d="m 146.021,286.109 c 3.699,-3.145 6.098,-5.374 11.732,-5.213 5.633,0.161 8.454,0.743 9.67,2.143 1.217,1.4 -4.364,-5.433 -9.667,-6.267 -6.425,-1.011 -8.064,2.171 -9.766,3.288 -1.704,1.119 -1.969,6.049 -1.969,6.049 z" id="path291" style="fill:#4c3217;fill-rule:evenodd"/>
			<path clip-rule="evenodd" d="m 186.767,287.328 c 0.886,-2.723 1.794,-2.428 4.818,-1.443 3.025,0.985 4.445,2.785 4.445,2.785 0,0 -3.559,-6.151 -4.974,-6.301 -3.556,-0.379 -4.289,4.959 -4.289,4.959 z" id="path293" style="fill:#4c3217;fill-rule:evenodd"/>
			<path clip-rule="evenodd" d="m 189.356,297.871 c 0.091,-1.308 0.577,-3.827 1.892,-2.729 1.316,1.098 1.949,5.317 1.949,5.317 0,0 -0.441,3.759 -1.521,2.962 -1.967,-1.456 -2.32,-5.55 -2.32,-5.55 z" id="path295" style="fill:#010101;fill-rule:evenodd;stroke:#231f20;stroke-width:4"/>
			<path clip-rule="evenodd" d="m 199.783,321.333 10.881,2.537 c 0,0 -18.561,-16.966 -22.692,-22.771 -3.803,-5.342 -7.746,-14.228 -7.746,-14.228 0,0 -4.847,-2.581 -5.747,-1.87 -0.9,0.71 0.958,7.337 4.117,13.047 3.158,5.712 16.742,20.501 16.742,20.501 l 4.445,2.784 z" id="path297" style="fill:#b68d62;fill-rule:evenodd"/>
			
				<ellipse transform="matrix(-0.9506, -0.3103, 0.3103, -0.9506, 280.425, 635.242)" clip-rule="evenodd" cx="190.74699" cy="295.31299" rx="0.84799999" ry="1.484" id="ellipse299" d="m 191.59499,295.31299 c 0,0.81959 -0.37966,1.484 -0.848,1.484 -0.46833,0 -0.848,-0.66441 -0.848,-1.484 0,-0.81959 0.37967,-1.484 0.848,-1.484 0.46834,0 0.848,0.66441 0.848,1.484 z" sodipodi:cx="190.74699" sodipodi:cy="295.31299" sodipodi:rx="0.84799999" sodipodi:ry="1.484" style="fill:#ffffff;fill-rule:evenodd"/>
			<path clip-rule="evenodd" d="m 130.662,266.84 c -0.209,0.152 -0.415,0.302 -0.62,0.45 -9.52,6.898 -14.117,9.314 -13.438,12.593 0.696,3.347 4.31,2.517 5.825,8.139 1.516,5.621 -1.762,-2.803 0.62,-7.381 2.379,-4.576 8.512,-9.717 8.512,-9.717 l 6.608,-4.54 -7.507,0.456 z" id="path301" style="fill:#b68d62;fill-rule:evenodd"/>
			<path clip-rule="evenodd" d="m 206.265,346.299 c 0.984,-3.023 4.224,-9.552 4.224,-9.552 l -2.805,1.765 -1.419,7.787 z" id="path303" style="fill:#333333;fill-rule:evenodd"/>
			
				<ellipse transform="matrix(0.9509, 0.3095, -0.3095, 0.9509, 98.2187, -33.8574)" clip-rule="evenodd" cx="155.82401" cy="292.64499" rx="9.4359999" ry="9.118" id="ellipse305" d="m 165.26,292.64499 c 0,5.03573 -4.22464,9.118 -9.43599,9.118 -5.21136,0 -9.436,-4.08227 -9.436,-9.118 0,-5.03573 4.22464,-9.118 9.436,-9.118 5.21135,0 9.43599,4.08227 9.43599,9.118 z" sodipodi:cx="155.82401" sodipodi:cy="292.64499" sodipodi:rx="9.4359999" sodipodi:ry="9.118" style="fill:#98734d;fill-rule:evenodd"/>
			
				<ellipse transform="matrix(-0.9509, -0.3094, 0.3094, -0.9509, 217.519, 624.27)" clip-rule="evenodd" cx="158.261" cy="294.88699" rx="9.2670002" ry="9.1809998" id="ellipse307" d="m 167.528,294.88699 c 0,5.07053 -4.14898,9.181 -9.267,9.181 -5.11802,0 -9.267,-4.11047 -9.267,-9.181 0,-5.07052 4.14898,-9.181 9.267,-9.181 5.11802,0 9.267,4.11048 9.267,9.181 z" sodipodi:cx="158.261" sodipodi:cy="294.88699" sodipodi:rx="9.2670002" sodipodi:ry="9.1809998" style="fill:#ffffff;fill-rule:evenodd;stroke:#231f20;stroke-width:4"/>
			
				<ellipse transform="matrix(-0.9509, -0.3096, 0.3096, -0.9509, 221.504, 632.504)" clip-rule="evenodd" cx="160.93401" cy="298.67801" rx="4.4120002" ry="4.6960001" id="ellipse309" d="m 165.34601,298.67801 c 0,2.59353 -1.97532,4.696 -4.412,4.696 -2.43668,0 -4.412,-2.10247 -4.412,-4.696 0,-2.59353 1.97532,-4.696 4.412,-4.696 2.43668,0 4.412,2.10247 4.412,4.696 z" sodipodi:cx="160.93401" sodipodi:cy="298.67801" sodipodi:rx="4.4120002" sodipodi:ry="4.6960001" style="fill:#010101;fill-rule:evenodd;stroke:#231f20;stroke-width:4"/>
			<path clip-rule="evenodd" d="m 155.341,297.007 c -0.389,1.196 0.205,2.461 1.325,2.828 1.123,0.362 2.345,-0.311 2.734,-1.506 0.391,-1.196 -0.203,-2.462 -1.324,-2.827 -1.121,-0.365 -2.346,0.31 -2.735,1.505 z" id="path311" style="fill:#ffffff;fill-rule:evenodd"/>
			<path clip-rule="evenodd" d="m 57.044,277.893 c 3.49,9.833 2.28,9.438 9.539,11.802 7.259,2.361 -9.539,-11.802 -9.539,-11.802 z" id="path313" style="fill:#b68d62;fill-rule:evenodd"/>
			
				<ellipse transform="matrix(-0.9508, -0.3098, 0.3098, -0.9508, 248.414, 729.139)" clip-rule="evenodd" cx="182.09801" cy="344.84698" rx="2.5439999" ry="2.066" id="ellipse315" d="m 184.64201,344.84698 c 0,1.14103 -1.13899,2.066 -2.544,2.066 -1.40502,0 -2.544,-0.92497 -2.544,-2.066 0,-1.14102 1.13898,-2.066 2.544,-2.066 1.40501,0 2.544,0.92498 2.544,2.066 z" sodipodi:cx="182.09801" sodipodi:cy="344.84698" sodipodi:rx="2.5439999" sodipodi:ry="2.066" style="fill:#967348;fill-rule:evenodd;stroke:#231f20;stroke-width:2"/>
			
				<ellipse transform="matrix(-0.9509, -0.3095, 0.3095, -0.9509, 224.559, 722.878)" clip-rule="evenodd" cx="169.616" cy="343.62701" rx="3.0209999" ry="1.909" id="ellipse317" d="m 172.637,343.62701 c 0,1.05432 -1.35255,1.909 -3.021,1.909 -1.66845,0 -3.021,-0.85468 -3.021,-1.909 0,-1.05431 1.35255,-1.909 3.021,-1.909 1.66845,0 3.021,0.85469 3.021,1.909 z" sodipodi:cx="169.616" sodipodi:cy="343.62701" sodipodi:rx="3.0209999" sodipodi:ry="1.909" style="fill:#967348;fill-rule:evenodd;stroke:#231f20;stroke-width:2"/>
			
				<ellipse transform="matrix(-0.9509, -0.3095, 0.3095, -0.9509, 236.585, 711.038)" clip-rule="evenodd" cx="174.69701" cy="336.75101" rx="2.5450001" ry="2.0680001" id="ellipse319" d="m 177.24201,336.75101 c 0,1.14212 -1.13944,2.068 -2.545,2.068 -1.40557,0 -2.545,-0.92588 -2.545,-2.068 0,-1.14213 1.13943,-2.068 2.545,-2.068 1.40556,0 2.545,0.92587 2.545,2.068 z" sodipodi:cx="174.69701" sodipodi:cy="336.75101" sodipodi:rx="2.5450001" sodipodi:ry="2.0680001" style="fill:#967348;fill-rule:evenodd;stroke:#231f20;stroke-width:2"/>
			
				<ellipse transform="matrix(-0.9509, -0.3094, 0.3094, -0.9509, 210.255, 707.439)" clip-rule="evenodd" cx="161.22" cy="337.048" rx="2.227" ry="1.75" id="ellipse321" d="m 163.447,337.048 c 0,0.9665 -0.99706,1.75 -2.227,1.75 -1.22994,0 -2.227,-0.7835 -2.227,-1.75 0,-0.96649 0.99706,-1.75 2.227,-1.75 1.22994,0 2.227,0.78351 2.227,1.75 z" sodipodi:cx="161.22" sodipodi:cy="337.048" sodipodi:rx="2.227" sodipodi:ry="1.75" style="fill:#967348;fill-rule:evenodd;stroke:#231f20;stroke-width:2"/>
		</g>
		<linearGradient id="SVGID_13_" gradientUnits="userSpaceOnUse" x1="151.2607" y1="353.81149" x2="196.47951" y2="353.81149">
			<stop offset="0" style="stop-color: rgb(111, 85, 59);" id="stop324"/>
			<stop offset="0.7173" style="stop-color: rgb(227, 195, 167);" id="stop326"/>
		</linearGradient>
		<path d="m 151.261,339.735 c 1.645,8.409 14.372,25.165 21.452,27.752 7.081,2.587 19.299,-8.09 23.235,-11.77 3.265,-3.052 -9.552,-0.563 -9.552,-0.563 0,0 -5.593,0.82 -9.467,0.619 -3.876,-0.2 -25.668,-16.038 -25.668,-16.038 z" id="path328" style="fill:url(#SVGID_13_);stroke:#231f20;stroke-width:4"/>
	</g>
	
		<ellipse transform="matrix(0.9987, 0.0518, -0.0518, 0.9987, 25.3271, -14.9934)" clip-rule="evenodd" cx="301.69501" cy="480.73999" rx="31.591999" ry="7.8979998" id="ellipse330" d="m 333.28701,480.73999 c 0,4.36195 -14.14422,7.898 -31.592,7.898 -17.44778,0 -31.592,-3.53605 -31.592,-7.898 0,-4.36194 14.14422,-7.898 31.592,-7.898 17.44778,0 31.592,3.53606 31.592,7.898 z" sodipodi:cx="301.69501" sodipodi:cy="480.73999" sodipodi:rx="31.591999" sodipodi:ry="7.8979998" style="fill:#010101;fill-rule:evenodd;stroke:#010101;stroke-width:3"/>
	<polygon points="-72.295,375.959 -77.698,375.543 -76.452,378.037 " id="polygon332" style="fill:#010101"/>
	<path d="m -117.603,444.13 c 2.91,9.145 2.91,9.145 2.91,9.145 l 4.987,-2.078 -2.494,-9.561 -5.403,2.494 z" id="path334" style="fill:#ffffff"/>
	<polygon points="22.065,341.457 23.311,365.982 35.782,384.688 19.987,368.062 " id="polygon336" style="fill:#403f3e"/>
	<path d="M 26.222,381.362 C 19.987,368.061 15.83,350.186 15.83,350.186 l 0.415,11.223 2.494,7.483 7.483,12.47 z" id="path338" style="fill:#403f3e"/>
	<path clip-rule="evenodd" d="m 204.133,345.477 c 0,0 4.244,-7.4 1.205,-10.229 -1.545,-1.438 -1.121,-1.788 -2.174,-3.039 -1.665,-1.975 -5.317,-1.005 -5.317,-1.005 0,0 -4.027,4.886 -0.352,5.543 2.76,0.494 4.559,-3.326 5.669,1.278 0.521,2.163 0.969,7.452 0.969,7.452 z" id="path340" style="fill:#5f4443;fill-rule:evenodd"/>
	<linearGradient id="SVGID_14_" gradientUnits="userSpaceOnUse" x1="204.7964" y1="347.0127" x2="202.19099" y2="317.23291">
		<stop offset="0" style="stop-color: rgb(37, 37, 37);" id="stop343"/>
		<stop offset="1" style="stop-color: rgb(0, 0, 0);" id="stop345"/>
	</linearGradient>
	<path clip-rule="evenodd" d="m 197.621,317.764 c 2.77,-0.832 10.115,-0.138 16.568,3.956 4.45,2.822 5.263,3.915 5.324,5.604 0.167,4.645 -3.048,6.926 -4.295,9.428 -1.464,2.934 -9.879,10.213 -9.879,10.213 0,0 0.927,-9.196 0.927,-11.717 0,-2.52 -2.272,-4.045 -4.766,-5.014 -2.494,-0.97 -5.819,0 -4.988,1.663 0.831,1.662 1.663,4.624 -1.939,3.351 -3.603,-1.272 -7.897,-3.074 -7.759,-6.122 0.137,-3.049 2.796,-6.928 4.861,-8.313 2.065,-1.387 3.175,-2.218 5.946,-3.049 z" id="path347" style="fill:url(#SVGID_14_);fill-rule:evenodd;stroke:#231f20;stroke-width:4"/>
	<linearGradient id="SVGID_15_" gradientUnits="userSpaceOnUse" x1="207.2993" y1="343.6279" x2="207.2993" y2="343.6279">
		<stop offset="0" style="stop-color: rgb(227, 195, 167);" id="stop350"/>
		<stop offset="1" style="stop-color: rgb(214, 165, 120);" id="stop352"/>
	</linearGradient>
	<path clip-rule="evenodd" d="M 207.299,343.628" id="path354" style="fill:url(#SVGID_15_);fill-rule:evenodd;stroke:#231f20;stroke-width:5"/>
	<ellipse clip-rule="evenodd" cx="204.784" cy="322.65201" rx="3.5929999" ry="1.979" id="ellipse356" d="m 208.377,322.65201 c 0,1.09297 -1.60864,1.979 -3.593,1.979 -1.98436,0 -3.593,-0.88603 -3.593,-1.979 0,-1.09297 1.60864,-1.979 3.593,-1.979 1.98436,0 3.593,0.88603 3.593,1.979 z" sodipodi:cx="204.784" sodipodi:cy="322.65201" sodipodi:rx="3.5929999" sodipodi:ry="1.979" style="fill:#fbf7f9;fill-rule:evenodd"/>
	<path clip-rule="evenodd" d="m 207.299,332.209 c -1.088,-1.56 -1.296,-5.026 -5.246,-5.163 -3.949,-0.138 -6.024,1.701 -6.024,1.701 l 3.88,-0.8 3.253,0.8 4.137,3.462 z" id="path358" style="fill:#6b6c6c;fill-rule:evenodd"/>
	<polyline clip-rule="evenodd" points="207.299,343.628 207.633,342.879 212.233,332.546 214.316,332.731 207.299,341.953" id="polyline360" style="fill:#111112;fill-rule:evenodd"/>
	<linearGradient id="SVGID_16_" gradientUnits="userSpaceOnUse" x1="336.34961" y1="276.5571" x2="336.75201" y2="284.23511">
		<stop offset="0" style="stop-color: rgb(0, 0, 0);" id="stop363"/>
		<stop offset="0.7173" style="stop-color: rgb(35, 35, 35);" id="stop365"/>
	</linearGradient>
	<path d="m 345.879,276.058 -6.443,8.036 -12.477,-4.381 c 0,0 4.988,0.608 9.46,0 4.472,-0.608 9.46,-3.655 9.46,-3.655 z" id="path367" style="fill:url(#SVGID_16_)"/>
	<linearGradient id="SVGID_17_" gradientUnits="userSpaceOnUse" x1="309.77539" y1="303.67969" x2="293.81931" y2="309.1738">
		<stop offset="0" style="stop-color: rgb(0, 0, 0);" id="stop370"/>
		<stop offset="0.7173" style="stop-color: rgb(35, 35, 35);" id="stop372"/>
	</linearGradient>
	<path d="m 311.369,308.31 c 0,0 -5.829,3.629 -8.892,4.152 -3.062,0.522 -9.455,-6.716 -10.455,-8.621 -1,-1.907 2.937,4.076 7.301,4.323 4.364,0.247 12.046,0.146 12.046,0.146 z" id="path374" style="fill:url(#SVGID_17_)"/>
	<linearGradient id="SVGID_18_" gradientUnits="userSpaceOnUse" x1="339.91211" y1="306.02731" x2="341.17599" y2="313.1951">
		<stop offset="0" style="stop-color: rgb(0, 0, 0);" id="stop377"/>
		<stop offset="0.5879" style="stop-color: rgb(21, 21, 21);" id="stop379"/>
		<stop offset="1" style="stop-color: rgb(35, 35, 35);" id="stop381"/>
	</linearGradient>
	<path d="m 331.77,314.854 c 0,0 1.457,-1.409 3.304,-3.131 2.927,-2.726 6.835,-6.234 7.476,-6.15 1.043,0.137 7.465,2.737 7.465,2.737 0,0 -0.809,-0.815 -6.629,0.226 -5.821,1.042 -11.616,6.318 -11.616,6.318 z" id="path383" style="fill:url(#SVGID_18_)"/>
	<linearGradient id="SVGID_19_" gradientUnits="userSpaceOnUse" x1="270.64059" y1="276.74899" x2="270.64059" y2="276.74899">
		<stop offset="0" style="stop-color: rgb(0, 0, 0);" id="stop386"/>
		<stop offset="0.5879" style="stop-color: rgb(21, 21, 21);" id="stop388"/>
		<stop offset="0.7173" style="stop-color: rgb(35, 35, 35);" id="stop390"/>
	</linearGradient>
	<path d="M 270.641,276.749" id="path392" style="fill:url(#SVGID_19_)"/>
</g>
<g id="g394" transform="matrix(0.265421, 0, 0, 0.265421, 306.104, 203.508)">
	<path clip-rule="evenodd" d="m -946.16,227.199 c -4.363,-6.653 -3.393,-9.979 -11.149,-15.683 -7.756,-5.704 -8.727,-13.307 -8.727,-13.307 0,0 -3.878,9.98 -3.878,12.832 0,2.852 2.424,13.306 2.424,13.306 l 5.332,4.752 15.998,-1.9 z" id="path396" style="fill:#676868;fill-rule:evenodd;stroke:#231f20;stroke-width:4"/>
	<path clip-rule="evenodd" d="m -965.065,326.523 2.908,-1.426 c 0,0 -2.908,6.653 -0.969,5.703 1.939,-0.949 7.271,0 11.148,-1.425 3.879,-1.426 5.817,-0.951 11.635,3.802 5.817,4.752 1.939,6.653 1.939,6.653 0,0 0.969,-1.901 0.969,-5.703 0,-3.802 1.454,-14.257 1.454,-21.861 0,-7.604 -2.907,-23.761 -3.878,-27.563 -0.969,-3.802 -11.148,-14.732 -11.148,-14.732 0,0 -2.91,3.327 -2.91,5.228 0,1.901 -2.908,8.079 -5.332,10.93 -2.424,2.852 -7.272,0 -9.211,0.476 -1.94,0.476 -4.737,0.665 -10.916,-0.547 -4.848,-0.951 -3.763,-1.347 -6.187,-4.199 -2.424,-2.851 -3.257,-17.115 -3.257,-17.115 0,0 -1.454,-2.851 -4.363,-2.851 -2.908,0 -6.786,-1.426 -10.664,-2.376 -3.879,-0.95 -11.635,-2.376 -20.845,-2.851 -9.21,-0.476 -8.241,1.425 -14.543,1.9 -6.302,0.475 -6.787,-1.426 -7.756,-3.326 -0.97,-1.901 -2.909,-2.852 -7.271,-2.852 -4.362,0 -12.604,1.901 -16.966,5.703 -4.362,3.802 -1.939,9.98 -1.939,9.98 0,0 9.211,8.079 17.937,14.257 8.725,6.179 10.18,2.376 16.966,4.752 6.787,2.376 5.817,3.327 6.302,7.128 0,0 -1.939,2.376 -3.394,8.079 -1.454,5.703 -3.878,9.979 -3.393,19.009 0.484,9.03 1.454,9.504 0.969,11.405 -0.484,1.901 -0.485,7.604 0.97,12.357 1.454,4.752 0,7.604 0,7.604 0,0 10.665,-2.851 14.543,-3.327 3.877,-0.475 7.271,0 12.604,1.901 5.333,1.901 17.451,5.228 17.451,5.228 l 10.18,-9.03 h 2.424 c 0,0 1.454,-3.802 2.424,-7.128 0.968,-3.328 12.119,-13.783 12.119,-13.783" id="path398" style="fill:#eb2727;fill-rule:evenodd;stroke:#231f20;stroke-width:4"/>
	<path clip-rule="evenodd" d="m -1027.82,283.605 c -11.634,1.9 -18.422,1.829 -22.943,-0.814 -7.506,-4.389 -14.94,-8.738 -17.847,-13.297 -2.379,-3.732 -1.384,-9.175 -1.384,-9.175 0,0 6.302,9.029 12.119,12.356 5.817,3.327 10.665,3.802 16.966,5.228 6.301,1.426 12.119,0.951 13.574,1.426 1.455,0.474 -0.485,4.276 -0.485,4.276 z" id="path400" style="fill:#9e1f22;fill-rule:evenodd"/>
	<path clip-rule="evenodd" d="m -952.583,285.709 c -16.277,-9.977 -31.481,-9.786 -36.235,-14.193 -3.572,-3.312 -7.365,18.304 -3.968,22.306 4.816,5.675 13.589,6.688 19.117,5.02 8.941,-2.699 21.086,-13.133 21.086,-13.133 z" id="path402" style="fill:#9e1f22;fill-rule:evenodd"/>
	<path clip-rule="evenodd" d="m -1035.355,314.167 c 5.332,14.731 12.119,20.435 18.421,22.336 6.302,1.9 23.269,7.128 21.814,6.178 -1.454,-0.951 -22.299,-10.931 -27.146,-16.633 -4.848,-5.703 -7.757,-10.93 -9.211,-16.158 -1.455,-5.228 -3.878,4.277 -3.878,4.277 z" id="path404" style="fill:#9e1f22;fill-rule:evenodd"/>
	<path clip-rule="evenodd" d="m -1036.81,352.661 c 0,0 15.997,-4.753 20.36,-3.802 4.363,0.951 24.238,7.604 24.238,7.604 l 1.939,3.326 c 0,0 14.059,3.803 17.936,5.704 3.878,1.901 15.028,8.078 15.028,9.504 0,1.425 -12.604,12.356 -12.604,12.356 l -6.786,-0.951 -1.94,14.257 -9.695,7.129 -2.908,2.851 c 0,0 -13.573,0.476 -18.905,-2.375 -5.333,-2.852 -20.36,-7.129 -24.238,-14.257 -3.878,-7.129 -6.787,-12.833 -6.787,-20.911 0,-8.079 4.362,-20.435 4.362,-20.435 z" id="path406" style="fill:#ffffff;fill-rule:evenodd;stroke:#231f20;stroke-width:4"/>
	<linearGradient id="SVGID_20_" gradientUnits="userSpaceOnUse" x1="-1127.2378" y1="255.6929" x2="-1065.4102" y2="255.6929">
		<stop offset="0" style="stop-color: rgb(172, 172, 172);" id="stop409"/>
		<stop offset="1" style="stop-color: rgb(51, 51, 51);" id="stop411"/>
	</linearGradient>
	<path clip-rule="evenodd" d="m -1070.743,270.445 c -8.241,0.951 -9.695,0.95 -17.936,-4.277 -8.241,-5.228 -12.604,-6.653 -18.906,-6.653 -6.302,0 -6.665,2.495 -11.634,0.475 -4.969,-2.02 -1.939,-2.376 -5.817,-5.228 -3.878,-2.852 -1.455,-7.604 -1.455,-7.604 0,0 6.18,-7.366 11.149,-6.654 4.969,0.713 8.241,5.703 8.241,5.703 0,0 8.726,3.327 14.058,3.802 5.333,0.475 15.028,0.951 17.452,1.426 2.423,0.475 10.18,2.851 10.18,2.851 0,0 -7.272,4.278 -7.757,6.654 -0.483,2.376 2.425,9.505 2.425,9.505 z" id="path413" style="fill:url(#SVGID_20_);fill-rule:evenodd;stroke:#231f20;stroke-width:4"/>
	<path clip-rule="evenodd" d="m -1033.416,376.422 c 9.21,4.753 8.726,7.13 21.814,4.753 13.088,-2.376 21.814,-1.902 13.088,0.475 -8.726,2.376 -20.36,6.177 -26.662,2.851 -6.302,-3.326 -8.726,-9.504 -8.726,-9.504 l 0.486,1.425 z" id="path415" style="fill:#cccbcb;fill-rule:evenodd"/>
	<path clip-rule="evenodd" d="m -987.97,406.719 c -4.363,-2.852 -3.878,-7.13 -5.333,-7.604 -1.454,-0.475 -8.726,0 -12.604,1.426 -3.877,1.425 -8.726,3.802 -8.726,3.802 0,0 2.909,2.853 11.15,4.277 8.241,1.426 12.604,0.951 12.604,0.951 l 2.909,-2.852 z" id="path417" style="fill:#cccbcb;fill-rule:evenodd"/>
	<path clip-rule="evenodd" d="m -959.248,286.128 c 3.393,-5.703 2.908,-7.128 1.939,-11.406 -0.971,-4.277 -24.723,-10.455 -24.723,-10.455 0,0 -0.97,-2.852 -2.909,-2.852 -1.939,0 -3.878,3.326 -3.878,3.326 0,0 1.455,19.485 6.302,20.436 4.848,0.951 23.269,0.951 23.269,0.951 z" id="path419" style="fill:#676868;fill-rule:evenodd;stroke:#231f20;stroke-width:3"/>
	<path clip-rule="evenodd" d="m -1022.388,403.392 c 0,11.405 3.272,24.236 3.636,25.662 0.364,1.426 12.725,3.208 20.36,0 7.635,-3.208 9.089,-5.703 17.815,-5.703 8.725,0 18.905,1.427 18.905,1.427 l 0.364,-6.416 -1.818,-6.417 c 0,0 -19.633,-1.069 -23.632,-2.495 -4,-1.425 -14.907,1.426 -14.907,1.426 l -20.723,-7.484 z" id="path421" style="fill:#ffffff;fill-rule:evenodd;stroke:#231f20;stroke-width:4"/>
	<linearGradient id="SVGID_21_" gradientUnits="userSpaceOnUse" x1="-930.76947" y1="396.02591" x2="-988.33398" y2="396.02591">
		<stop offset="0" style="stop-color: rgb(172, 172, 172);" id="stop424"/>
		<stop offset="1" style="stop-color: rgb(51, 51, 51);" id="stop426"/>
	</linearGradient>
	<path clip-rule="evenodd" d="m -988.334,407.788 c 15.271,2.495 25.208,2.733 28.48,3.445 3.272,0.712 7.271,4.634 7.271,4.634 0,0 5.09,-5.704 11.271,-8.911 6.18,-3.208 10.542,-3.564 10.542,-3.564 0,0 -1.454,-4.99 -3.635,-7.129 -2.182,-2.138 1.455,-4.99 -2.908,-8.198 -4.363,-3.208 -5.454,-3.92 -9.089,-5.703 -3.636,-1.782 -11.876,-6.177 -11.876,-6.177 l -10.665,11.167 -7.756,-0.951 -1.939,13.307 -9.696,8.08 z" id="path428" style="fill:url(#SVGID_21_);fill-rule:evenodd;stroke:#231f20;stroke-width:4"/>
	<path clip-rule="evenodd" d="m -977.427,400.422 -9.21,7.128 c 0,0 8.726,1.9 12.846,1.9 4.122,0 13.089,0.476 13.089,0.476 0,0 -10.18,-5.227 -12.361,-6.416 -2.182,-1.187 -4.364,-3.088 -4.364,-3.088 z" id="path430" style="fill:#2b2b2b;fill-rule:evenodd"/>
	<path clip-rule="evenodd" d="m -1001.665,430.599 c 4.605,14.02 9.453,14.495 9.453,19.247 0,4.752 -3.151,4.753 -0.969,7.366 2.181,2.614 5.817,8.078 8.726,9.742 2.909,1.664 2.666,1.901 8.241,0.476 5.574,-1.427 5.574,0.476 9.452,-3.09 3.878,-3.563 4.606,-5.227 4.606,-10.692 0,-5.465 -0.243,-6.891 0.97,-8.316 1.212,-1.426 -0.97,-16.396 -0.97,-17.583 0,-1.188 0.484,-2.139 0.484,-2.139 0,0 -5.09,-1.663 -11.634,-1.663 -6.544,0 -11.149,-0.713 -13.573,0.476 -2.424,1.188 -9.21,4.514 -10.907,4.989 -1.697,0.475 -4.605,0.95 -4.605,0.95" id="path432" style="fill:#616161;fill-rule:evenodd;stroke:#231f20;stroke-width:4"/>
	<path clip-rule="evenodd" d="m -952.583,415.867 c 0,0 7.152,-6.416 11.029,-8.316 3.878,-1.902 10.907,-3.564 10.907,-3.564 0,0 2.667,2.614 4.121,4.99 1.454,2.376 5.817,8.554 9.453,10.931 3.634,2.377 9.937,5.94 15.027,12.594 5.09,6.653 8.968,11.644 13.573,14.494 4.605,2.852 10.907,6.416 11.877,6.653 0.969,0.238 -5.09,7.129 -5.818,8.792 -0.727,1.663 -0.243,3.089 -2.908,5.228 -2.666,2.138 -3.151,4.989 -5.817,3.564 -2.666,-1.427 -8.483,-6.179 -15.027,-11.405 -6.545,-5.229 -12.362,-11.406 -19.391,-14.495 -7.029,-3.089 -14.421,-7.366 -16.846,-12.356 -2.425,-4.99 -10.18,-17.11 -10.18,-17.11 z" id="path434" style="fill:#ffffff;fill-rule:evenodd;stroke:#231f20;stroke-width:4"/>
	<path clip-rule="evenodd" d="m -980.941,468.973 c -8.12,-4.87 -13.694,-12.237 -13.694,-12.237 0,0 1.333,-4.157 2.06,-5.939 0.727,-1.782 0,-3.564 -2.545,-3.564 -2.545,0 -12.725,3.564 -23.632,11.049 -10.907,7.485 -21.451,16.396 -24.723,17.109 -3.272,0.712 -5.453,2.495 -5.453,2.495 0,0 -1.455,9.979 -0.364,12.83 1.091,2.853 1.818,5.348 4.727,6.06 2.908,0.713 7.998,1.782 7.998,1.782 0,0 2.182,-3.208 12.361,-10.693 10.18,-7.484 13.816,-9.979 25.813,-12.83 11.997,-2.851 17.452,-6.062 17.452,-6.062 z" id="path436" style="fill:#ffffff;fill-rule:evenodd;stroke:#231f20;stroke-width:4"/>
	<path clip-rule="evenodd" d="m -888.837,468.973 5.817,-5.702 1.455,-4.276 5.453,-6.771 c 0,0 -0.362,2.138 7.273,2.494 7.634,0.355 21.086,1.068 25.813,1.068 4.726,0 10.907,-0.713 9.089,2.139 -1.818,2.852 -11.634,8.555 -17.451,11.763 -5.817,3.208 -17.451,2.852 -21.814,7.484 -4.363,4.634 -6.182,6.416 -9.454,6.416 -3.271,0 -5.452,-0.356 -7.635,-4.277 -2.181,-3.92 -2.181,-5.703 -2.181,-7.842 -10e-4,-2.139 3.635,-2.496 3.635,-2.496 z" id="path438" style="fill:#0b0d0d;fill-rule:evenodd"/>
	<rect x="-850.84399" y="466.12201" clip-rule="evenodd" width="3.2709999" height="4.9899998" id="rect440" style="fill:#0b0d0d;fill-rule:evenodd"/>
	<rect x="-844.96698" y="463.62701" clip-rule="evenodd" width="2.5450001" height="5.7030001" id="rect442" style="fill:#0b0d0d;fill-rule:evenodd"/>
	<rect x="-880.83899" y="481.09201" clip-rule="evenodd" width="4.3629999" height="2.4949999" id="rect444" style="fill:#0b0d0d;fill-rule:evenodd"/>
	<path clip-rule="evenodd" d="m -1049.656,477.171 c -3.393,-1.426 -8.483,-0.237 -9.453,-0.237 -0.97,0 -4.605,4.753 -4.605,4.753 0,0 -0.97,6.651 -0.485,7.84 0.485,1.188 5.333,5.941 7.029,9.743 1.696,3.802 1.696,9.03 1.939,12.594 0.242,3.564 6.06,13.544 7.514,15.92 1.454,2.377 2.181,3.564 3.877,3.327 1.697,-0.238 4.363,-1.426 4.605,-4.04 0.243,-2.613 -1.454,-8.316 -1.212,-11.881 0.242,-3.563 1.697,-8.317 3.636,-11.405 1.938,-3.089 1.696,-6.178 1.696,-6.178 0,0 -9.089,-1.188 -11.634,-4.039 -2.545,-2.853 -3.394,-10.694 -3.394,-11.881 0,-1.188 1.212,-3.802 1.212,-3.802" id="path446" style="fill:#0b0d0d;fill-rule:evenodd;stroke:#010101;stroke-width:4"/>
	<path clip-rule="evenodd" d="m -1062.745,491.665 c -3.15,0.476 -4.363,-0.95 -4.363,-0.95 l 2.182,-3.326 1.939,3.564" id="path448" style="fill:#0b0d0d;fill-rule:evenodd;stroke:#010101;stroke-width:4"/>
	<polygon clip-rule="evenodd" points="-1056.69,515.902 -1053.78,518.041 -1054.75,514.715 " id="polygon450" style="fill:#0b0d0d;fill-rule:evenodd;stroke:#010101;stroke-width:4"/>
	<polygon clip-rule="evenodd" points="-1049.17,526.834 -1051.11,523.269 -1052.32,525.646 -1051.84,526.834 " id="polygon452" style="fill:#0b0d0d;fill-rule:evenodd;stroke:#010101;stroke-width:4"/>
	<path clip-rule="evenodd" d="m -870.053,462.201 c 0,12.832 0,12.832 0,12.832 l 7.271,-1.427 -1.454,-11.405 h -5.817 z" id="path454" style="fill:#ffffff;fill-rule:evenodd"/>
	<linearGradient id="SVGID_22_" gradientUnits="userSpaceOnUse" x1="-995.13922" y1="348.50241" x2="-939.37299" y2="348.50241">
		<stop offset="0" style="stop-color: rgb(172, 172, 172);" id="stop457"/>
		<stop offset="1" style="stop-color: rgb(51, 51, 51);" id="stop459"/>
	</linearGradient>
	<path clip-rule="evenodd" d="m -939.373,339.829 c -0.613,-7.815 -1.455,-7.128 -4.363,-9.03 -2.908,-1.901 -5.817,-1.901 -11.148,-0.237 -6.284,1.959 -4.363,3.564 -9.212,8.554 -6.218,6.4 -8.725,8.316 -12.118,8.316 -3.393,0 -10.18,1.901 -13.089,4.278 -2.908,2.375 -3.562,3.883 -4.847,6.653 -1.212,2.614 -1.939,6.416 1.696,4.99 0,0 1.939,2.376 3.878,2.851 1.939,0.475 5.157,1.668 7.756,1.425 5.09,-0.475 7.029,-5.227 8.241,-6.415 1.212,-1.188 0.727,-4.278 7.029,-7.129 6.302,-2.852 16.967,-4.515 19.148,-5.465 2.18,-0.95 7.029,-8.791 7.029,-8.791 z" id="path461" style="fill:url(#SVGID_22_);fill-rule:evenodd;stroke:#231f20;stroke-width:4"/>
	<path clip-rule="evenodd" d="m -962.884,336.265 c -0.727,-0.713 -2.666,-3.565 -1.454,-4.515 1.212,-0.951 6.544,-1.188 6.544,-1.188 l -5.09,5.703 z" id="path463" style="fill:#631011;fill-rule:evenodd;stroke:#231f20;stroke-width:4"/>
	<linearGradient id="SVGID_23_" gradientUnits="userSpaceOnUse" x1="-992.78662" y1="247.38229" x2="-902.25537" y2="247.38229">
		<stop offset="0" style="stop-color: rgb(161, 161, 161);" id="stop466"/>
		<stop offset="1" style="stop-color: rgb(75, 75, 75);" id="stop468"/>
	</linearGradient>
	<path d="m -904.215,279.028 c 0.6,-3.081 3.969,-5.38 0.201,-8.788 -2.707,-2.446 -7.96,-3.089 -11.212,-4.922 -3.365,-1.895 -6.88,-5.208 -8.724,-8.195 -3.386,-5.487 1.416,-6.441 0.164,-11.076 -1.178,-4.358 -0.715,-5.295 -5.104,-7.613 -4.33,-2.288 -2.823,-4.578 -6.62,-7.432 -11.895,-8.934 -24.382,-2.721 -24.46,-3.077 0.028,0.118 0.056,0.234 0.078,0.356 l -0.476,-0.747 c 0.117,0.138 0.252,0.267 0.397,0.391 -1.242,-5.354 -7.819,-6.568 -12.191,-11.291 -6.286,-6.788 -12.623,-12.474 -12.599,-20.712 -7.264,9.471 -13.318,24.832 -0.778,33.156 2.49,1.652 6.115,3.415 5.676,6.836 -0.444,3.463 -1.568,0.967 -5.691,7.113 -3.847,5.734 -4.483,8.945 -3.037,16.478 0.467,2.43 2.544,12.465 8.982,14.741 8.021,2.835 8.752,-1.031 15.511,4.277 5.208,4.09 17.724,8.451 22.523,12.526 2.304,1.957 5.021,4.162 3.333,5.492 5.179,3.126 13.053,2.446 19.376,1.539 2.657,-1.098 6.029,-1.356 7.516,-2.042 3.765,-1.736 -0.541,-4.342 4.771,-7.26 1.799,-0.988 2.043,-1.885 2.528,-4.328 0.491,-2.451 -0.576,-3.307 -0.164,-5.422 z" id="path470" style="fill:url(#SVGID_23_);stroke:#231f20;stroke-width:4"/>
	<path d="m -959.892,228.283 c -0.022,-0.122 -0.05,-0.238 -0.078,-0.356 -0.146,-0.124 -0.28,-0.252 -0.397,-0.391 l 0.475,0.747 z" id="path472" style="fill:#979797;stroke:#231f20;stroke-width:4"/>
	<path d="m -936.517,273.903 c -0.75,1.633 -1.421,4.992 -0.043,8.844 1.376,3.851 6.029,5.957 9.478,7.794 2.511,1.336 3.181,1.261 8.374,1.595 2.787,0.178 6.432,-1 7.966,-3.338 3.445,-5.25 4.205,-10.195 3.341,-7.023" id="path474" style="fill:none;stroke:#231f20;stroke-width:4"/>
	<path d="m -938.353,247.345 c 0.434,-2.44 -4.744,-6.621 -6.926,-7.435 -4.334,-1.623 -7.746,0.017 -9.075,4.498 -1.571,-6.715 2.759,-8.55 8.136,-6.274 4.142,1.754 7.038,4.862 8.192,9.584" id="path476" style="fill:#676868;stroke:#231f20;stroke-width:4"/>
	<path d="m -907.015,282.082 c 0,0 -0.663,-0.337 -0.947,3.329 -0.286,3.667 -1.024,3.98 -0.054,4.088 0.97,0.108 1.985,-0.175 2.982,-1.517 0.998,-1.341 1.366,-2.092 1.407,-4.861 0.035,-2.366 -0.317,-4.525 -0.317,-4.525 0,0 -0.75,1.633 -1.365,2.093 -0.616,0.458 -1.706,1.393 -1.706,1.393 z" id="path478" style="fill:#767474;stroke:#231f20;stroke-width:4"/>
	<path d="m -908.498,290.017 c 0,0 -0.303,-0.21 -0.406,-0.53 -0.436,-1.349 0.767,-4.185 0.767,-4.185 0,0 -1.649,4.13 -3.955,5.458 -2.306,1.327 -4.849,1.88 -7.414,1.814 -2.565,-0.065 3.901,1.447 5.845,1.225 1.943,-0.224 3.599,-0.652 3.764,-0.989 0.305,-0.625 1.399,-2.793 1.399,-2.793 z" id="path480" style="fill:#eb2627;stroke:#010101;stroke-width:4"/>
	<path d="m -977.565,230.426 c 1.695,1.115 3.11,0.282 5.018,-0.298 1.745,-0.532 2.841,-2.721 1.099,-4.632 -1.742,-1.911 -3.994,-4.275 -7.368,-6.633 -3.025,-2.113 -4.821,-9.849 -4.821,-9.849 l -1.023,-3.879 c 0,0 0.069,4.235 0.752,6.82 0.682,2.586 1.598,6.782 2.771,8.762 1.174,1.979 3.562,3.171 4.103,4.552 0.541,1.381 -0.464,1.515 -0.89,1.618 -0.938,0.226 -0.941,-1.558 -2.478,-0.409 -0.616,0.46 2.837,3.948 2.837,3.948 z" id="path482" style="fill:#676868"/>
	<path d="m -969.529,231.653 c 1.794,-0.988 1.593,-2.595 1.459,-3.667 -0.456,-3.638 -2.546,-4.774 -4.934,-6.449 -2.389,-1.675 -5.097,-3.563 -7.025,-6.243 -1.927,-2.681 -4.632,-10.159 -4.632,-10.159 0,0 2.091,11.284 4.229,13.636 1.838,2.021 3.022,2.891 5.826,4.701 1.231,0.794 2.362,1.54 2.927,2.968 0.714,1.799 -0.101,3.114 -1.653,3.864 -1.206,0.584 -3.797,0.392 -5.056,-0.629 -1.259,-1.021 3.018,3.506 4.207,3.64 1.19,0.131 2.858,-0.673 4.652,-1.662 z" id="path484" style="fill:#010101"/>
	<path d="m -987.175,226.382 c -1.85,-1.593 -3.501,-4.448 -3.986,-8.171 -0.742,-5.695 0.944,-9.338 1.749,-10.833 0.569,-1.056 1.395,-2.948 1.395,-2.948 0,0 -0.396,1.767 -0.185,4.007 0.063,0.667 -0.043,1.581 0.945,3.342 0.394,0.701 2.351,2.072 2.143,2.088 -1.416,0.106 -4.036,-2.101 -4.035,-1.506 10e-4,0.594 1.529,3.142 2.255,4.148 0.725,1.004 3.315,3.473 3.662,3.512 0.346,0.039 -4.969,-1.325 -5.465,-0.675 -0.497,0.648 0.56,3.033 0.823,3.79 0.263,0.756 1.027,2.03 1.83,2.978 0.802,0.948 2.342,1.582 2.611,1.678 0.269,0.096 -2.811,-0.608 -3.742,-1.41 z" id="path486" style="fill:#fbcccb"/>
	<path d="m -911.563,288.222 c -0.981,1.198 -1.543,2.008 -4.044,2.601 -3.725,0.883 -5.001,1.186 -8.247,0.125 -3.245,-1.059 -5.104,-1.964 -7.788,-3.832 -2.684,-1.87 -2.726,-2.31 -3.674,-3.811 -0.948,-1.501 -1.287,-5.027 -1.127,-6.403 0.16,-1.376 0.751,-2.444 0.751,-2.444 0,0 1.892,4.658 3.272,6.467 1.379,1.81 4,3.411 7.47,4.147 0.8,0.35 4.813,0.449 7.006,0.084 2.194,-0.365 5.228,-1.509 6.125,-2.804 0,0 0.206,-0.151 0.283,-1.625 0.078,-1.474 -1.1,-4.22 -1.123,-4.833 -0.022,-0.613 0.212,-1.022 1.043,-0.929 0.831,0.092 2.955,0.329 3.544,1.703 0.589,1.373 0.821,3.405 0.037,5.323 -0.782,1.918 -2.548,5.033 -3.528,6.231 z" id="path488" style="fill:#7e7e7e"/>
	<g id="g490">
		<path d="m -910.297,268.046 c -0.893,-0.166 -2.197,-0.101 -3.484,0.404 -1.075,0.421 -2.61,2.083 -3.011,2.966 -1.226,2.702 1.921,6.646 4.286,8.402 1.373,1.021 1.79,0.111 1.378,-1.15 -0.247,-0.756 -0.792,-1.64 -1.607,-2.31 -1.026,-0.841 0.224,-2.083 1.381,-1.628 3.672,1.442 2.343,4.754 2.553,7.021 0.938,0.369 2.896,-0.464 3.168,-1.297 0.492,-1.514 0.57,-5.089 2.589,-5.39 0.435,-0.374 -0.22,1.835 -0.173,2.094 2.771,-4.512 0.008,-8.519 -7.08,-9.112" id="path492" style="fill:#010101;stroke:#231f20;stroke-width:4"/>
		
			<linearGradient id="SVGID_24_" gradientUnits="userSpaceOnUse" x1="-899.22662" y1="324.75491" x2="-896.24951" y2="324.75491" gradientTransform="matrix(0.9936, 0.1131, -0.1131, 0.9936, 16.4552, 56.7297)">
			<stop offset="0" style="stop-color: rgb(156, 158, 161);" id="stop495"/>
			<stop offset="0.345" style="stop-color: rgb(98, 99, 101);" id="stop497"/>
			<stop offset="0.7921" style="stop-color: rgb(28, 28, 29);" id="stop499"/>
			<stop offset="1" style="stop-color: rgb(0, 0, 0);" id="stop501"/>
		</linearGradient>
		<path d="m -911.004,279.871 c 0.131,-0.514 -0.197,-1.624 -0.69,-2.207 -0.494,-0.583 -1.186,-1.272 -1.271,-1.594 -0.084,-0.324 -0.226,-0.62 -0.226,-0.62 0,0 -0.192,-0.154 -0.337,0.491 -0.145,0.644 -0.037,0.92 0.541,1.38 0.578,0.461 1.111,1.147 1.067,1.539 -0.046,0.392 -0.162,0.939 -0.046,1.15 0.116,0.211 0.535,0.374 0.747,0.216 0.211,-0.158 0.215,-0.355 0.215,-0.355 z" id="path503" style="fill:url(#SVGID_24_)"/>
		<path d="m -904.06,271.747 c -0.108,0.918 -1.124,1.559 -2.272,1.431 -1.147,-0.128 -1.991,-0.977 -1.885,-1.895 0.107,-0.918 1.124,-1.559 2.272,-1.43 1.147,0.128 1.991,0.976 1.885,1.894 z" id="path505" style="fill:#5c5a5a"/>
		
			<ellipse transform="matrix(0.9938, 0.111, -0.111, 0.9938, 24.5161, 102.136)" cx="-905.297" cy="271.31201" rx="0.69700003" ry="0.56900001" id="ellipse507" d="m -904.6,271.31201 c 0,0.31425 -0.31205,0.569 -0.697,0.569 -0.38494,0 -0.697,-0.25475 -0.697,-0.569 0,-0.31425 0.31206,-0.569 0.697,-0.569 0.38495,0 0.697,0.25475 0.697,0.569 z" sodipodi:cx="-905.297" sodipodi:cy="271.31201" sodipodi:rx="0.69700003" sodipodi:ry="0.56900001" style="fill:#ffffff"/>
		<path d="m -903.321,276.859 c 0.274,-1.158 0.674,-1.773 0.278,-1.796 -0.394,-0.021 0.378,-1.036 0.619,-1.097 0.242,-0.062 0.288,0.737 0.126,1.334 -0.163,0.599 -1.023,1.559 -1.023,1.559 z" id="path509" style="fill:#7e7e7e"/>
		
			<linearGradient id="SVGID_25_" gradientUnits="userSpaceOnUse" x1="-899.76611" y1="323.9404" x2="-892.76862" y2="323.9404" gradientTransform="matrix(0.9936, 0.1131, -0.1131, 0.9936, 16.4552, 56.7297)">
			<stop offset="0" style="stop-color: rgb(99, 100, 103);" id="stop512"/>
			<stop offset="0.0168" style="stop-color: rgb(97, 98, 101);" id="stop514"/>
			<stop offset="0.6885" style="stop-color: rgb(27, 28, 29);" id="stop516"/>
			<stop offset="1" style="stop-color: rgb(0, 0, 0);" id="stop518"/>
		</linearGradient>
		<path d="m -908.534,281.869 c 0.133,0.015 0.731,-0.234 0.789,-0.353 0.354,-0.717 -0.005,-3.396 0.003,-4.63 0.008,-1.233 -0.369,-2.479 -1.179,-3.063 -0.81,-0.583 -2.853,-1.344 -3.717,-1.093 -0.768,0.223 -1.379,0.834 -1.176,1.412 0.175,0.498 0.381,0.746 0.714,0.82 0.28,0.062 0.571,-0.847 1.698,-0.536 1.387,0.382 1.855,1.049 2.257,1.827 0.372,0.72 0.476,2.351 0.39,3.082 -0.084,0.731 -0.246,1.852 -0.139,2.009 0.101,0.15 0.227,0.51 0.36,0.525 z" id="path520" style="fill:url(#SVGID_25_)"/>
	</g>
	<path d="m -925.59,254.597 c -2.144,0.218 -2.176,1.035 -4.101,1.161 -1.926,0.125 -3.166,-0.948 -3.166,-0.948 0,0 1.824,-0.232 3.434,-0.472 1.611,-0.241 3.748,-0.306 3.748,-0.306 l 0.085,0.565 z" id="path522" style="fill:#676868"/>
	<path d="m -932.98,268.275 c 1.289,2.47 -4.834,4.815 -6.667,5.4 -2.935,0.936 -7.033,1.139 -9.427,-0.969 2.536,2.576 5.705,4.083 9.557,3.228 2.298,-0.508 8.589,-4.163 7.014,-7.175" id="path524" style="fill:#676868"/>
	<path d="m -940.452,292.086 c 3.836,2.013 7.948,4.057 7.948,4.057 l -7.948,-4.057 z" id="path526" style="fill:#010101;stroke:#231f20;stroke-width:4"/>
	<path d="m -915.547,297.55 c -4.835,0.958 -7.061,1.194 -8.724,1.008 -1.662,-0.186 -3.488,-0.565 -3.488,-0.565" id="path528" style="fill:none;stroke:#010101;stroke-width:4"/>
	<g id="g530">
		<path d="m -929.329,280.077 c -0.063,0.551 -0.612,0.943 -1.223,0.875 -0.613,-0.068 -1.057,-0.572 -0.993,-1.123 0.064,-0.552 0.612,-0.944 1.225,-0.876 0.612,0.068 1.056,0.572 0.991,1.124 z" id="path532" style="fill:#636464"/>
		<circle cx="-930.85101" cy="280.30301" r="0.69700003" id="circle534" d="m -930.15401,280.30301 c 0,0.38494 -0.31206,0.697 -0.697,0.697 -0.38495,0 -0.697,-0.31206 -0.697,-0.697 0,-0.38494 0.31205,-0.697 0.697,-0.697 0.38494,0 0.697,0.31206 0.697,0.697 z" sodipodi:cx="-930.85101" sodipodi:cy="280.30301" sodipodi:rx="0.69700003" sodipodi:ry="0.69700003" style="fill:#979797"/>
	</g>
	<g id="g536">
		<path d="m -924.784,282.434 c -0.064,0.551 -0.611,0.943 -1.224,0.875 -0.612,-0.068 -1.056,-0.571 -0.993,-1.123 0.065,-0.552 0.613,-0.944 1.225,-0.876 0.612,0.068 1.056,0.571 0.992,1.124 z" id="path538" style="fill:#636464"/>
		<path d="m -925.614,282.736 c -0.044,0.384 -0.39,0.66 -0.773,0.618 -0.383,-0.043 -0.656,-0.388 -0.611,-0.772 0.044,-0.385 0.39,-0.661 0.773,-0.618 0.381,0.042 0.656,0.388 0.611,0.772 z" id="path540" style="fill:#979797"/>
	</g>
	<g id="g542">
		<path d="m -920.44,284.503 c -0.063,0.551 -0.611,0.943 -1.224,0.875 -0.612,-0.068 -1.056,-0.571 -0.992,-1.123 0.064,-0.552 0.612,-0.944 1.223,-0.875 0.613,0.067 1.058,0.571 0.993,1.123 z" id="path544" style="fill:#636464"/>
		<circle cx="-921.96301" cy="284.729" r="0.69700003" id="circle546" d="m -921.26601,284.729 c 0,0.38495 -0.31206,0.697 -0.697,0.697 -0.38495,0 -0.697,-0.31205 -0.697,-0.697 0,-0.38494 0.31205,-0.697 0.697,-0.697 0.38494,0 0.697,0.31206 0.697,0.697 z" sodipodi:cx="-921.96301" sodipodi:cy="284.729" sodipodi:rx="0.69700003" sodipodi:ry="0.69700003" style="fill:#979797"/>
	</g>
	<path d="m -932.424,284.177 c 0.065,-0.551 0.612,-0.944 1.225,-0.876 0.612,0.068 1.056,0.572 0.992,1.124 -0.064,0.552 -0.612,0.944 -1.224,0.876 -0.613,-0.069 -1.056,-0.572 -0.993,-1.124" id="path548" style="fill:#636464"/>
	<path d="m -932.422,284.574 c 0.043,-0.385 0.39,-0.662 0.773,-0.619 0.382,0.042 0.656,0.389 0.611,0.773 -0.044,0.384 -0.391,0.66 -0.773,0.617 -0.382,-0.042 -0.657,-0.387 -0.611,-0.771" id="path550" style="fill:#7e7e7e"/>
	<g id="g552">
		<path d="m -925.529,286.841 c -0.064,0.551 -0.613,0.943 -1.225,0.875 -0.611,-0.068 -1.056,-0.572 -0.993,-1.123 0.065,-0.553 0.614,-0.945 1.225,-0.876 0.612,0.068 1.057,0.572 0.993,1.124 z" id="path554" style="fill:#636464"/>
		<circle cx="-927.052" cy="287.06601" r="0.69700003" id="circle556" d="m -926.355,287.06601 c 0,0.38494 -0.31206,0.697 -0.697,0.697 -0.38494,0 -0.697,-0.31206 -0.697,-0.697 0,-0.38494 0.31206,-0.697 0.697,-0.697 0.38494,0 0.697,0.31206 0.697,0.697 z" sodipodi:cx="-927.052" sodipodi:cy="287.06601" sodipodi:rx="0.69700003" sodipodi:ry="0.69700003" style="fill:#7e7e7e"/>
	</g>
	<g id="g558">
		<path d="m -921.007,288.182 c -0.064,0.551 -0.612,0.944 -1.224,0.876 -0.613,-0.068 -1.057,-0.572 -0.992,-1.124 0.063,-0.552 0.612,-0.944 1.224,-0.876 0.611,0.068 1.055,0.571 0.992,1.124 z" id="path560" style="fill:#636464"/>
		<circle cx="-922.53101" cy="288.40701" r="0.69700003" id="circle562" d="m -921.83401,288.40701 c 0,0.38495 -0.31205,0.697 -0.697,0.697 -0.38494,0 -0.697,-0.31205 -0.697,-0.697 0,-0.38494 0.31206,-0.697 0.697,-0.697 0.38495,0 0.697,0.31206 0.697,0.697 z" sodipodi:cx="-922.53101" sodipodi:cy="288.40701" sodipodi:rx="0.69700003" sodipodi:ry="0.69700003" style="fill:#7e7e7e"/>
	</g>
	<path d="m -938.482,259.419 c -0.645,0.721 -3.212,2.283 -5.4,0.586 -2.188,-1.697 -3.76,-2.666 -3.856,-4.261 -0.095,-1.595 -1.184,0.528 -0.718,2.562 0.465,2.033 1.483,2.939 4.039,3.885 2.556,0.945 3.957,0.97 5.047,0.035 1.091,-0.934 0.888,-2.807 0.888,-2.807 z" id="path564" style="fill:#7e7e7e"/>
	<path d="m -936.824,252.469 c -0.669,-2.891 -1.539,-4 -2.579,-5.082 -1.391,-1.455 -3.595,-2.497 -5.746,-1.993 -4.421,1.036 -3.512,7.707 -2.13,10.442 1.18,2.327 4.779,5.784 7.5,4.176 2.525,-1.49 2.778,-5.042 2.955,-7.543" id="path566" style="fill:#676868;stroke:#231f20;stroke-width:4"/>
	<path d="m -937.222,254.99 c -0.611,2.812 -1.907,6.797 -6.353,4.9 -2.864,-1.219 -4.333,-5.485 -3.656,-7.933 0.703,-2.546 4.38,-4.987 7.306,-3.043 2.396,1.592 2.948,3.475 2.899,4.721 l -0.196,1.355 z" id="path568" style="fill:#ffffff;stroke:#231f20"/>
	<path d="m -938.644,257.014 c -0.071,1.798 -1.211,3.21 -2.548,3.155 -1.337,-0.055 -2.363,-1.556 -2.292,-3.354 0.07,-1.796 1.21,-3.209 2.547,-3.155 1.337,0.055 2.363,1.557 2.293,3.354 z" id="path570" style="fill:#010101;stroke:#231f20;stroke-width:4"/>
	<path d="m -943.149,259.193 c 0.521,0.125 1.952,-1.181 1.891,-1.941 -2.008,-0.41 -3.01,0.606 -1.891,1.941" id="path572" style="fill:#ffffff"/>
</g>
<g id="g574" transform="matrix(0.265421, 0, 0, 0.265421, 306.104, 203.508)" style="opacity:0.63999999">
	<linearGradient id="SVGID_26_" gradientUnits="userSpaceOnUse" x1="-322.01901" y1="237.4292" x2="-326.1828" y2="475.96759">
		<stop offset="0" style="stop-color: rgb(255, 255, 255);" id="stop577"/>
		<stop offset="1" style="stop-color: rgb(0, 0, 0);" id="stop579"/>
	</linearGradient>
	<path d="m 122.688,245.191 c -517.285,10.84 -926.607,102.358 -924.592,198.542 l 4,24 c -4,-137 425.449,-142.964 950.67,-142.964 0,0 -29.689,-9.624 -34.798,-41.624 -4.751,-29.759 4.72,-37.954 4.72,-37.954 z" id="path581" style="opacity:0.3;fill:url(#SVGID_26_);stroke:#cdcccc;stroke-width:6"/>
</g>
<polygon points="-787.164,447.446 -791.084,460.471 -782.578,471.085 -796.176,471.38 -803.642,482.751 -808.125,469.909 -821.246,466.322 -810.418,458.09 -811.062,444.503 -799.887,452.257 " id="polygon583" transform="matrix(0.265421, 0, 0, 0.265421, 306.104, 203.508)" style="fill:#ffcd05;stroke:#989898;stroke-width:3"/>
</svg>