<?xml version="1.0" encoding="UTF-8" standalone="no"?>
<!-- Created with Inkscape (http://www.inkscape.org/) -->

<svg
   xmlns:dc="http://purl.org/dc/elements/1.1/"
   xmlns:cc="http://creativecommons.org/ns#"
   xmlns:rdf="http://www.w3.org/1999/02/22-rdf-syntax-ns#"
   xmlns:svg="http://www.w3.org/2000/svg"
   xmlns="http://www.w3.org/2000/svg"
   xmlns:xlink="http://www.w3.org/1999/xlink"
   version="1.1"
   width="730.11304"
   height="609.37531"
   id="svg5832">
  <defs
     id="defs3">
    <linearGradient
       x1="1719.2131"
       y1="493.03531"
       x2="1667.2244"
       y2="569.22565"
       id="linearGradient5658"
       xlink:href="#linearGradient5652"
       gradientUnits="userSpaceOnUse" />
    <linearGradient
       id="linearGradient5652">
      <stop
         id="stop5654"
         style="stop-color:#000000;stop-opacity:1"
         offset="0" />
      <stop
         id="stop5656"
         style="stop-color:#000000;stop-opacity:0"
         offset="1" />
    </linearGradient>
    <filter
       x="-0.049208954"
       y="-0.28669566"
       width="1.0984179"
       height="1.5733913"
       color-interpolation-filters="sRGB"
       id="filter5684">
      <feGaussianBlur
         id="feGaussianBlur5686"
         stdDeviation="2.4627413" />
    </filter>
    <linearGradient
       x1="1868.5021"
       y1="398.2597"
       x2="1822.8671"
       y2="525.02374"
       id="linearGradient5564"
       xlink:href="#linearGradient5558"
       gradientUnits="userSpaceOnUse" />
    <linearGradient
       id="linearGradient5558">
      <stop
         id="stop5560"
         style="stop-color:#aa0000;stop-opacity:1"
         offset="0" />
      <stop
         id="stop5562"
         style="stop-color:#aa0000;stop-opacity:0"
         offset="1" />
    </linearGradient>
    <linearGradient
       x1="1883.2466"
       y1="345.13635"
       x2="1844.7031"
       y2="410.57043"
       id="linearGradient5581"
       xlink:href="#linearGradient5575"
       gradientUnits="userSpaceOnUse"
       gradientTransform="matrix(1.2999014,0,0,1.2616078,-574.60444,-73.660124)" />
    <linearGradient
       id="linearGradient5575">
      <stop
         id="stop5577"
         style="stop-color:#ffffff;stop-opacity:1"
         offset="0" />
      <stop
         id="stop5579"
         style="stop-color:#ffffff;stop-opacity:0"
         offset="1" />
    </linearGradient>
    <filter
       color-interpolation-filters="sRGB"
       id="filter5550">
      <feGaussianBlur
         id="feGaussianBlur5552"
         stdDeviation="4.555005" />
    </filter>
    <filter
       color-interpolation-filters="sRGB"
       id="filter5393">
      <feGaussianBlur
         id="feGaussianBlur5395"
         stdDeviation="3.6214572" />
    </filter>
    <filter
       color-interpolation-filters="sRGB"
       id="filter5433">
      <feGaussianBlur
         id="feGaussianBlur5435"
         stdDeviation="6.2745006" />
    </filter>
    <filter
       color-interpolation-filters="sRGB"
       id="filter5471">
      <feGaussianBlur
         id="feGaussianBlur5473"
         stdDeviation="2.0413498" />
    </filter>
    <linearGradient
       x1="2075.9631"
       y1="894.60333"
       x2="1789.1289"
       y2="613.14716"
       id="linearGradient5500"
       xlink:href="#linearGradient5349"
       gradientUnits="userSpaceOnUse" />
    <linearGradient
       id="linearGradient5349">
      <stop
         id="stop5351"
         style="stop-color:#faeddd;stop-opacity:1"
         offset="0" />
      <stop
         id="stop5353"
         style="stop-color:#faeddd;stop-opacity:0"
         offset="1" />
    </linearGradient>
    <linearGradient
       x1="2264.1982"
       y1="1068.4966"
       x2="1708.4569"
       y2="616.7326"
       id="linearGradient5502"
       xlink:href="#linearGradient5399"
       gradientUnits="userSpaceOnUse" />
    <linearGradient
       id="linearGradient5399">
      <stop
         id="stop5401"
         style="stop-color:#75532f;stop-opacity:1"
         offset="0" />
      <stop
         id="stop5403"
         style="stop-color:#75532f;stop-opacity:0"
         offset="1" />
    </linearGradient>
    <linearGradient
       x1="1721.9022"
       y1="551.29858"
       x2="1710.2495"
       y2="568.32928"
       id="linearGradient5504"
       xlink:href="#linearGradient5441"
       gradientUnits="userSpaceOnUse"
       gradientTransform="matrix(1.0186916,0,0,1.0262769,-31.364132,-15.781868)" />
    <linearGradient
       id="linearGradient5441">
      <stop
         id="stop5443"
         style="stop-color:#e6e6e6;stop-opacity:1"
         offset="0" />
      <stop
         id="stop5445"
         style="stop-color:#e6e6e6;stop-opacity:0"
         offset="1" />
    </linearGradient>
    <linearGradient
       x1="1765.8977"
       y1="504.13461"
       x2="1715.5289"
       y2="562.21545"
       id="linearGradient5506"
       xlink:href="#linearGradient5441"
       gradientUnits="userSpaceOnUse"
       gradientTransform="matrix(1.0186916,0,0,1.0262769,-31.364132,-15.781868)" />
    <linearGradient
       x1="1764.031"
       y1="660.65411"
       x2="1835.7396"
       y2="571.91473"
       id="linearGradient5508"
       xlink:href="#linearGradient5457"
       gradientUnits="userSpaceOnUse" />
    <linearGradient
       id="linearGradient5457">
      <stop
         id="stop5459"
         style="stop-color:#00ff00;stop-opacity:1"
         offset="0" />
      <stop
         id="stop5461"
         style="stop-color:#00ff00;stop-opacity:0"
         offset="1" />
    </linearGradient>
  </defs>
  <metadata
     id="metadata4">
    <rdf:RDF>
      <cc:Work
         rdf:about="">
        <dc:format>image/svg+xml</dc:format>
        <dc:type
           rdf:resource="http://purl.org/dc/dcmitype/StillImage" />
        <dc:title></dc:title>
      </cc:Work>
    </rdf:RDF>
  </metadata>
  <g
     transform="translate(-3.8169719,-260.52938)"
     id="layer1">
    <g
       transform="matrix(1.215207,0,0,1.215207,-2108.6996,234.17218)"
       id="g5698">
      <g
         transform="translate(167.3443,-497.96003)"
         id="g5510"
         style="fill:#000000;filter:url(#filter5550)">
        <path
           d="m 1772.9945,585.36013 c 11.489,-2.41883 21.1404,-2.23834 34.9579,-2e-5 0,0 117.4229,69.01949 176.5824,121.00819 59.1596,51.9887 161.3443,147.0026 161.3443,147.0026 0,0 5.3782,7.1708 5.3782,19.7198 0,12.549 -10.7563,39.4398 -19.7199,50.196 -8.9636,10.7563 -37.647,28.6835 -50.196,34.0616 -12.549,5.3782 -25.098,12.549 -41.2324,5.3782 -16.1345,-7.1709 -48.4033,-30.4762 -48.4033,-30.4762 l -268.9072,-302.9687 0,-12.549 19.7199,-16.1344 c 0,0 -41.2324,-28.6835 -44.8179,-35.8543 -3.5854,-7.1709 -19.7198,-14.34175 -16.1344,-19.71989 3.5854,-5.37815 5.3781,-8.96357 14.3417,-8.96357 8.9636,0 77.0867,49.29969 77.0867,49.29969 z"
           id="path5512"
           style="fill:#000000;fill-opacity:1;stroke:none" />
        <path
           d="m 1763.875,600.71875 c -7.418,9.32922 -19.3945,14.16758 -26.3438,23.5625 4.6764,6.748 12.051,11.93602 16.7492,18.89769 82.2607,92.66952 164.5214,185.33904 246.7821,278.00856 17.7231,10.62128 33.3614,27.78488 54.875,29.6875 20.9255,-3.64844 37.8942,-17.34442 55.5,-28.34375 15.014,-12.81919 24.4581,-32.15287 25.375,-51.8125 -1.3174,-12.75418 -14.9872,-17.98811 -22.4409,-26.72875 -56.4453,-51.36023 -110.7668,-105.50011 -171.6278,-151.59561 -46.2946,-33.51859 -96.7084,-61.21265 -147.3063,-87.26939 -9.9916,-3.5521 -21.3252,-0.57788 -31.125,-4.90625 l -0.4375,0.5 z"
           id="path5514"
           style="fill:#000000;fill-opacity:1;stroke:none" />
        <path
           d="m 1731.7534,636.44379 c 0,0 231.9503,250.99349 259.6458,283.26412 27.6955,32.27054 36.3504,39.44182 57.1221,39.44182 20.7716,0 36.5093,-13.32124 53.819,-25.87091 17.3097,-12.54968 33.6427,-42.11715 33.6427,-42.11715"
           transform="matrix(1.0169985,0,0,1.0156698,-29.265048,-9.8122808)"
           id="path5516"
           style="fill:#000000;stroke:#d38d5f;stroke-width:3;stroke-linecap:butt;stroke-linejoin:miter;stroke-miterlimit:4;stroke-opacity:1;stroke-dasharray:none;filter:url(#filter5393)" />
        <path
           d="m 1726.384,615.83623 c 0,0 297.5906,318.2068 303.8651,323.58495 6.2745,5.37814 11.6526,8.96357 20.6162,8.96357 8.9635,0 34.0615,-10.75629 42.1288,-18.8235 8.0672,-8.06722 33.1652,-21.51258 40.336,-33.16522 7.1709,-11.65264 12.549,-30.47614 15.2381,-26.89072 2.6891,3.58543 3.5854,18.82351 0.8964,25.99436 -2.6891,7.17086 -17.9272,26.89072 -28.6835,36.75065 -10.7563,9.85993 -37.647,24.20164 -49.2996,28.68343 -11.6527,4.48178 -17.9272,8.96357 -25.9944,6.2745 -8.0672,-2.68907 -26.8907,-8.96357 -31.3725,-16.13443 -4.4818,-7.17086 -290.4197,-319.10316 -290.4197,-322.68859 0,-3.58543 2.6891,-12.549 2.6891,-12.549 z"
           id="path5518"
           style="fill:#000000;fill-opacity:1;stroke:none" />
        <path
           d="m 1789.129,591.63459 c 0,0 153.2771,114.73372 315.5178,291.31609 23.7755,25.87725 25.9943,8.96357 25.9943,8.96357 l 15.2381,-29.57979 c 0,0 -148.7953,-145.20987 -197.1986,-181.96051 -48.4033,-36.75065 -156.8625,-87.843 -156.8625,-87.843 z"
           id="path5520"
           style="fill:#000000;stroke:none;filter:url(#filter5433)" />
        <path
           d="m 1742.5184,600.59816 c 0,0 3.5854,-3.58543 8.9636,-6.27451 5.3781,-2.68907 22.4089,-5.37814 22.4089,-5.37814 l -74.3977,-51.98872 c 0,0 0,-5.37814 -6.2745,-4.48178 -6.2745,0.89636 -10.7562,2.68907 -12.549,6.2745 -1.7927,3.58543 -2.689,10.75628 -2.689,10.75628 l 2.689,3.58543 z"
           id="path5522"
           style="fill:#000000;fill-opacity:1;stroke:none" />
        <path
           d="m 1743.7247,600.59816 c 0,0 3.6524,-3.67964 9.1312,-6.43938 5.4786,-2.75974 22.8277,-5.51947 22.8277,-5.51947 l -75.7883,-53.35482 c 0,0 0,-5.51946 -6.3918,-4.59955 -6.3918,0.91992 -10.9572,2.75973 -12.7835,6.43938 -1.8262,3.67964 -2.7393,11.03892 -2.7393,11.03892 l 2.7393,3.67964 z"
           id="path5524"
           style="fill:#000000;fill-opacity:1;stroke:none" />
        <path
           d="m 1743.7247,600.59816 c 0,0 3.6524,-3.67964 9.1312,-6.43938 5.4786,-2.75974 22.8277,-5.51947 22.8277,-5.51947 l -75.7883,-53.35482 c 0,0 0,-5.51946 -6.3918,-4.59955 -6.3918,0.91992 -10.9572,2.75973 -12.7835,6.43938 -1.8262,3.67964 -2.7393,11.03892 -2.7393,11.03892 l 2.7393,3.67964 z"
           id="path5526"
           style="fill:#000000;fill-opacity:1;stroke:none" />
        <path
           d="m 1807.9525,596.11637 c 0,0 -24.2017,-5.37814 -35.8543,-0.89636 -11.6527,4.48179 -36.7507,22.40893 -36.7507,22.40893 l 69.0195,70.81222 c 0,0 25.098,-27.78707 42.1288,-34.06157 17.0308,-6.2745 31.3725,-3.58543 37.647,-1.79272 6.2745,1.79272 31.3725,8.96357 31.3725,8.96357 z"
           id="path5528"
           style="opacity:0.22000002;fill:#000000;stroke:none" />
        <path
           d="m 1807.9525,596.11637 c 0,0 -24.2017,-5.37814 -35.8543,-0.89636 -11.6527,4.48179 -36.7507,22.40893 -36.7507,22.40893 l 69.0195,70.81222 c 0,0 25.098,-27.78707 42.1288,-34.06157 17.0308,-6.2745 31.3725,-3.58543 37.647,-1.79272 6.2745,1.79272 31.3725,8.96357 31.3725,8.96357 z"
           id="path5530"
           style="opacity:0.22000002;fill:#000000;fill-opacity:1;stroke:none" />
        <path
           d="m 1824.9833,685.75209 c 0,0 142.5207,60.05593 156.8625,67.22679 14.3417,7.17086 129.9718,75.294 129.9718,75.294 l 7.1708,6.2745 c 0,0 -148.7953,-81.5685 -162.2406,-86.05029 -13.4454,-4.48178 -138.9354,-54.67779 -138.9354,-54.67779 l -1.7927,-5.37814 z"
           id="path5532"
           style="opacity:0.33000004;fill:#000000;stroke:none" />
        <path
           d="m 1920.1747,664.90553 c 0,0 65.0448,112.89538 70.8318,124.92717 5.7869,12.03172 45.5089,115.17398 45.5089,115.17398 l 1.0843,7.61663 c 0,0 -55.2147,-129.09805 -62.1474,-139.04378 -6.9328,-9.94578 -66.0103,-107.75313 -66.0103,-107.75313 l 2.2917,-4.17194 z"
           id="path5534"
           style="opacity:0.33000004;fill:#000000;stroke:none" />
        <path
           d="m 1781.8125,585.03125 c -15.857,4.02952 -30.8981,11.73056 -44.375,20.96875 -6.3793,5.08661 -11.8657,11.97044 -13.6563,20.03125 95.0527,105.48906 190.1009,210.98233 285.1563,316.46875 11.0775,7.23537 21.1195,16.47202 32.8437,22.375 6.358,1.36539 13.128,1.86888 18.8421,-1.67227 13.0218,-4.35994 25.7722,-9.75259 36.9079,-17.79648 9.502,-5.37928 19.5934,-10.3378 26,-19.4375 8.7707,-8.91728 17.1452,-18.12472 21.9009,-29.89548 3.6434,-6.52061 3.1132,-14.21353 6.0679,-20.97952 0.5044,-6.20108 -3.5289,-11.89355 -6.125,-17.34375 -5.4525,-8.83488 -15.0977,-14.22126 -22.2189,-21.75182 -54.9718,-49.65896 -109.3223,-99.97764 -165.7761,-147.86162 -42.945,-31.78019 -88.7431,-59.63033 -133.3889,-89.01079 -8.7855,-5.00833 -16.6021,-12.55383 -27.2099,-12.93827 -4.9572,-0.84214 -9.9212,-1.32471 -14.9687,-1.15625 z"
           id="path5536"
           style="fill:#000000;stroke:#a0892c;stroke-width:2;stroke-linecap:butt;stroke-linejoin:miter;stroke-miterlimit:4;stroke-opacity:1;stroke-dasharray:none;filter:url(#filter5471)" />
      </g>
      <g
         transform="translate(161.3443,-501.96003)"
         id="g5485">
        <path
           d="m 1772.9945,585.36013 c 11.489,-2.41883 21.1404,-2.23834 34.9579,-2e-5 0,0 117.4229,69.01949 176.5824,121.00819 59.1596,51.9887 161.3443,147.0026 161.3443,147.0026 0,0 5.3782,7.1708 5.3782,19.7198 0,12.549 -10.7563,39.4398 -19.7199,50.196 -8.9636,10.7563 -37.647,28.6835 -50.196,34.0616 -12.549,5.3782 -25.098,12.549 -41.2324,5.3782 -16.1345,-7.1709 -48.4033,-30.4762 -48.4033,-30.4762 l -268.9072,-302.9687 0,-12.549 19.7199,-16.1344 c 0,0 -41.2324,-28.6835 -44.8179,-35.8543 -3.5854,-7.1709 -19.7198,-14.34175 -16.1344,-19.71989 3.5854,-5.37815 5.3781,-8.96357 14.3417,-8.96357 8.9636,0 77.0867,49.29969 77.0867,49.29969 z"
           id="path5343"
           style="fill:#f6dcbb;fill-opacity:1;stroke:none" />
        <path
           d="m 1763.875,600.71875 c -7.418,9.32922 -19.3945,14.16758 -26.3438,23.5625 4.6764,6.748 12.051,11.93602 16.7492,18.89769 82.2607,92.66952 164.5214,185.33904 246.7821,278.00856 17.7231,10.62128 33.3614,27.78488 54.875,29.6875 20.9255,-3.64844 37.8942,-17.34442 55.5,-28.34375 15.014,-12.81919 24.4581,-32.15287 25.375,-51.8125 -1.3174,-12.75418 -14.9872,-17.98811 -22.4409,-26.72875 -56.4453,-51.36023 -110.7668,-105.50011 -171.6278,-151.59561 -46.2946,-33.51859 -96.7084,-61.21265 -147.3063,-87.26939 -9.9916,-3.5521 -21.3252,-0.57788 -31.125,-4.90625 l -0.4375,0.5 z"
           id="path5347"
           style="fill:url(#linearGradient5500);fill-opacity:1;stroke:none" />
        <path
           d="m 1731.7534,636.44379 c 0,0 231.9503,250.99349 259.6458,283.26412 27.6955,32.27054 36.3504,39.44182 57.1221,39.44182 20.7716,0 36.5093,-13.32124 53.819,-25.87091 17.3097,-12.54968 33.6427,-42.11715 33.6427,-42.11715"
           transform="matrix(1.0169985,0,0,1.0156698,-29.265048,-9.8122808)"
           id="path5345"
           style="fill:none;stroke:#d38d5f;stroke-width:3;stroke-linecap:butt;stroke-linejoin:miter;stroke-miterlimit:4;stroke-opacity:1;stroke-dasharray:none;filter:url(#filter5393)" />
        <path
           d="m 1726.384,615.83623 c 0,0 297.5906,318.2068 303.8651,323.58495 6.2745,5.37814 11.6526,8.96357 20.6162,8.96357 8.9635,0 34.0615,-10.75629 42.1288,-18.8235 8.0672,-8.06722 33.1652,-21.51258 40.336,-33.16522 7.1709,-11.65264 12.549,-30.47614 15.2381,-26.89072 2.6891,3.58543 3.5854,18.82351 0.8964,25.99436 -2.6891,7.17086 -17.9272,26.89072 -28.6835,36.75065 -10.7563,9.85993 -37.647,24.20164 -49.2996,28.68343 -11.6527,4.48178 -17.9272,8.96357 -25.9944,6.2745 -8.0672,-2.68907 -26.8907,-8.96357 -31.3725,-16.13443 -4.4818,-7.17086 -290.4197,-319.10316 -290.4197,-322.68859 0,-3.58543 2.6891,-12.549 2.6891,-12.549 z"
           id="path5397"
           style="fill:url(#linearGradient5502);fill-opacity:1;stroke:none" />
        <path
           d="m 1789.129,591.63459 c 0,0 153.2771,114.73372 315.5178,291.31609 23.7755,25.87725 25.9943,8.96357 25.9943,8.96357 l 15.2381,-29.57979 c 0,0 -148.7953,-145.20987 -197.1986,-181.96051 -48.4033,-36.75065 -156.8625,-87.843 -156.8625,-87.843 z"
           id="path5407"
           style="fill:#e9c6af;stroke:none;filter:url(#filter5433)" />
        <path
           d="m 1742.5184,600.59816 c 0,0 3.5854,-3.58543 8.9636,-6.27451 5.3781,-2.68907 22.4089,-5.37814 22.4089,-5.37814 l -74.3977,-51.98872 c 0,0 0,-5.37814 -6.2745,-4.48178 -6.2745,0.89636 -10.7562,2.68907 -12.549,6.2745 -1.7927,3.58543 -2.689,10.75628 -2.689,10.75628 l 2.689,3.58543 z"
           id="path5437"
           style="fill:#212226;fill-opacity:1;stroke:none" />
        <path
           d="m 1743.7247,600.59816 c 0,0 3.6524,-3.67964 9.1312,-6.43938 5.4786,-2.75974 22.8277,-5.51947 22.8277,-5.51947 l -75.7883,-53.35482 c 0,0 0,-5.51946 -6.3918,-4.59955 -6.3918,0.91992 -10.9572,2.75973 -12.7835,6.43938 -1.8262,3.67964 -2.7393,11.03892 -2.7393,11.03892 l 2.7393,3.67964 z"
           id="path5439"
           style="fill:url(#linearGradient5504);fill-opacity:1;stroke:none" />
        <path
           d="m 1743.7247,600.59816 c 0,0 3.6524,-3.67964 9.1312,-6.43938 5.4786,-2.75974 22.8277,-5.51947 22.8277,-5.51947 l -75.7883,-53.35482 c 0,0 0,-5.51946 -6.3918,-4.59955 -6.3918,0.91992 -10.9572,2.75973 -12.7835,6.43938 -1.8262,3.67964 -2.7393,11.03892 -2.7393,11.03892 l 2.7393,3.67964 z"
           id="path5449"
           style="fill:url(#linearGradient5506);fill-opacity:1;stroke:none" />
        <path
           d="m 1807.9525,596.11637 c 0,0 -24.2017,-5.37814 -35.8543,-0.89636 -11.6527,4.48179 -36.7507,22.40893 -36.7507,22.40893 l 69.0195,70.81222 c 0,0 25.098,-27.78707 42.1288,-34.06157 17.0308,-6.2745 31.3725,-3.58543 37.647,-1.79272 6.2745,1.79272 31.3725,8.96357 31.3725,8.96357 z"
           id="path5453"
           style="opacity:0.22000002;fill:#008000;stroke:none" />
        <path
           d="m 1807.9525,596.11637 c 0,0 -24.2017,-5.37814 -35.8543,-0.89636 -11.6527,4.48179 -36.7507,22.40893 -36.7507,22.40893 l 69.0195,70.81222 c 0,0 25.098,-27.78707 42.1288,-34.06157 17.0308,-6.2745 31.3725,-3.58543 37.647,-1.79272 6.2745,1.79272 31.3725,8.96357 31.3725,8.96357 z"
           id="path5455"
           style="opacity:0.22000002;fill:url(#linearGradient5508);fill-opacity:1;stroke:none" />
        <path
           d="m 1824.9833,685.75209 c 0,0 142.5207,60.05593 156.8625,67.22679 14.3417,7.17086 129.9718,75.294 129.9718,75.294 l 7.1708,6.2745 c 0,0 -148.7953,-81.5685 -162.2406,-86.05029 -13.4454,-4.48178 -138.9354,-54.67779 -138.9354,-54.67779 l -1.7927,-5.37814 z"
           id="path5465"
           style="opacity:0.33000004;fill:#808000;stroke:none" />
        <path
           d="m 1920.1747,664.90553 c 0,0 65.0448,112.89538 70.8318,124.92717 5.7869,12.03172 45.5089,115.17398 45.5089,115.17398 l 1.0843,7.61663 c 0,0 -55.2147,-129.09805 -62.1474,-139.04378 -6.9328,-9.94578 -66.0103,-107.75313 -66.0103,-107.75313 l 2.2917,-4.17194 z"
           id="path5467"
           style="opacity:0.33000004;fill:#808000;stroke:none" />
        <path
           d="m 1781.8125,585.03125 c -15.857,4.02952 -30.8981,11.73056 -44.375,20.96875 -6.3793,5.08661 -11.8657,11.97044 -13.6563,20.03125 95.0527,105.48906 190.1009,210.98233 285.1563,316.46875 11.0775,7.23537 21.1195,16.47202 32.8437,22.375 6.358,1.36539 13.128,1.86888 18.8421,-1.67227 13.0218,-4.35994 25.7722,-9.75259 36.9079,-17.79648 9.502,-5.37928 19.5934,-10.3378 26,-19.4375 8.7707,-8.91728 17.1452,-18.12472 21.9009,-29.89548 3.6434,-6.52061 3.1132,-14.21353 6.0679,-20.97952 0.5044,-6.20108 -3.5289,-11.89355 -6.125,-17.34375 -5.4525,-8.83488 -15.0977,-14.22126 -22.2189,-21.75182 -54.9718,-49.65896 -109.3223,-99.97764 -165.7761,-147.86162 -42.945,-31.78019 -88.7431,-59.63033 -133.3889,-89.01079 -8.7855,-5.00833 -16.6021,-12.55383 -27.2099,-12.93827 -4.9572,-0.84214 -9.9212,-1.32471 -14.9687,-1.15625 z"
           id="path5469"
           style="fill:none;stroke:#a0892c;stroke-width:2;stroke-linecap:butt;stroke-linejoin:miter;stroke-miterlimit:4;stroke-opacity:1;stroke-dasharray:none;filter:url(#filter5471)" />
      </g>
    </g>
    <g
       transform="matrix(1.215207,0,0,1.215207,-2108.6996,234.17218)"
       id="g5688">
      <path
         d="m 1728.1767,533.81952 c 0,5.69301 -26.888,10.30811 -60.056,10.30811 -33.1679,0 -60.0559,-4.6151 -60.0559,-10.30811 0,-5.69301 26.888,-10.30811 60.0559,-10.30811 33.168,0 60.056,4.6151 60.056,10.30811 z"
         transform="matrix(1.5163465,0,0,1.5163465,-691.02035,-310.901)"
         id="path5650"
         style="fill:url(#linearGradient5658);fill-opacity:1;stroke:none;filter:url(#filter5684)" />
      <g
         id="g5583">
        <path
           d="m 1916.6724,427.41541 c 0,42.70601 -36.3226,77.32607 -81.1289,77.32607 -44.8063,0 -81.129,-34.62006 -81.129,-77.32607 0,-42.70602 36.3227,-77.32608 81.129,-77.32608 44.8063,0 81.1289,34.62006 81.1289,77.32608 z"
           id="path5554"
           style="fill:#2b0000;fill-opacity:1;stroke:#a0892c;stroke-width:2;stroke-linecap:butt;stroke-linejoin:miter;stroke-miterlimit:4;stroke-opacity:1" />
        <path
           d="m 1916.6724,427.41541 c 0,42.70601 -36.3226,77.32607 -81.1289,77.32607 -44.8063,0 -81.129,-34.62006 -81.129,-77.32607 0,-42.70602 36.3227,-77.32608 81.129,-77.32608 44.8063,0 81.1289,34.62006 81.1289,77.32608 z"
           id="path5556"
           style="fill:url(#linearGradient5564);fill-opacity:1;stroke:#a0892c;stroke-width:2;stroke-linecap:butt;stroke-linejoin:miter;stroke-miterlimit:4;stroke-opacity:1" />
        <path
           d="m 1769.6261,383.048 c 0,0 17.747,-12.67641 49.438,-5.07057 31.691,7.60585 50.7056,20.28225 58.3115,32.95866 7.6058,12.6764 21.5499,29.15573 21.5499,41.83213 0,12.67641 -6.3382,30.42338 -6.3382,30.42338"
           id="path5566"
           style="fill:none;stroke:#ffffff;stroke-width:1;stroke-linecap:butt;stroke-linejoin:miter;stroke-miterlimit:4;stroke-opacity:1;stroke-dasharray:4, 8;stroke-dashoffset:0" />
        <path
           d="m 1771.4188,380.35893 c 0,0 17.747,-12.67641 49.438,-5.07057 31.691,7.60585 50.7056,20.28225 58.3115,32.95866 7.6058,12.6764 21.5499,29.15573 21.5499,41.83213 0,12.67641 -6.3382,30.42338 -6.3382,30.42338"
           id="path5568"
           style="fill:none;stroke:#ffffff;stroke-width:1;stroke-linecap:butt;stroke-linejoin:miter;stroke-miterlimit:4;stroke-opacity:1;stroke-dasharray:4, 8;stroke-dashoffset:0" />
        <path
           d="m 1848.384,357.26461 c -22.0704,-3.58543 -50.404,11.35468 -56.8429,12.491 -4.6886,32.79372 66.2752,74.02111 109.6236,74.02111 6.7967,0 0.6038,-15.83646 7.0426,-16.97278 -3.3518,-29.20507 -16.9302,-62.57115 -59.8233,-69.53933 z"
           id="path5570"
           style="fill:url(#linearGradient5581);fill-opacity:1;stroke:none" />
      </g>
    </g>
  </g>
</svg>
